M48
;DRILL file {KiCad (5.0.0)} date 02/24/19 05:38:03
;FORMAT={3:3/ absolute / metric / suppress leading zeros}
FMAT,2
METRIC,TZ
T1C0.400
T2C0.500
T3C0.800
T4C1.000
T5C1.200
T6C1.320
T7C2.390
T8C3.550
%
G90
G05
M71
T1
X88900Y-66040
X113665Y-55245
X114935Y-64135
X114935Y-78740
X123825Y-74295
X127000Y-62865
X132715Y-74295
X132715Y-77470
X133824Y-68811
X133985Y-55880
X133985Y-58420
X135255Y-74930
X135890Y-77470
X141605Y-77470
X144780Y-67310
X151130Y-67310
X157480Y-49530
X157480Y-67310
T2
X123825Y-77470
X123825Y-80010
T3
X123825Y-37465
X133985Y-37465
T4
X64770Y-79375
X67310Y-79375
X154940Y-71755
X154940Y-74295
X154940Y-76835
X157480Y-71755
X157480Y-74295
X157480Y-76835
X150495Y-71755
X150495Y-74295
X150495Y-76835
X150495Y-79375
X117475Y-71755
X117475Y-74295
X120015Y-71755
X120015Y-74295
T5
X99695Y-37465
X120015Y-37465
X75565Y-37465
X95885Y-37465
T6
X64855Y-59055
X137075Y-59055
T7
X65145Y-51055
T8
X73365Y-67055
X128565Y-51055
T0
M30
