G04 #@! TF.GenerationSoftware,KiCad,Pcbnew,(5.0.0)*
G04 #@! TF.CreationDate,2019-02-24T05:38:12+01:00*
G04 #@! TF.ProjectId,lofence,6C6F66656E63652E6B696361645F7063,rev?*
G04 #@! TF.SameCoordinates,Original*
G04 #@! TF.FileFunction,Legend,Bot*
G04 #@! TF.FilePolarity,Positive*
%FSLAX46Y46*%
G04 Gerber Fmt 4.6, Leading zero omitted, Abs format (unit mm)*
G04 Created by KiCad (PCBNEW (5.0.0)) date 02/24/19 05:38:12*
%MOMM*%
%LPD*%
G01*
G04 APERTURE LIST*
%ADD10C,0.120000*%
%ADD11C,0.150000*%
G04 APERTURE END LIST*
D10*
G04 #@! TO.C,C9*
X144280000Y-75985000D02*
X145280000Y-75985000D01*
X145280000Y-77685000D02*
X144280000Y-77685000D01*
G04 #@! TO.C,C11*
X130310000Y-65190000D02*
X131310000Y-65190000D01*
X131310000Y-66890000D02*
X130310000Y-66890000D01*
G04 #@! TO.C,C13*
X112180000Y-65905000D02*
X112180000Y-64905000D01*
X113880000Y-64905000D02*
X113880000Y-65905000D01*
G04 #@! TO.C,R1*
X156810000Y-79130000D02*
X155610000Y-79130000D01*
X155610000Y-80890000D02*
X156810000Y-80890000D01*
G04 #@! TO.C,R2*
X131410000Y-61985000D02*
X130210000Y-61985000D01*
X130210000Y-63745000D02*
X131410000Y-63745000D01*
G04 #@! TO.C,R3*
X122165000Y-57750000D02*
X122165000Y-56550000D01*
X120405000Y-56550000D02*
X120405000Y-57750000D01*
G04 #@! TO.C,R4*
X123580000Y-56550000D02*
X123580000Y-57750000D01*
X125340000Y-57750000D02*
X125340000Y-56550000D01*
G04 #@! TO.C,U3*
X109965000Y-52020000D02*
X110617000Y-52020000D01*
X91965000Y-78210000D02*
X91965000Y-77470000D01*
X96393000Y-78210000D02*
X91965000Y-78210000D01*
X109965000Y-78210000D02*
X105537000Y-78210000D01*
X109965000Y-77470000D02*
X109965000Y-78210000D01*
X91965000Y-51330000D02*
X91965000Y-52020000D01*
X109965000Y-51330000D02*
X91965000Y-51330000D01*
X109965000Y-52020000D02*
X109965000Y-51330000D01*
G04 #@! TO.C,U2*
X66254502Y-66622653D02*
X66254502Y-68422653D01*
X63034502Y-68422653D02*
X63034502Y-65972653D01*
G04 #@! TO.C,L1*
X65450000Y-74238172D02*
X64250000Y-74238172D01*
X64250000Y-75998172D02*
X65450000Y-75998172D01*
G04 #@! TO.C,L2*
X145380000Y-78495000D02*
X144180000Y-78495000D01*
X144180000Y-80255000D02*
X145380000Y-80255000D01*
G04 #@! TO.C,C2*
X64463341Y-62015000D02*
X65463341Y-62015000D01*
X65463341Y-63715000D02*
X64463341Y-63715000D01*
G04 #@! TO.C,C3*
X65290000Y-72817653D02*
X64290000Y-72817653D01*
X64290000Y-71117653D02*
X65290000Y-71117653D01*
G04 #@! TO.C,C9*
D11*
X144946666Y-75442142D02*
X144994285Y-75489761D01*
X145137142Y-75537380D01*
X145232380Y-75537380D01*
X145375238Y-75489761D01*
X145470476Y-75394523D01*
X145518095Y-75299285D01*
X145565714Y-75108809D01*
X145565714Y-74965952D01*
X145518095Y-74775476D01*
X145470476Y-74680238D01*
X145375238Y-74585000D01*
X145232380Y-74537380D01*
X145137142Y-74537380D01*
X144994285Y-74585000D01*
X144946666Y-74632619D01*
X144470476Y-75537380D02*
X144280000Y-75537380D01*
X144184761Y-75489761D01*
X144137142Y-75442142D01*
X144041904Y-75299285D01*
X143994285Y-75108809D01*
X143994285Y-74727857D01*
X144041904Y-74632619D01*
X144089523Y-74585000D01*
X144184761Y-74537380D01*
X144375238Y-74537380D01*
X144470476Y-74585000D01*
X144518095Y-74632619D01*
X144565714Y-74727857D01*
X144565714Y-74965952D01*
X144518095Y-75061190D01*
X144470476Y-75108809D01*
X144375238Y-75156428D01*
X144184761Y-75156428D01*
X144089523Y-75108809D01*
X144041904Y-75061190D01*
X143994285Y-74965952D01*
G04 #@! TO.C,C11*
X131452857Y-68302142D02*
X131500476Y-68349761D01*
X131643333Y-68397380D01*
X131738571Y-68397380D01*
X131881428Y-68349761D01*
X131976666Y-68254523D01*
X132024285Y-68159285D01*
X132071904Y-67968809D01*
X132071904Y-67825952D01*
X132024285Y-67635476D01*
X131976666Y-67540238D01*
X131881428Y-67445000D01*
X131738571Y-67397380D01*
X131643333Y-67397380D01*
X131500476Y-67445000D01*
X131452857Y-67492619D01*
X130500476Y-68397380D02*
X131071904Y-68397380D01*
X130786190Y-68397380D02*
X130786190Y-67397380D01*
X130881428Y-67540238D01*
X130976666Y-67635476D01*
X131071904Y-67683095D01*
X129548095Y-68397380D02*
X130119523Y-68397380D01*
X129833809Y-68397380D02*
X129833809Y-67397380D01*
X129929047Y-67540238D01*
X130024285Y-67635476D01*
X130119523Y-67683095D01*
G04 #@! TO.C,C13*
X113387142Y-60952142D02*
X113434761Y-60904523D01*
X113482380Y-60761666D01*
X113482380Y-60666428D01*
X113434761Y-60523571D01*
X113339523Y-60428333D01*
X113244285Y-60380714D01*
X113053809Y-60333095D01*
X112910952Y-60333095D01*
X112720476Y-60380714D01*
X112625238Y-60428333D01*
X112530000Y-60523571D01*
X112482380Y-60666428D01*
X112482380Y-60761666D01*
X112530000Y-60904523D01*
X112577619Y-60952142D01*
X113482380Y-61904523D02*
X113482380Y-61333095D01*
X113482380Y-61618809D02*
X112482380Y-61618809D01*
X112625238Y-61523571D01*
X112720476Y-61428333D01*
X112768095Y-61333095D01*
X112482380Y-62237857D02*
X112482380Y-62856904D01*
X112863333Y-62523571D01*
X112863333Y-62666428D01*
X112910952Y-62761666D01*
X112958571Y-62809285D01*
X113053809Y-62856904D01*
X113291904Y-62856904D01*
X113387142Y-62809285D01*
X113434761Y-62761666D01*
X113482380Y-62666428D01*
X113482380Y-62380714D01*
X113434761Y-62285476D01*
X113387142Y-62237857D01*
G04 #@! TO.C,R1*
X156376666Y-82162380D02*
X156710000Y-81686190D01*
X156948095Y-82162380D02*
X156948095Y-81162380D01*
X156567142Y-81162380D01*
X156471904Y-81210000D01*
X156424285Y-81257619D01*
X156376666Y-81352857D01*
X156376666Y-81495714D01*
X156424285Y-81590952D01*
X156471904Y-81638571D01*
X156567142Y-81686190D01*
X156948095Y-81686190D01*
X155424285Y-82162380D02*
X155995714Y-82162380D01*
X155710000Y-82162380D02*
X155710000Y-81162380D01*
X155805238Y-81305238D01*
X155900476Y-81400476D01*
X155995714Y-81448095D01*
G04 #@! TO.C,R2*
X130976666Y-61412380D02*
X131310000Y-60936190D01*
X131548095Y-61412380D02*
X131548095Y-60412380D01*
X131167142Y-60412380D01*
X131071904Y-60460000D01*
X131024285Y-60507619D01*
X130976666Y-60602857D01*
X130976666Y-60745714D01*
X131024285Y-60840952D01*
X131071904Y-60888571D01*
X131167142Y-60936190D01*
X131548095Y-60936190D01*
X130595714Y-60507619D02*
X130548095Y-60460000D01*
X130452857Y-60412380D01*
X130214761Y-60412380D01*
X130119523Y-60460000D01*
X130071904Y-60507619D01*
X130024285Y-60602857D01*
X130024285Y-60698095D01*
X130071904Y-60840952D01*
X130643333Y-61412380D01*
X130024285Y-61412380D01*
G04 #@! TO.C,R3*
X120037380Y-56983333D02*
X119561190Y-56650000D01*
X120037380Y-56411904D02*
X119037380Y-56411904D01*
X119037380Y-56792857D01*
X119085000Y-56888095D01*
X119132619Y-56935714D01*
X119227857Y-56983333D01*
X119370714Y-56983333D01*
X119465952Y-56935714D01*
X119513571Y-56888095D01*
X119561190Y-56792857D01*
X119561190Y-56411904D01*
X119037380Y-57316666D02*
X119037380Y-57935714D01*
X119418333Y-57602380D01*
X119418333Y-57745238D01*
X119465952Y-57840476D01*
X119513571Y-57888095D01*
X119608809Y-57935714D01*
X119846904Y-57935714D01*
X119942142Y-57888095D01*
X119989761Y-57840476D01*
X120037380Y-57745238D01*
X120037380Y-57459523D01*
X119989761Y-57364285D01*
X119942142Y-57316666D01*
G04 #@! TO.C,R4*
X126612380Y-56983333D02*
X126136190Y-56650000D01*
X126612380Y-56411904D02*
X125612380Y-56411904D01*
X125612380Y-56792857D01*
X125660000Y-56888095D01*
X125707619Y-56935714D01*
X125802857Y-56983333D01*
X125945714Y-56983333D01*
X126040952Y-56935714D01*
X126088571Y-56888095D01*
X126136190Y-56792857D01*
X126136190Y-56411904D01*
X125945714Y-57840476D02*
X126612380Y-57840476D01*
X125564761Y-57602380D02*
X126279047Y-57364285D01*
X126279047Y-57983333D01*
G04 #@! TO.C,U3*
X108838904Y-49998380D02*
X108838904Y-50807904D01*
X108791285Y-50903142D01*
X108743666Y-50950761D01*
X108648428Y-50998380D01*
X108457952Y-50998380D01*
X108362714Y-50950761D01*
X108315095Y-50903142D01*
X108267476Y-50807904D01*
X108267476Y-49998380D01*
X107886523Y-49998380D02*
X107267476Y-49998380D01*
X107600809Y-50379333D01*
X107457952Y-50379333D01*
X107362714Y-50426952D01*
X107315095Y-50474571D01*
X107267476Y-50569809D01*
X107267476Y-50807904D01*
X107315095Y-50903142D01*
X107362714Y-50950761D01*
X107457952Y-50998380D01*
X107743666Y-50998380D01*
X107838904Y-50950761D01*
X107886523Y-50903142D01*
G04 #@! TO.C,U2*
X61682380Y-66760748D02*
X62491904Y-66760748D01*
X62587142Y-66808367D01*
X62634761Y-66855986D01*
X62682380Y-66951224D01*
X62682380Y-67141700D01*
X62634761Y-67236938D01*
X62587142Y-67284557D01*
X62491904Y-67332176D01*
X61682380Y-67332176D01*
X61777619Y-67760748D02*
X61730000Y-67808367D01*
X61682380Y-67903605D01*
X61682380Y-68141700D01*
X61730000Y-68236938D01*
X61777619Y-68284557D01*
X61872857Y-68332176D01*
X61968095Y-68332176D01*
X62110952Y-68284557D01*
X62682380Y-67713129D01*
X62682380Y-68332176D01*
G04 #@! TO.C,L1*
X65016666Y-77270552D02*
X65492857Y-77270552D01*
X65492857Y-76270552D01*
X64159523Y-77270552D02*
X64730952Y-77270552D01*
X64445238Y-77270552D02*
X64445238Y-76270552D01*
X64540476Y-76413410D01*
X64635714Y-76508648D01*
X64730952Y-76556267D01*
G04 #@! TO.C,L2*
X144946666Y-81527380D02*
X145422857Y-81527380D01*
X145422857Y-80527380D01*
X144660952Y-80622619D02*
X144613333Y-80575000D01*
X144518095Y-80527380D01*
X144280000Y-80527380D01*
X144184761Y-80575000D01*
X144137142Y-80622619D01*
X144089523Y-80717857D01*
X144089523Y-80813095D01*
X144137142Y-80955952D01*
X144708571Y-81527380D01*
X144089523Y-81527380D01*
G04 #@! TO.C,C2*
X65130007Y-61472142D02*
X65177626Y-61519761D01*
X65320483Y-61567380D01*
X65415721Y-61567380D01*
X65558579Y-61519761D01*
X65653817Y-61424523D01*
X65701436Y-61329285D01*
X65749055Y-61138809D01*
X65749055Y-60995952D01*
X65701436Y-60805476D01*
X65653817Y-60710238D01*
X65558579Y-60615000D01*
X65415721Y-60567380D01*
X65320483Y-60567380D01*
X65177626Y-60615000D01*
X65130007Y-60662619D01*
X64749055Y-60662619D02*
X64701436Y-60615000D01*
X64606198Y-60567380D01*
X64368102Y-60567380D01*
X64272864Y-60615000D01*
X64225245Y-60662619D01*
X64177626Y-60757857D01*
X64177626Y-60853095D01*
X64225245Y-60995952D01*
X64796674Y-61567380D01*
X64177626Y-61567380D01*
G04 #@! TO.C,C3*
X64956666Y-74074795D02*
X65004285Y-74122414D01*
X65147142Y-74170033D01*
X65242380Y-74170033D01*
X65385238Y-74122414D01*
X65480476Y-74027176D01*
X65528095Y-73931938D01*
X65575714Y-73741462D01*
X65575714Y-73598605D01*
X65528095Y-73408129D01*
X65480476Y-73312891D01*
X65385238Y-73217653D01*
X65242380Y-73170033D01*
X65147142Y-73170033D01*
X65004285Y-73217653D01*
X64956666Y-73265272D01*
X64623333Y-73170033D02*
X64004285Y-73170033D01*
X64337619Y-73550986D01*
X64194761Y-73550986D01*
X64099523Y-73598605D01*
X64051904Y-73646224D01*
X64004285Y-73741462D01*
X64004285Y-73979557D01*
X64051904Y-74074795D01*
X64099523Y-74122414D01*
X64194761Y-74170033D01*
X64480476Y-74170033D01*
X64575714Y-74122414D01*
X64623333Y-74074795D01*
G04 #@! TO.C,AE2*
X100226666Y-80811666D02*
X99750476Y-80811666D01*
X100321904Y-81097380D02*
X99988571Y-80097380D01*
X99655238Y-81097380D01*
X99321904Y-80573571D02*
X98988571Y-80573571D01*
X98845714Y-81097380D02*
X99321904Y-81097380D01*
X99321904Y-80097380D01*
X98845714Y-80097380D01*
X98464761Y-80192619D02*
X98417142Y-80145000D01*
X98321904Y-80097380D01*
X98083809Y-80097380D01*
X97988571Y-80145000D01*
X97940952Y-80192619D01*
X97893333Y-80287857D01*
X97893333Y-80383095D01*
X97940952Y-80525952D01*
X98512380Y-81097380D01*
X97893333Y-81097380D01*
G04 #@! TO.C,TP1*
X108576904Y-80097380D02*
X108005476Y-80097380D01*
X108291190Y-81097380D02*
X108291190Y-80097380D01*
X107672142Y-81097380D02*
X107672142Y-80097380D01*
X107291190Y-80097380D01*
X107195952Y-80145000D01*
X107148333Y-80192619D01*
X107100714Y-80287857D01*
X107100714Y-80430714D01*
X107148333Y-80525952D01*
X107195952Y-80573571D01*
X107291190Y-80621190D01*
X107672142Y-80621190D01*
X106148333Y-81097380D02*
X106719761Y-81097380D01*
X106434047Y-81097380D02*
X106434047Y-80097380D01*
X106529285Y-80240238D01*
X106624523Y-80335476D01*
X106719761Y-80383095D01*
G04 #@! TD*
M02*
