G04 #@! TF.GenerationSoftware,KiCad,Pcbnew,(5.0.0)*
G04 #@! TF.CreationDate,2019-02-24T05:38:12+01:00*
G04 #@! TF.ProjectId,lofence,6C6F66656E63652E6B696361645F7063,rev?*
G04 #@! TF.SameCoordinates,Original*
G04 #@! TF.FileFunction,Legend,Top*
G04 #@! TF.FilePolarity,Positive*
%FSLAX46Y46*%
G04 Gerber Fmt 4.6, Leading zero omitted, Abs format (unit mm)*
G04 Created by KiCad (PCBNEW (5.0.0)) date 02/24/19 05:38:12*
%MOMM*%
%LPD*%
G01*
G04 APERTURE LIST*
%ADD10C,0.200000*%
%ADD11C,0.150000*%
%ADD12C,0.250000*%
%ADD13C,0.500000*%
%ADD14C,0.120000*%
G04 APERTURE END LIST*
D10*
X80645000Y-80645000D02*
X83185000Y-80645000D01*
X80645000Y-78105000D02*
X83185000Y-78105000D01*
X83185000Y-78105000D02*
X83185000Y-80645000D01*
X82550000Y-78740000D02*
X82550000Y-80010000D01*
X81280000Y-78740000D02*
X81280000Y-80010000D01*
X80645000Y-78105000D02*
X80645000Y-80645000D01*
X79375000Y-75565000D02*
X79375000Y-70485000D01*
X75565000Y-70485000D02*
X79375000Y-70485000D01*
X75565000Y-75565000D02*
X75565000Y-70485000D01*
X83185000Y-75565000D02*
X75565000Y-75565000D01*
X83185000Y-70485000D02*
X83185000Y-75565000D01*
X79375000Y-70485000D02*
X83185000Y-70485000D01*
D11*
X76803571Y-70875000D02*
X76708333Y-70827380D01*
X76565476Y-70827380D01*
X76422619Y-70875000D01*
X76327380Y-70970238D01*
X76279761Y-71065476D01*
X76232142Y-71255952D01*
X76232142Y-71398809D01*
X76279761Y-71589285D01*
X76327380Y-71684523D01*
X76422619Y-71779761D01*
X76565476Y-71827380D01*
X76660714Y-71827380D01*
X76803571Y-71779761D01*
X76851190Y-71732142D01*
X76851190Y-71398809D01*
X76660714Y-71398809D01*
X77279761Y-71827380D02*
X77279761Y-70827380D01*
X77851190Y-71827380D01*
X77851190Y-70827380D01*
X78327380Y-71827380D02*
X78327380Y-70827380D01*
X78565476Y-70827380D01*
X78708333Y-70875000D01*
X78803571Y-70970238D01*
X78851190Y-71065476D01*
X78898809Y-71255952D01*
X78898809Y-71398809D01*
X78851190Y-71589285D01*
X78803571Y-71684523D01*
X78708333Y-71779761D01*
X78565476Y-71827380D01*
X78327380Y-71827380D01*
X80660714Y-71827380D02*
X80327380Y-71351190D01*
X80089285Y-71827380D02*
X80089285Y-70827380D01*
X80470238Y-70827380D01*
X80565476Y-70875000D01*
X80613095Y-70922619D01*
X80660714Y-71017857D01*
X80660714Y-71160714D01*
X80613095Y-71255952D01*
X80565476Y-71303571D01*
X80470238Y-71351190D01*
X80089285Y-71351190D01*
X81089285Y-71303571D02*
X81422619Y-71303571D01*
X81565476Y-71827380D02*
X81089285Y-71827380D01*
X81089285Y-70827380D01*
X81565476Y-70827380D01*
X81946428Y-71779761D02*
X82089285Y-71827380D01*
X82327380Y-71827380D01*
X82422619Y-71779761D01*
X82470238Y-71732142D01*
X82517857Y-71636904D01*
X82517857Y-71541666D01*
X82470238Y-71446428D01*
X82422619Y-71398809D01*
X82327380Y-71351190D01*
X82136904Y-71303571D01*
X82041666Y-71255952D01*
X81994047Y-71208333D01*
X81946428Y-71113095D01*
X81946428Y-71017857D01*
X81994047Y-70922619D01*
X82041666Y-70875000D01*
X82136904Y-70827380D01*
X82375000Y-70827380D01*
X82517857Y-70875000D01*
X76184523Y-73477380D02*
X76184523Y-72477380D01*
X76517857Y-73191666D01*
X76851190Y-72477380D01*
X76851190Y-73477380D01*
X77517857Y-72477380D02*
X77708333Y-72477380D01*
X77803571Y-72525000D01*
X77898809Y-72620238D01*
X77946428Y-72810714D01*
X77946428Y-73144047D01*
X77898809Y-73334523D01*
X77803571Y-73429761D01*
X77708333Y-73477380D01*
X77517857Y-73477380D01*
X77422619Y-73429761D01*
X77327380Y-73334523D01*
X77279761Y-73144047D01*
X77279761Y-72810714D01*
X77327380Y-72620238D01*
X77422619Y-72525000D01*
X77517857Y-72477380D01*
X78327380Y-73429761D02*
X78470238Y-73477380D01*
X78708333Y-73477380D01*
X78803571Y-73429761D01*
X78851190Y-73382142D01*
X78898809Y-73286904D01*
X78898809Y-73191666D01*
X78851190Y-73096428D01*
X78803571Y-73048809D01*
X78708333Y-73001190D01*
X78517857Y-72953571D01*
X78422619Y-72905952D01*
X78375000Y-72858333D01*
X78327380Y-72763095D01*
X78327380Y-72667857D01*
X78375000Y-72572619D01*
X78422619Y-72525000D01*
X78517857Y-72477380D01*
X78755952Y-72477380D01*
X78898809Y-72525000D01*
X80041666Y-73429761D02*
X80184523Y-73477380D01*
X80422619Y-73477380D01*
X80517857Y-73429761D01*
X80565476Y-73382142D01*
X80613095Y-73286904D01*
X80613095Y-73191666D01*
X80565476Y-73096428D01*
X80517857Y-73048809D01*
X80422619Y-73001190D01*
X80232142Y-72953571D01*
X80136904Y-72905952D01*
X80089285Y-72858333D01*
X80041666Y-72763095D01*
X80041666Y-72667857D01*
X80089285Y-72572619D01*
X80136904Y-72525000D01*
X80232142Y-72477380D01*
X80470238Y-72477380D01*
X80613095Y-72525000D01*
X81613095Y-73382142D02*
X81565476Y-73429761D01*
X81422619Y-73477380D01*
X81327380Y-73477380D01*
X81184523Y-73429761D01*
X81089285Y-73334523D01*
X81041666Y-73239285D01*
X80994047Y-73048809D01*
X80994047Y-72905952D01*
X81041666Y-72715476D01*
X81089285Y-72620238D01*
X81184523Y-72525000D01*
X81327380Y-72477380D01*
X81422619Y-72477380D01*
X81565476Y-72525000D01*
X81613095Y-72572619D01*
X82041666Y-73477380D02*
X82041666Y-72477380D01*
X82613095Y-73477380D02*
X82184523Y-72905952D01*
X82613095Y-72477380D02*
X82041666Y-73048809D01*
X76470238Y-74127380D02*
X77089285Y-74127380D01*
X76755952Y-74508333D01*
X76898809Y-74508333D01*
X76994047Y-74555952D01*
X77041666Y-74603571D01*
X77089285Y-74698809D01*
X77089285Y-74936904D01*
X77041666Y-75032142D01*
X76994047Y-75079761D01*
X76898809Y-75127380D01*
X76613095Y-75127380D01*
X76517857Y-75079761D01*
X76470238Y-75032142D01*
X77375000Y-74127380D02*
X77708333Y-75127380D01*
X78041666Y-74127380D01*
X78279761Y-74127380D02*
X78898809Y-74127380D01*
X78565476Y-74508333D01*
X78708333Y-74508333D01*
X78803571Y-74555952D01*
X78851190Y-74603571D01*
X78898809Y-74698809D01*
X78898809Y-74936904D01*
X78851190Y-75032142D01*
X78803571Y-75079761D01*
X78708333Y-75127380D01*
X78422619Y-75127380D01*
X78327380Y-75079761D01*
X78279761Y-75032142D01*
X80089285Y-75127380D02*
X80089285Y-74127380D01*
X80422619Y-74841666D01*
X80755952Y-74127380D01*
X80755952Y-75127380D01*
X81232142Y-75127380D02*
X81232142Y-74127380D01*
X81660714Y-75079761D02*
X81803571Y-75127380D01*
X82041666Y-75127380D01*
X82136904Y-75079761D01*
X82184523Y-75032142D01*
X82232142Y-74936904D01*
X82232142Y-74841666D01*
X82184523Y-74746428D01*
X82136904Y-74698809D01*
X82041666Y-74651190D01*
X81851190Y-74603571D01*
X81755952Y-74555952D01*
X81708333Y-74508333D01*
X81660714Y-74413095D01*
X81660714Y-74317857D01*
X81708333Y-74222619D01*
X81755952Y-74175000D01*
X81851190Y-74127380D01*
X82089285Y-74127380D01*
X82232142Y-74175000D01*
D10*
X74295000Y-76835000D02*
X74295000Y-70485000D01*
X70485000Y-76835000D02*
X74295000Y-76835000D01*
X70485000Y-70485000D02*
X70485000Y-76835000D01*
X70485000Y-70485000D02*
X74295000Y-70485000D01*
D11*
X71628095Y-70685000D02*
X71532857Y-70637380D01*
X71390000Y-70637380D01*
X71247142Y-70685000D01*
X71151904Y-70780238D01*
X71104285Y-70875476D01*
X71056666Y-71065952D01*
X71056666Y-71208809D01*
X71104285Y-71399285D01*
X71151904Y-71494523D01*
X71247142Y-71589761D01*
X71390000Y-71637380D01*
X71485238Y-71637380D01*
X71628095Y-71589761D01*
X71675714Y-71542142D01*
X71675714Y-71208809D01*
X71485238Y-71208809D01*
X72104285Y-71637380D02*
X72104285Y-70637380D01*
X72675714Y-71637380D01*
X72675714Y-70637380D01*
X73151904Y-71637380D02*
X73151904Y-70637380D01*
X73390000Y-70637380D01*
X73532857Y-70685000D01*
X73628095Y-70780238D01*
X73675714Y-70875476D01*
X73723333Y-71065952D01*
X73723333Y-71208809D01*
X73675714Y-71399285D01*
X73628095Y-71494523D01*
X73532857Y-71589761D01*
X73390000Y-71637380D01*
X73151904Y-71637380D01*
X71628095Y-72287380D02*
X72199523Y-72287380D01*
X71913809Y-73287380D02*
X71913809Y-72287380D01*
X72437619Y-72287380D02*
X73104285Y-73287380D01*
X73104285Y-72287380D02*
X72437619Y-73287380D01*
X72223333Y-74937380D02*
X71890000Y-74461190D01*
X71651904Y-74937380D02*
X71651904Y-73937380D01*
X72032857Y-73937380D01*
X72128095Y-73985000D01*
X72175714Y-74032619D01*
X72223333Y-74127857D01*
X72223333Y-74270714D01*
X72175714Y-74365952D01*
X72128095Y-74413571D01*
X72032857Y-74461190D01*
X71651904Y-74461190D01*
X72556666Y-73937380D02*
X73223333Y-74937380D01*
X73223333Y-73937380D02*
X72556666Y-74937380D01*
X71151904Y-75587380D02*
X71770952Y-75587380D01*
X71437619Y-75968333D01*
X71580476Y-75968333D01*
X71675714Y-76015952D01*
X71723333Y-76063571D01*
X71770952Y-76158809D01*
X71770952Y-76396904D01*
X71723333Y-76492142D01*
X71675714Y-76539761D01*
X71580476Y-76587380D01*
X71294761Y-76587380D01*
X71199523Y-76539761D01*
X71151904Y-76492142D01*
X72056666Y-75587380D02*
X72390000Y-76587380D01*
X72723333Y-75587380D01*
X72961428Y-75587380D02*
X73580476Y-75587380D01*
X73247142Y-75968333D01*
X73390000Y-75968333D01*
X73485238Y-76015952D01*
X73532857Y-76063571D01*
X73580476Y-76158809D01*
X73580476Y-76396904D01*
X73532857Y-76492142D01*
X73485238Y-76539761D01*
X73390000Y-76587380D01*
X73104285Y-76587380D01*
X73009047Y-76539761D01*
X72961428Y-76492142D01*
D10*
X70485000Y-78105000D02*
X78105000Y-78105000D01*
X70485000Y-80645000D02*
X70485000Y-78105000D01*
X78105000Y-80645000D02*
X78105000Y-78105000D01*
X74295000Y-80645000D02*
X78105000Y-80645000D01*
X74295000Y-80645000D02*
X70485000Y-80645000D01*
X74295000Y-78105000D02*
X74295000Y-80645000D01*
D11*
X71151904Y-78827380D02*
X71770952Y-78827380D01*
X71437619Y-79208333D01*
X71580476Y-79208333D01*
X71675714Y-79255952D01*
X71723333Y-79303571D01*
X71770952Y-79398809D01*
X71770952Y-79636904D01*
X71723333Y-79732142D01*
X71675714Y-79779761D01*
X71580476Y-79827380D01*
X71294761Y-79827380D01*
X71199523Y-79779761D01*
X71151904Y-79732142D01*
X72056666Y-78827380D02*
X72390000Y-79827380D01*
X72723333Y-78827380D01*
X72961428Y-78827380D02*
X73580476Y-78827380D01*
X73247142Y-79208333D01*
X73390000Y-79208333D01*
X73485238Y-79255952D01*
X73532857Y-79303571D01*
X73580476Y-79398809D01*
X73580476Y-79636904D01*
X73532857Y-79732142D01*
X73485238Y-79779761D01*
X73390000Y-79827380D01*
X73104285Y-79827380D01*
X73009047Y-79779761D01*
X72961428Y-79732142D01*
X75438095Y-78875000D02*
X75342857Y-78827380D01*
X75200000Y-78827380D01*
X75057142Y-78875000D01*
X74961904Y-78970238D01*
X74914285Y-79065476D01*
X74866666Y-79255952D01*
X74866666Y-79398809D01*
X74914285Y-79589285D01*
X74961904Y-79684523D01*
X75057142Y-79779761D01*
X75200000Y-79827380D01*
X75295238Y-79827380D01*
X75438095Y-79779761D01*
X75485714Y-79732142D01*
X75485714Y-79398809D01*
X75295238Y-79398809D01*
X75914285Y-79827380D02*
X75914285Y-78827380D01*
X76485714Y-79827380D01*
X76485714Y-78827380D01*
X76961904Y-79827380D02*
X76961904Y-78827380D01*
X77200000Y-78827380D01*
X77342857Y-78875000D01*
X77438095Y-78970238D01*
X77485714Y-79065476D01*
X77533333Y-79255952D01*
X77533333Y-79398809D01*
X77485714Y-79589285D01*
X77438095Y-79684523D01*
X77342857Y-79779761D01*
X77200000Y-79827380D01*
X76961904Y-79827380D01*
D12*
X101788452Y-78228095D02*
X101169404Y-78228095D01*
X101169404Y-76928095D01*
X102407500Y-78228095D02*
X102283690Y-78166190D01*
X102221785Y-78104285D01*
X102159880Y-77980476D01*
X102159880Y-77609047D01*
X102221785Y-77485238D01*
X102283690Y-77423333D01*
X102407500Y-77361428D01*
X102593214Y-77361428D01*
X102717023Y-77423333D01*
X102778928Y-77485238D01*
X102840833Y-77609047D01*
X102840833Y-77980476D01*
X102778928Y-78104285D01*
X102717023Y-78166190D01*
X102593214Y-78228095D01*
X102407500Y-78228095D01*
X103831309Y-77547142D02*
X103397976Y-77547142D01*
X103397976Y-78228095D02*
X103397976Y-76928095D01*
X104017023Y-76928095D01*
X105007500Y-78166190D02*
X104883690Y-78228095D01*
X104636071Y-78228095D01*
X104512261Y-78166190D01*
X104450357Y-78042380D01*
X104450357Y-77547142D01*
X104512261Y-77423333D01*
X104636071Y-77361428D01*
X104883690Y-77361428D01*
X105007500Y-77423333D01*
X105069404Y-77547142D01*
X105069404Y-77670952D01*
X104450357Y-77794761D01*
X105626547Y-77361428D02*
X105626547Y-78228095D01*
X105626547Y-77485238D02*
X105688452Y-77423333D01*
X105812261Y-77361428D01*
X105997976Y-77361428D01*
X106121785Y-77423333D01*
X106183690Y-77547142D01*
X106183690Y-78228095D01*
X107359880Y-78166190D02*
X107236071Y-78228095D01*
X106988452Y-78228095D01*
X106864642Y-78166190D01*
X106802738Y-78104285D01*
X106740833Y-77980476D01*
X106740833Y-77609047D01*
X106802738Y-77485238D01*
X106864642Y-77423333D01*
X106988452Y-77361428D01*
X107236071Y-77361428D01*
X107359880Y-77423333D01*
X108412261Y-78166190D02*
X108288452Y-78228095D01*
X108040833Y-78228095D01*
X107917023Y-78166190D01*
X107855119Y-78042380D01*
X107855119Y-77547142D01*
X107917023Y-77423333D01*
X108040833Y-77361428D01*
X108288452Y-77361428D01*
X108412261Y-77423333D01*
X108474166Y-77547142D01*
X108474166Y-77670952D01*
X107855119Y-77794761D01*
X110764642Y-78228095D02*
X110331309Y-77609047D01*
X110021785Y-78228095D02*
X110021785Y-76928095D01*
X110517023Y-76928095D01*
X110640833Y-76990000D01*
X110702738Y-77051904D01*
X110764642Y-77175714D01*
X110764642Y-77361428D01*
X110702738Y-77485238D01*
X110640833Y-77547142D01*
X110517023Y-77609047D01*
X110021785Y-77609047D01*
X111321785Y-77547142D02*
X111755119Y-77547142D01*
X111940833Y-78228095D02*
X111321785Y-78228095D01*
X111321785Y-76928095D01*
X111940833Y-76928095D01*
X112312261Y-76928095D02*
X112745595Y-78228095D01*
X113178928Y-76928095D01*
X114540833Y-77856666D02*
X115159880Y-77856666D01*
X114417023Y-78228095D02*
X114850357Y-76928095D01*
X115283690Y-78228095D01*
X84083690Y-80428095D02*
X84083690Y-79128095D01*
X84640833Y-80428095D02*
X84640833Y-79747142D01*
X84578928Y-79623333D01*
X84455119Y-79561428D01*
X84269404Y-79561428D01*
X84145595Y-79623333D01*
X84083690Y-79685238D01*
X85074166Y-79561428D02*
X85569404Y-79561428D01*
X85259880Y-79128095D02*
X85259880Y-80242380D01*
X85321785Y-80366190D01*
X85445595Y-80428095D01*
X85569404Y-80428095D01*
X85817023Y-79561428D02*
X86312261Y-79561428D01*
X86002738Y-79128095D02*
X86002738Y-80242380D01*
X86064642Y-80366190D01*
X86188452Y-80428095D01*
X86312261Y-80428095D01*
X86745595Y-79561428D02*
X86745595Y-80861428D01*
X86745595Y-79623333D02*
X86869404Y-79561428D01*
X87117023Y-79561428D01*
X87240833Y-79623333D01*
X87302738Y-79685238D01*
X87364642Y-79809047D01*
X87364642Y-80180476D01*
X87302738Y-80304285D01*
X87240833Y-80366190D01*
X87117023Y-80428095D01*
X86869404Y-80428095D01*
X86745595Y-80366190D01*
X87859880Y-80366190D02*
X87983690Y-80428095D01*
X88231309Y-80428095D01*
X88355119Y-80366190D01*
X88417023Y-80242380D01*
X88417023Y-80180476D01*
X88355119Y-80056666D01*
X88231309Y-79994761D01*
X88045595Y-79994761D01*
X87921785Y-79932857D01*
X87859880Y-79809047D01*
X87859880Y-79747142D01*
X87921785Y-79623333D01*
X88045595Y-79561428D01*
X88231309Y-79561428D01*
X88355119Y-79623333D01*
X88974166Y-80304285D02*
X89036071Y-80366190D01*
X88974166Y-80428095D01*
X88912261Y-80366190D01*
X88974166Y-80304285D01*
X88974166Y-80428095D01*
X88974166Y-79623333D02*
X89036071Y-79685238D01*
X88974166Y-79747142D01*
X88912261Y-79685238D01*
X88974166Y-79623333D01*
X88974166Y-79747142D01*
X90521785Y-79066190D02*
X89407499Y-80737619D01*
X91883690Y-79066190D02*
X90769404Y-80737619D01*
X92874166Y-79561428D02*
X92874166Y-80613809D01*
X92812261Y-80737619D01*
X92750357Y-80799523D01*
X92626547Y-80861428D01*
X92440833Y-80861428D01*
X92317023Y-80799523D01*
X92874166Y-80366190D02*
X92750357Y-80428095D01*
X92502738Y-80428095D01*
X92378928Y-80366190D01*
X92317023Y-80304285D01*
X92255119Y-80180476D01*
X92255119Y-79809047D01*
X92317023Y-79685238D01*
X92378928Y-79623333D01*
X92502738Y-79561428D01*
X92750357Y-79561428D01*
X92874166Y-79623333D01*
X93493214Y-80428095D02*
X93493214Y-79561428D01*
X93493214Y-79128095D02*
X93431309Y-79190000D01*
X93493214Y-79251904D01*
X93555119Y-79190000D01*
X93493214Y-79128095D01*
X93493214Y-79251904D01*
X93926547Y-79561428D02*
X94421785Y-79561428D01*
X94112261Y-79128095D02*
X94112261Y-80242380D01*
X94174166Y-80366190D01*
X94297976Y-80428095D01*
X94421785Y-80428095D01*
X94855119Y-80428095D02*
X94855119Y-79128095D01*
X95412261Y-80428095D02*
X95412261Y-79747142D01*
X95350357Y-79623333D01*
X95226547Y-79561428D01*
X95040833Y-79561428D01*
X94917023Y-79623333D01*
X94855119Y-79685238D01*
X96588452Y-79561428D02*
X96588452Y-80428095D01*
X96031309Y-79561428D02*
X96031309Y-80242380D01*
X96093214Y-80366190D01*
X96217023Y-80428095D01*
X96402738Y-80428095D01*
X96526547Y-80366190D01*
X96588452Y-80304285D01*
X97207499Y-80428095D02*
X97207499Y-79128095D01*
X97207499Y-79623333D02*
X97331309Y-79561428D01*
X97578928Y-79561428D01*
X97702738Y-79623333D01*
X97764642Y-79685238D01*
X97826547Y-79809047D01*
X97826547Y-80180476D01*
X97764642Y-80304285D01*
X97702738Y-80366190D01*
X97578928Y-80428095D01*
X97331309Y-80428095D01*
X97207499Y-80366190D01*
X98383690Y-80304285D02*
X98445595Y-80366190D01*
X98383690Y-80428095D01*
X98321785Y-80366190D01*
X98383690Y-80304285D01*
X98383690Y-80428095D01*
X99559880Y-80366190D02*
X99436071Y-80428095D01*
X99188452Y-80428095D01*
X99064642Y-80366190D01*
X99002738Y-80304285D01*
X98940833Y-80180476D01*
X98940833Y-79809047D01*
X99002738Y-79685238D01*
X99064642Y-79623333D01*
X99188452Y-79561428D01*
X99436071Y-79561428D01*
X99559880Y-79623333D01*
X100302738Y-80428095D02*
X100178928Y-80366190D01*
X100117023Y-80304285D01*
X100055119Y-80180476D01*
X100055119Y-79809047D01*
X100117023Y-79685238D01*
X100178928Y-79623333D01*
X100302738Y-79561428D01*
X100488452Y-79561428D01*
X100612261Y-79623333D01*
X100674166Y-79685238D01*
X100736071Y-79809047D01*
X100736071Y-80180476D01*
X100674166Y-80304285D01*
X100612261Y-80366190D01*
X100488452Y-80428095D01*
X100302738Y-80428095D01*
X101293214Y-80428095D02*
X101293214Y-79561428D01*
X101293214Y-79685238D02*
X101355119Y-79623333D01*
X101478928Y-79561428D01*
X101664642Y-79561428D01*
X101788452Y-79623333D01*
X101850357Y-79747142D01*
X101850357Y-80428095D01*
X101850357Y-79747142D02*
X101912261Y-79623333D01*
X102036071Y-79561428D01*
X102221785Y-79561428D01*
X102345595Y-79623333D01*
X102407499Y-79747142D01*
X102407499Y-80428095D01*
X103955119Y-79066190D02*
X102840833Y-80737619D01*
X104388452Y-80428095D02*
X104388452Y-79128095D01*
X104512261Y-79932857D02*
X104883690Y-80428095D01*
X104883690Y-79561428D02*
X104388452Y-80056666D01*
X105440833Y-80428095D02*
X105440833Y-79561428D01*
X105440833Y-79128095D02*
X105378928Y-79190000D01*
X105440833Y-79251904D01*
X105502738Y-79190000D01*
X105440833Y-79128095D01*
X105440833Y-79251904D01*
X106617023Y-79561428D02*
X106617023Y-80428095D01*
X106059880Y-79561428D02*
X106059880Y-80242380D01*
X106121785Y-80366190D01*
X106245595Y-80428095D01*
X106431309Y-80428095D01*
X106555119Y-80366190D01*
X106617023Y-80304285D01*
X108164642Y-79066190D02*
X107050357Y-80737619D01*
X108783690Y-80428095D02*
X108659880Y-80366190D01*
X108597976Y-80242380D01*
X108597976Y-79128095D01*
X109464642Y-80428095D02*
X109340833Y-80366190D01*
X109278928Y-80304285D01*
X109217023Y-80180476D01*
X109217023Y-79809047D01*
X109278928Y-79685238D01*
X109340833Y-79623333D01*
X109464642Y-79561428D01*
X109650357Y-79561428D01*
X109774166Y-79623333D01*
X109836071Y-79685238D01*
X109897976Y-79809047D01*
X109897976Y-80180476D01*
X109836071Y-80304285D01*
X109774166Y-80366190D01*
X109650357Y-80428095D01*
X109464642Y-80428095D01*
X110269404Y-79561428D02*
X110764642Y-79561428D01*
X110455119Y-80428095D02*
X110455119Y-79313809D01*
X110517023Y-79190000D01*
X110640833Y-79128095D01*
X110764642Y-79128095D01*
X111693214Y-80366190D02*
X111569404Y-80428095D01*
X111321785Y-80428095D01*
X111197976Y-80366190D01*
X111136071Y-80242380D01*
X111136071Y-79747142D01*
X111197976Y-79623333D01*
X111321785Y-79561428D01*
X111569404Y-79561428D01*
X111693214Y-79623333D01*
X111755119Y-79747142D01*
X111755119Y-79870952D01*
X111136071Y-79994761D01*
X112312261Y-79561428D02*
X112312261Y-80428095D01*
X112312261Y-79685238D02*
X112374166Y-79623333D01*
X112497976Y-79561428D01*
X112683690Y-79561428D01*
X112807499Y-79623333D01*
X112869404Y-79747142D01*
X112869404Y-80428095D01*
X114045595Y-80366190D02*
X113921785Y-80428095D01*
X113674166Y-80428095D01*
X113550357Y-80366190D01*
X113488452Y-80304285D01*
X113426547Y-80180476D01*
X113426547Y-79809047D01*
X113488452Y-79685238D01*
X113550357Y-79623333D01*
X113674166Y-79561428D01*
X113921785Y-79561428D01*
X114045595Y-79623333D01*
X115097976Y-80366190D02*
X114974166Y-80428095D01*
X114726547Y-80428095D01*
X114602738Y-80366190D01*
X114540833Y-80242380D01*
X114540833Y-79747142D01*
X114602738Y-79623333D01*
X114726547Y-79561428D01*
X114974166Y-79561428D01*
X115097976Y-79623333D01*
X115159880Y-79747142D01*
X115159880Y-79870952D01*
X114540833Y-79994761D01*
D13*
X160655000Y-33020000D02*
X160655000Y-41910000D01*
X60960000Y-33020000D02*
X160655000Y-33020000D01*
X60960000Y-41910000D02*
X60960000Y-33020000D01*
X160655000Y-41910000D02*
X60960000Y-41910000D01*
X156210000Y-41910000D02*
X160655000Y-37465000D01*
X63500000Y-33020000D02*
X60960000Y-35560000D01*
X149860000Y-41910000D02*
X158750000Y-33020000D01*
X143510000Y-41910000D02*
X152400000Y-33020000D01*
X137160000Y-41910000D02*
X146050000Y-33020000D01*
X130810000Y-41910000D02*
X139700000Y-33020000D01*
X124460000Y-41910000D02*
X133350000Y-33020000D01*
X118110000Y-41910000D02*
X127000000Y-33020000D01*
X111760000Y-41910000D02*
X120650000Y-33020000D01*
X105410000Y-41910000D02*
X114300000Y-33020000D01*
X99060000Y-41910000D02*
X107950000Y-33020000D01*
X92710000Y-41910000D02*
X101600000Y-33020000D01*
X86360000Y-41910000D02*
X95250000Y-33020000D01*
X80010000Y-41910000D02*
X88900000Y-33020000D01*
X73660000Y-41910000D02*
X82550000Y-33020000D01*
X67310000Y-41910000D02*
X76200000Y-33020000D01*
X60960000Y-41910000D02*
X69850000Y-33020000D01*
D14*
G04 #@! TO.C,J3*
X116145000Y-75625000D02*
X116145000Y-74295000D01*
X117475000Y-75625000D02*
X116145000Y-75625000D01*
X116145000Y-73025000D02*
X116145000Y-70425000D01*
X118745000Y-73025000D02*
X116145000Y-73025000D01*
X118745000Y-75625000D02*
X118745000Y-73025000D01*
X116145000Y-70425000D02*
X121345000Y-70425000D01*
X118745000Y-75625000D02*
X121345000Y-75625000D01*
X121345000Y-75625000D02*
X121345000Y-70425000D01*
G04 #@! TO.C,C1*
X140755000Y-73140000D02*
X140755000Y-74140000D01*
X142455000Y-74140000D02*
X142455000Y-73140000D01*
G04 #@! TO.C,C4*
X127215000Y-74775000D02*
X127215000Y-73775000D01*
X125515000Y-73775000D02*
X125515000Y-74775000D01*
G04 #@! TO.C,C6*
X119245000Y-79160000D02*
X118245000Y-79160000D01*
X118245000Y-80860000D02*
X119245000Y-80860000D01*
G04 #@! TO.C,C8*
X119245000Y-76620000D02*
X118245000Y-76620000D01*
X118245000Y-78320000D02*
X119245000Y-78320000D01*
G04 #@! TO.C,C12*
X150280000Y-62365000D02*
X150280000Y-63365000D01*
X151980000Y-63365000D02*
X151980000Y-62365000D01*
G04 #@! TO.C,C15*
X158330000Y-44950000D02*
X158330000Y-43950000D01*
X156630000Y-43950000D02*
X156630000Y-44950000D01*
G04 #@! TO.C,C16*
X156710000Y-63920000D02*
X155710000Y-63920000D01*
X155710000Y-65620000D02*
X156710000Y-65620000D01*
G04 #@! TO.C,C17*
X145550000Y-65620000D02*
X146550000Y-65620000D01*
X146550000Y-63920000D02*
X145550000Y-63920000D01*
G04 #@! TO.C,D1*
X152090000Y-57910000D02*
X153020000Y-57910000D01*
X155250000Y-57910000D02*
X154320000Y-57910000D01*
X155250000Y-57910000D02*
X155250000Y-55750000D01*
X152090000Y-57910000D02*
X152090000Y-56450000D01*
G04 #@! TO.C,D2*
X147010000Y-57910000D02*
X147940000Y-57910000D01*
X150170000Y-57910000D02*
X149240000Y-57910000D01*
X150170000Y-57910000D02*
X150170000Y-55750000D01*
X147010000Y-57910000D02*
X147010000Y-56450000D01*
G04 #@! TO.C,J1*
X158810000Y-70425000D02*
X153610000Y-70425000D01*
X158810000Y-75565000D02*
X158810000Y-70425000D01*
X153610000Y-78165000D02*
X153610000Y-70425000D01*
X158810000Y-75565000D02*
X156210000Y-75565000D01*
X156210000Y-75565000D02*
X156210000Y-78165000D01*
X156210000Y-78165000D02*
X153610000Y-78165000D01*
X158810000Y-76835000D02*
X158810000Y-78165000D01*
X158810000Y-78165000D02*
X157480000Y-78165000D01*
G04 #@! TO.C,J2*
X68640000Y-80705000D02*
X68640000Y-78045000D01*
X66040000Y-80705000D02*
X68640000Y-80705000D01*
X66040000Y-78045000D02*
X68640000Y-78045000D01*
X66040000Y-80705000D02*
X66040000Y-78045000D01*
X64770000Y-80705000D02*
X63440000Y-80705000D01*
X63440000Y-80705000D02*
X63440000Y-79375000D01*
G04 #@! TO.C,J6*
X151825000Y-70425000D02*
X149165000Y-70425000D01*
X151825000Y-78105000D02*
X151825000Y-70425000D01*
X149165000Y-78105000D02*
X149165000Y-70425000D01*
X151825000Y-78105000D02*
X149165000Y-78105000D01*
X151825000Y-79375000D02*
X151825000Y-80705000D01*
X151825000Y-80705000D02*
X150495000Y-80705000D01*
G04 #@! TO.C,R5*
X153915000Y-43850000D02*
X153915000Y-45050000D01*
X152155000Y-45050000D02*
X152155000Y-43850000D01*
G04 #@! TO.C,R6*
X150105000Y-43850000D02*
X150105000Y-45050000D01*
X148345000Y-45050000D02*
X148345000Y-43850000D01*
G04 #@! TO.C,R7*
X142485000Y-62900000D02*
X142485000Y-64100000D01*
X140725000Y-64100000D02*
X140725000Y-62900000D01*
G04 #@! TO.C,R9*
X158995000Y-55915000D02*
X158995000Y-57115000D01*
X157235000Y-57115000D02*
X157235000Y-55915000D01*
G04 #@! TO.C,R10*
X145025000Y-55915000D02*
X145025000Y-57115000D01*
X143265000Y-57115000D02*
X143265000Y-55915000D01*
G04 #@! TO.C,R13*
X142910000Y-36585000D02*
X144110000Y-36585000D01*
X144110000Y-38345000D02*
X142910000Y-38345000D01*
G04 #@! TO.C,R14*
X155610000Y-60715000D02*
X156810000Y-60715000D01*
X156810000Y-62475000D02*
X155610000Y-62475000D01*
G04 #@! TO.C,R15*
X146650000Y-62475000D02*
X145450000Y-62475000D01*
X145450000Y-60715000D02*
X146650000Y-60715000D01*
D11*
G04 #@! TO.C,U4*
X153205000Y-54010000D02*
X153205000Y-53960000D01*
X149055000Y-54010000D02*
X149055000Y-53865000D01*
X149055000Y-48860000D02*
X149055000Y-49005000D01*
X153205000Y-48860000D02*
X153205000Y-49005000D01*
X153205000Y-54010000D02*
X149055000Y-54010000D01*
X153205000Y-48860000D02*
X149055000Y-48860000D01*
X153205000Y-53960000D02*
X154605000Y-53960000D01*
D14*
G04 #@! TO.C,Y1*
X122695521Y-77469458D02*
G75*
G03X122694912Y-80010000I1129479J-1270542D01*
G01*
X124954479Y-77469458D02*
G75*
G02X124955088Y-80010000I-1129479J-1270542D01*
G01*
D11*
G04 #@! TO.C,U1*
X130614000Y-72321000D02*
X130614000Y-72546000D01*
X137864000Y-72321000D02*
X137864000Y-72646000D01*
X137864000Y-79571000D02*
X137864000Y-79246000D01*
X130614000Y-79571000D02*
X130614000Y-79246000D01*
X130614000Y-72321000D02*
X130939000Y-72321000D01*
X130614000Y-79571000D02*
X130939000Y-79571000D01*
X137864000Y-79571000D02*
X137539000Y-79571000D01*
X137864000Y-72321000D02*
X137539000Y-72321000D01*
X130614000Y-72546000D02*
X129189000Y-72546000D01*
D14*
G04 #@! TO.C,R8*
X93535000Y-40025000D02*
X93535000Y-34905000D01*
X93535000Y-34905000D02*
X77915000Y-34905000D01*
X77915000Y-34905000D02*
X77915000Y-40025000D01*
X77915000Y-40025000D02*
X93535000Y-40025000D01*
X94505000Y-37465000D02*
X93535000Y-37465000D01*
X76945000Y-37465000D02*
X77915000Y-37465000D01*
G04 #@! TO.C,R11*
X117665000Y-40025000D02*
X117665000Y-34905000D01*
X117665000Y-34905000D02*
X102045000Y-34905000D01*
X102045000Y-34905000D02*
X102045000Y-40025000D01*
X102045000Y-40025000D02*
X117665000Y-40025000D01*
X118635000Y-37465000D02*
X117665000Y-37465000D01*
X101075000Y-37465000D02*
X102045000Y-37465000D01*
G04 #@! TO.C,R12*
X132115000Y-38775000D02*
X132115000Y-36155000D01*
X132115000Y-36155000D02*
X125695000Y-36155000D01*
X125695000Y-36155000D02*
X125695000Y-38775000D01*
X125695000Y-38775000D02*
X132115000Y-38775000D01*
X133005000Y-37465000D02*
X132115000Y-37465000D01*
X124805000Y-37465000D02*
X125695000Y-37465000D01*
D13*
G04 #@! TO.C,BT1*
X133965000Y-59055000D02*
X130965000Y-59055000D01*
X69465000Y-60555000D02*
X69465000Y-57555000D01*
X67965000Y-59055000D02*
X70965000Y-59055000D01*
D11*
X139465000Y-69555000D02*
X62465000Y-69555000D01*
X139465000Y-48555000D02*
X139465000Y-69555000D01*
X62465000Y-48555000D02*
X139465000Y-48555000D01*
X62465000Y-69555000D02*
X62465000Y-48555000D01*
D14*
G04 #@! TO.C,C5*
X68330000Y-75950000D02*
X68330000Y-74780000D01*
X68330000Y-71370000D02*
X68330000Y-72540000D01*
X63750000Y-72140000D02*
X63750000Y-72540000D01*
X63750000Y-75180000D02*
X63750000Y-74780000D01*
X64520000Y-75950000D02*
X68330000Y-75950000D01*
X64520000Y-75950000D02*
X63750000Y-75180000D01*
X64520000Y-71370000D02*
X68330000Y-71370000D01*
X64520000Y-71370000D02*
X63750000Y-72140000D01*
G04 #@! TO.C,C10*
X147705000Y-72640000D02*
X146535000Y-72640000D01*
X143125000Y-72640000D02*
X144295000Y-72640000D01*
X143895000Y-77220000D02*
X144295000Y-77220000D01*
X146935000Y-77220000D02*
X146535000Y-77220000D01*
X147705000Y-76450000D02*
X147705000Y-72640000D01*
X147705000Y-76450000D02*
X146935000Y-77220000D01*
X143125000Y-76450000D02*
X143125000Y-72640000D01*
X143125000Y-76450000D02*
X143895000Y-77220000D01*
G04 #@! TO.C,J3*
D11*
X114597380Y-73358333D02*
X115311666Y-73358333D01*
X115454523Y-73405952D01*
X115549761Y-73501190D01*
X115597380Y-73644047D01*
X115597380Y-73739285D01*
X114597380Y-72977380D02*
X114597380Y-72358333D01*
X114978333Y-72691666D01*
X114978333Y-72548809D01*
X115025952Y-72453571D01*
X115073571Y-72405952D01*
X115168809Y-72358333D01*
X115406904Y-72358333D01*
X115502142Y-72405952D01*
X115549761Y-72453571D01*
X115597380Y-72548809D01*
X115597380Y-72834523D01*
X115549761Y-72929761D01*
X115502142Y-72977380D01*
G04 #@! TO.C,C1*
X141962142Y-70016666D02*
X142009761Y-70064285D01*
X142057380Y-70207142D01*
X142057380Y-70302380D01*
X142009761Y-70445238D01*
X141914523Y-70540476D01*
X141819285Y-70588095D01*
X141628809Y-70635714D01*
X141485952Y-70635714D01*
X141295476Y-70588095D01*
X141200238Y-70540476D01*
X141105000Y-70445238D01*
X141057380Y-70302380D01*
X141057380Y-70207142D01*
X141105000Y-70064285D01*
X141152619Y-70016666D01*
X142057380Y-69064285D02*
X142057380Y-69635714D01*
X142057380Y-69350000D02*
X141057380Y-69350000D01*
X141200238Y-69445238D01*
X141295476Y-69540476D01*
X141343095Y-69635714D01*
G04 #@! TO.C,C4*
X128472142Y-74441666D02*
X128519761Y-74489285D01*
X128567380Y-74632142D01*
X128567380Y-74727380D01*
X128519761Y-74870238D01*
X128424523Y-74965476D01*
X128329285Y-75013095D01*
X128138809Y-75060714D01*
X127995952Y-75060714D01*
X127805476Y-75013095D01*
X127710238Y-74965476D01*
X127615000Y-74870238D01*
X127567380Y-74727380D01*
X127567380Y-74632142D01*
X127615000Y-74489285D01*
X127662619Y-74441666D01*
X127900714Y-73584523D02*
X128567380Y-73584523D01*
X127519761Y-73822619D02*
X128234047Y-74060714D01*
X128234047Y-73441666D01*
G04 #@! TO.C,C6*
X121753333Y-81637142D02*
X121705714Y-81684761D01*
X121562857Y-81732380D01*
X121467619Y-81732380D01*
X121324761Y-81684761D01*
X121229523Y-81589523D01*
X121181904Y-81494285D01*
X121134285Y-81303809D01*
X121134285Y-81160952D01*
X121181904Y-80970476D01*
X121229523Y-80875238D01*
X121324761Y-80780000D01*
X121467619Y-80732380D01*
X121562857Y-80732380D01*
X121705714Y-80780000D01*
X121753333Y-80827619D01*
X122610476Y-80732380D02*
X122420000Y-80732380D01*
X122324761Y-80780000D01*
X122277142Y-80827619D01*
X122181904Y-80970476D01*
X122134285Y-81160952D01*
X122134285Y-81541904D01*
X122181904Y-81637142D01*
X122229523Y-81684761D01*
X122324761Y-81732380D01*
X122515238Y-81732380D01*
X122610476Y-81684761D01*
X122658095Y-81637142D01*
X122705714Y-81541904D01*
X122705714Y-81303809D01*
X122658095Y-81208571D01*
X122610476Y-81160952D01*
X122515238Y-81113333D01*
X122324761Y-81113333D01*
X122229523Y-81160952D01*
X122181904Y-81208571D01*
X122134285Y-81303809D01*
G04 #@! TO.C,C8*
X121753333Y-76557142D02*
X121705714Y-76604761D01*
X121562857Y-76652380D01*
X121467619Y-76652380D01*
X121324761Y-76604761D01*
X121229523Y-76509523D01*
X121181904Y-76414285D01*
X121134285Y-76223809D01*
X121134285Y-76080952D01*
X121181904Y-75890476D01*
X121229523Y-75795238D01*
X121324761Y-75700000D01*
X121467619Y-75652380D01*
X121562857Y-75652380D01*
X121705714Y-75700000D01*
X121753333Y-75747619D01*
X122324761Y-76080952D02*
X122229523Y-76033333D01*
X122181904Y-75985714D01*
X122134285Y-75890476D01*
X122134285Y-75842857D01*
X122181904Y-75747619D01*
X122229523Y-75700000D01*
X122324761Y-75652380D01*
X122515238Y-75652380D01*
X122610476Y-75700000D01*
X122658095Y-75747619D01*
X122705714Y-75842857D01*
X122705714Y-75890476D01*
X122658095Y-75985714D01*
X122610476Y-76033333D01*
X122515238Y-76080952D01*
X122324761Y-76080952D01*
X122229523Y-76128571D01*
X122181904Y-76176190D01*
X122134285Y-76271428D01*
X122134285Y-76461904D01*
X122181904Y-76557142D01*
X122229523Y-76604761D01*
X122324761Y-76652380D01*
X122515238Y-76652380D01*
X122610476Y-76604761D01*
X122658095Y-76557142D01*
X122705714Y-76461904D01*
X122705714Y-76271428D01*
X122658095Y-76176190D01*
X122610476Y-76128571D01*
X122515238Y-76080952D01*
G04 #@! TO.C,C12*
X153392142Y-63507857D02*
X153439761Y-63555476D01*
X153487380Y-63698333D01*
X153487380Y-63793571D01*
X153439761Y-63936428D01*
X153344523Y-64031666D01*
X153249285Y-64079285D01*
X153058809Y-64126904D01*
X152915952Y-64126904D01*
X152725476Y-64079285D01*
X152630238Y-64031666D01*
X152535000Y-63936428D01*
X152487380Y-63793571D01*
X152487380Y-63698333D01*
X152535000Y-63555476D01*
X152582619Y-63507857D01*
X153487380Y-62555476D02*
X153487380Y-63126904D01*
X153487380Y-62841190D02*
X152487380Y-62841190D01*
X152630238Y-62936428D01*
X152725476Y-63031666D01*
X152773095Y-63126904D01*
X152582619Y-62174523D02*
X152535000Y-62126904D01*
X152487380Y-62031666D01*
X152487380Y-61793571D01*
X152535000Y-61698333D01*
X152582619Y-61650714D01*
X152677857Y-61603095D01*
X152773095Y-61603095D01*
X152915952Y-61650714D01*
X153487380Y-62222142D01*
X153487380Y-61603095D01*
G04 #@! TO.C,C15*
X156313142Y-45092857D02*
X156360761Y-45140476D01*
X156408380Y-45283333D01*
X156408380Y-45378571D01*
X156360761Y-45521428D01*
X156265523Y-45616666D01*
X156170285Y-45664285D01*
X155979809Y-45711904D01*
X155836952Y-45711904D01*
X155646476Y-45664285D01*
X155551238Y-45616666D01*
X155456000Y-45521428D01*
X155408380Y-45378571D01*
X155408380Y-45283333D01*
X155456000Y-45140476D01*
X155503619Y-45092857D01*
X156408380Y-44140476D02*
X156408380Y-44711904D01*
X156408380Y-44426190D02*
X155408380Y-44426190D01*
X155551238Y-44521428D01*
X155646476Y-44616666D01*
X155694095Y-44711904D01*
X155408380Y-43235714D02*
X155408380Y-43711904D01*
X155884571Y-43759523D01*
X155836952Y-43711904D01*
X155789333Y-43616666D01*
X155789333Y-43378571D01*
X155836952Y-43283333D01*
X155884571Y-43235714D01*
X155979809Y-43188095D01*
X156217904Y-43188095D01*
X156313142Y-43235714D01*
X156360761Y-43283333D01*
X156408380Y-43378571D01*
X156408380Y-43616666D01*
X156360761Y-43711904D01*
X156313142Y-43759523D01*
G04 #@! TO.C,C16*
X155567142Y-67032142D02*
X155519523Y-67079761D01*
X155376666Y-67127380D01*
X155281428Y-67127380D01*
X155138571Y-67079761D01*
X155043333Y-66984523D01*
X154995714Y-66889285D01*
X154948095Y-66698809D01*
X154948095Y-66555952D01*
X154995714Y-66365476D01*
X155043333Y-66270238D01*
X155138571Y-66175000D01*
X155281428Y-66127380D01*
X155376666Y-66127380D01*
X155519523Y-66175000D01*
X155567142Y-66222619D01*
X156519523Y-67127380D02*
X155948095Y-67127380D01*
X156233809Y-67127380D02*
X156233809Y-66127380D01*
X156138571Y-66270238D01*
X156043333Y-66365476D01*
X155948095Y-66413095D01*
X157376666Y-66127380D02*
X157186190Y-66127380D01*
X157090952Y-66175000D01*
X157043333Y-66222619D01*
X156948095Y-66365476D01*
X156900476Y-66555952D01*
X156900476Y-66936904D01*
X156948095Y-67032142D01*
X156995714Y-67079761D01*
X157090952Y-67127380D01*
X157281428Y-67127380D01*
X157376666Y-67079761D01*
X157424285Y-67032142D01*
X157471904Y-66936904D01*
X157471904Y-66698809D01*
X157424285Y-66603571D01*
X157376666Y-66555952D01*
X157281428Y-66508333D01*
X157090952Y-66508333D01*
X156995714Y-66555952D01*
X156948095Y-66603571D01*
X156900476Y-66698809D01*
G04 #@! TO.C,C17*
X145407142Y-66877142D02*
X145359523Y-66924761D01*
X145216666Y-66972380D01*
X145121428Y-66972380D01*
X144978571Y-66924761D01*
X144883333Y-66829523D01*
X144835714Y-66734285D01*
X144788095Y-66543809D01*
X144788095Y-66400952D01*
X144835714Y-66210476D01*
X144883333Y-66115238D01*
X144978571Y-66020000D01*
X145121428Y-65972380D01*
X145216666Y-65972380D01*
X145359523Y-66020000D01*
X145407142Y-66067619D01*
X146359523Y-66972380D02*
X145788095Y-66972380D01*
X146073809Y-66972380D02*
X146073809Y-65972380D01*
X145978571Y-66115238D01*
X145883333Y-66210476D01*
X145788095Y-66258095D01*
X146692857Y-65972380D02*
X147359523Y-65972380D01*
X146930952Y-66972380D01*
G04 #@! TO.C,D1*
X156622380Y-57634095D02*
X155622380Y-57634095D01*
X155622380Y-57396000D01*
X155670000Y-57253142D01*
X155765238Y-57157904D01*
X155860476Y-57110285D01*
X156050952Y-57062666D01*
X156193809Y-57062666D01*
X156384285Y-57110285D01*
X156479523Y-57157904D01*
X156574761Y-57253142D01*
X156622380Y-57396000D01*
X156622380Y-57634095D01*
X156622380Y-56110285D02*
X156622380Y-56681714D01*
X156622380Y-56396000D02*
X155622380Y-56396000D01*
X155765238Y-56491238D01*
X155860476Y-56586476D01*
X155908095Y-56681714D01*
G04 #@! TO.C,D2*
X146756380Y-57634095D02*
X145756380Y-57634095D01*
X145756380Y-57396000D01*
X145804000Y-57253142D01*
X145899238Y-57157904D01*
X145994476Y-57110285D01*
X146184952Y-57062666D01*
X146327809Y-57062666D01*
X146518285Y-57110285D01*
X146613523Y-57157904D01*
X146708761Y-57253142D01*
X146756380Y-57396000D01*
X146756380Y-57634095D01*
X145851619Y-56681714D02*
X145804000Y-56634095D01*
X145756380Y-56538857D01*
X145756380Y-56300761D01*
X145804000Y-56205523D01*
X145851619Y-56157904D01*
X145946857Y-56110285D01*
X146042095Y-56110285D01*
X146184952Y-56157904D01*
X146756380Y-56729333D01*
X146756380Y-56110285D01*
G04 #@! TO.C,J1*
X155876666Y-68667380D02*
X155876666Y-69381666D01*
X155829047Y-69524523D01*
X155733809Y-69619761D01*
X155590952Y-69667380D01*
X155495714Y-69667380D01*
X156876666Y-69667380D02*
X156305238Y-69667380D01*
X156590952Y-69667380D02*
X156590952Y-68667380D01*
X156495714Y-68810238D01*
X156400476Y-68905476D01*
X156305238Y-68953095D01*
G04 #@! TO.C,J2*
X61892380Y-79708333D02*
X62606666Y-79708333D01*
X62749523Y-79755952D01*
X62844761Y-79851190D01*
X62892380Y-79994047D01*
X62892380Y-80089285D01*
X61987619Y-79279761D02*
X61940000Y-79232142D01*
X61892380Y-79136904D01*
X61892380Y-78898809D01*
X61940000Y-78803571D01*
X61987619Y-78755952D01*
X62082857Y-78708333D01*
X62178095Y-78708333D01*
X62320952Y-78755952D01*
X62892380Y-79327380D01*
X62892380Y-78708333D01*
G04 #@! TO.C,J6*
X150161666Y-68667380D02*
X150161666Y-69381666D01*
X150114047Y-69524523D01*
X150018809Y-69619761D01*
X149875952Y-69667380D01*
X149780714Y-69667380D01*
X151066428Y-68667380D02*
X150875952Y-68667380D01*
X150780714Y-68715000D01*
X150733095Y-68762619D01*
X150637857Y-68905476D01*
X150590238Y-69095952D01*
X150590238Y-69476904D01*
X150637857Y-69572142D01*
X150685476Y-69619761D01*
X150780714Y-69667380D01*
X150971190Y-69667380D01*
X151066428Y-69619761D01*
X151114047Y-69572142D01*
X151161666Y-69476904D01*
X151161666Y-69238809D01*
X151114047Y-69143571D01*
X151066428Y-69095952D01*
X150971190Y-69048333D01*
X150780714Y-69048333D01*
X150685476Y-69095952D01*
X150637857Y-69143571D01*
X150590238Y-69238809D01*
G04 #@! TO.C,R5*
X151787380Y-44616666D02*
X151311190Y-44950000D01*
X151787380Y-45188095D02*
X150787380Y-45188095D01*
X150787380Y-44807142D01*
X150835000Y-44711904D01*
X150882619Y-44664285D01*
X150977857Y-44616666D01*
X151120714Y-44616666D01*
X151215952Y-44664285D01*
X151263571Y-44711904D01*
X151311190Y-44807142D01*
X151311190Y-45188095D01*
X150787380Y-43711904D02*
X150787380Y-44188095D01*
X151263571Y-44235714D01*
X151215952Y-44188095D01*
X151168333Y-44092857D01*
X151168333Y-43854761D01*
X151215952Y-43759523D01*
X151263571Y-43711904D01*
X151358809Y-43664285D01*
X151596904Y-43664285D01*
X151692142Y-43711904D01*
X151739761Y-43759523D01*
X151787380Y-43854761D01*
X151787380Y-44092857D01*
X151739761Y-44188095D01*
X151692142Y-44235714D01*
G04 #@! TO.C,R6*
X147977380Y-44616666D02*
X147501190Y-44950000D01*
X147977380Y-45188095D02*
X146977380Y-45188095D01*
X146977380Y-44807142D01*
X147025000Y-44711904D01*
X147072619Y-44664285D01*
X147167857Y-44616666D01*
X147310714Y-44616666D01*
X147405952Y-44664285D01*
X147453571Y-44711904D01*
X147501190Y-44807142D01*
X147501190Y-45188095D01*
X146977380Y-43759523D02*
X146977380Y-43950000D01*
X147025000Y-44045238D01*
X147072619Y-44092857D01*
X147215476Y-44188095D01*
X147405952Y-44235714D01*
X147786904Y-44235714D01*
X147882142Y-44188095D01*
X147929761Y-44140476D01*
X147977380Y-44045238D01*
X147977380Y-43854761D01*
X147929761Y-43759523D01*
X147882142Y-43711904D01*
X147786904Y-43664285D01*
X147548809Y-43664285D01*
X147453571Y-43711904D01*
X147405952Y-43759523D01*
X147358333Y-43854761D01*
X147358333Y-44045238D01*
X147405952Y-44140476D01*
X147453571Y-44188095D01*
X147548809Y-44235714D01*
G04 #@! TO.C,R7*
X140660380Y-63666666D02*
X140184190Y-64000000D01*
X140660380Y-64238095D02*
X139660380Y-64238095D01*
X139660380Y-63857142D01*
X139708000Y-63761904D01*
X139755619Y-63714285D01*
X139850857Y-63666666D01*
X139993714Y-63666666D01*
X140088952Y-63714285D01*
X140136571Y-63761904D01*
X140184190Y-63857142D01*
X140184190Y-64238095D01*
X139660380Y-63333333D02*
X139660380Y-62666666D01*
X140660380Y-63095238D01*
G04 #@! TO.C,R9*
X160091380Y-57062666D02*
X159615190Y-57396000D01*
X160091380Y-57634095D02*
X159091380Y-57634095D01*
X159091380Y-57253142D01*
X159139000Y-57157904D01*
X159186619Y-57110285D01*
X159281857Y-57062666D01*
X159424714Y-57062666D01*
X159519952Y-57110285D01*
X159567571Y-57157904D01*
X159615190Y-57253142D01*
X159615190Y-57634095D01*
X160091380Y-56586476D02*
X160091380Y-56396000D01*
X160043761Y-56300761D01*
X159996142Y-56253142D01*
X159853285Y-56157904D01*
X159662809Y-56110285D01*
X159281857Y-56110285D01*
X159186619Y-56157904D01*
X159139000Y-56205523D01*
X159091380Y-56300761D01*
X159091380Y-56491238D01*
X159139000Y-56586476D01*
X159186619Y-56634095D01*
X159281857Y-56681714D01*
X159519952Y-56681714D01*
X159615190Y-56634095D01*
X159662809Y-56586476D01*
X159710428Y-56491238D01*
X159710428Y-56300761D01*
X159662809Y-56205523D01*
X159615190Y-56157904D01*
X159519952Y-56110285D01*
G04 #@! TO.C,R10*
X142897380Y-57157857D02*
X142421190Y-57491190D01*
X142897380Y-57729285D02*
X141897380Y-57729285D01*
X141897380Y-57348333D01*
X141945000Y-57253095D01*
X141992619Y-57205476D01*
X142087857Y-57157857D01*
X142230714Y-57157857D01*
X142325952Y-57205476D01*
X142373571Y-57253095D01*
X142421190Y-57348333D01*
X142421190Y-57729285D01*
X142897380Y-56205476D02*
X142897380Y-56776904D01*
X142897380Y-56491190D02*
X141897380Y-56491190D01*
X142040238Y-56586428D01*
X142135476Y-56681666D01*
X142183095Y-56776904D01*
X141897380Y-55586428D02*
X141897380Y-55491190D01*
X141945000Y-55395952D01*
X141992619Y-55348333D01*
X142087857Y-55300714D01*
X142278333Y-55253095D01*
X142516428Y-55253095D01*
X142706904Y-55300714D01*
X142802142Y-55348333D01*
X142849761Y-55395952D01*
X142897380Y-55491190D01*
X142897380Y-55586428D01*
X142849761Y-55681666D01*
X142802142Y-55729285D01*
X142706904Y-55776904D01*
X142516428Y-55824523D01*
X142278333Y-55824523D01*
X142087857Y-55776904D01*
X141992619Y-55729285D01*
X141945000Y-55681666D01*
X141897380Y-55586428D01*
G04 #@! TO.C,R13*
X142867142Y-39617380D02*
X142533809Y-39141190D01*
X142295714Y-39617380D02*
X142295714Y-38617380D01*
X142676666Y-38617380D01*
X142771904Y-38665000D01*
X142819523Y-38712619D01*
X142867142Y-38807857D01*
X142867142Y-38950714D01*
X142819523Y-39045952D01*
X142771904Y-39093571D01*
X142676666Y-39141190D01*
X142295714Y-39141190D01*
X143819523Y-39617380D02*
X143248095Y-39617380D01*
X143533809Y-39617380D02*
X143533809Y-38617380D01*
X143438571Y-38760238D01*
X143343333Y-38855476D01*
X143248095Y-38903095D01*
X144152857Y-38617380D02*
X144771904Y-38617380D01*
X144438571Y-38998333D01*
X144581428Y-38998333D01*
X144676666Y-39045952D01*
X144724285Y-39093571D01*
X144771904Y-39188809D01*
X144771904Y-39426904D01*
X144724285Y-39522142D01*
X144676666Y-39569761D01*
X144581428Y-39617380D01*
X144295714Y-39617380D01*
X144200476Y-39569761D01*
X144152857Y-39522142D01*
G04 #@! TO.C,R14*
X155567142Y-60142380D02*
X155233809Y-59666190D01*
X154995714Y-60142380D02*
X154995714Y-59142380D01*
X155376666Y-59142380D01*
X155471904Y-59190000D01*
X155519523Y-59237619D01*
X155567142Y-59332857D01*
X155567142Y-59475714D01*
X155519523Y-59570952D01*
X155471904Y-59618571D01*
X155376666Y-59666190D01*
X154995714Y-59666190D01*
X156519523Y-60142380D02*
X155948095Y-60142380D01*
X156233809Y-60142380D02*
X156233809Y-59142380D01*
X156138571Y-59285238D01*
X156043333Y-59380476D01*
X155948095Y-59428095D01*
X157376666Y-59475714D02*
X157376666Y-60142380D01*
X157138571Y-59094761D02*
X156900476Y-59809047D01*
X157519523Y-59809047D01*
G04 #@! TO.C,R15*
X145407142Y-60347380D02*
X145073809Y-59871190D01*
X144835714Y-60347380D02*
X144835714Y-59347380D01*
X145216666Y-59347380D01*
X145311904Y-59395000D01*
X145359523Y-59442619D01*
X145407142Y-59537857D01*
X145407142Y-59680714D01*
X145359523Y-59775952D01*
X145311904Y-59823571D01*
X145216666Y-59871190D01*
X144835714Y-59871190D01*
X146359523Y-60347380D02*
X145788095Y-60347380D01*
X146073809Y-60347380D02*
X146073809Y-59347380D01*
X145978571Y-59490238D01*
X145883333Y-59585476D01*
X145788095Y-59633095D01*
X147264285Y-59347380D02*
X146788095Y-59347380D01*
X146740476Y-59823571D01*
X146788095Y-59775952D01*
X146883333Y-59728333D01*
X147121428Y-59728333D01*
X147216666Y-59775952D01*
X147264285Y-59823571D01*
X147311904Y-59918809D01*
X147311904Y-60156904D01*
X147264285Y-60252142D01*
X147216666Y-60299761D01*
X147121428Y-60347380D01*
X146883333Y-60347380D01*
X146788095Y-60299761D01*
X146740476Y-60252142D01*
G04 #@! TO.C,U4*
X150368095Y-47712380D02*
X150368095Y-48521904D01*
X150415714Y-48617142D01*
X150463333Y-48664761D01*
X150558571Y-48712380D01*
X150749047Y-48712380D01*
X150844285Y-48664761D01*
X150891904Y-48617142D01*
X150939523Y-48521904D01*
X150939523Y-47712380D01*
X151844285Y-48045714D02*
X151844285Y-48712380D01*
X151606190Y-47664761D02*
X151368095Y-48379047D01*
X151987142Y-48379047D01*
G04 #@! TO.C,Y1*
X121101190Y-79216190D02*
X121577380Y-79216190D01*
X120577380Y-79549523D02*
X121101190Y-79216190D01*
X120577380Y-78882857D01*
X121577380Y-78025714D02*
X121577380Y-78597142D01*
X121577380Y-78311428D02*
X120577380Y-78311428D01*
X120720238Y-78406666D01*
X120815476Y-78501904D01*
X120863095Y-78597142D01*
G04 #@! TO.C,U1*
X126873095Y-80097380D02*
X126873095Y-80906904D01*
X126920714Y-81002142D01*
X126968333Y-81049761D01*
X127063571Y-81097380D01*
X127254047Y-81097380D01*
X127349285Y-81049761D01*
X127396904Y-81002142D01*
X127444523Y-80906904D01*
X127444523Y-80097380D01*
X128444523Y-81097380D02*
X127873095Y-81097380D01*
X128158809Y-81097380D02*
X128158809Y-80097380D01*
X128063571Y-80240238D01*
X127968333Y-80335476D01*
X127873095Y-80383095D01*
G04 #@! TO.C,R8*
X85558333Y-41477380D02*
X85225000Y-41001190D01*
X84986904Y-41477380D02*
X84986904Y-40477380D01*
X85367857Y-40477380D01*
X85463095Y-40525000D01*
X85510714Y-40572619D01*
X85558333Y-40667857D01*
X85558333Y-40810714D01*
X85510714Y-40905952D01*
X85463095Y-40953571D01*
X85367857Y-41001190D01*
X84986904Y-41001190D01*
X86129761Y-40905952D02*
X86034523Y-40858333D01*
X85986904Y-40810714D01*
X85939285Y-40715476D01*
X85939285Y-40667857D01*
X85986904Y-40572619D01*
X86034523Y-40525000D01*
X86129761Y-40477380D01*
X86320238Y-40477380D01*
X86415476Y-40525000D01*
X86463095Y-40572619D01*
X86510714Y-40667857D01*
X86510714Y-40715476D01*
X86463095Y-40810714D01*
X86415476Y-40858333D01*
X86320238Y-40905952D01*
X86129761Y-40905952D01*
X86034523Y-40953571D01*
X85986904Y-41001190D01*
X85939285Y-41096428D01*
X85939285Y-41286904D01*
X85986904Y-41382142D01*
X86034523Y-41429761D01*
X86129761Y-41477380D01*
X86320238Y-41477380D01*
X86415476Y-41429761D01*
X86463095Y-41382142D01*
X86510714Y-41286904D01*
X86510714Y-41096428D01*
X86463095Y-41001190D01*
X86415476Y-40953571D01*
X86320238Y-40905952D01*
G04 #@! TO.C,R11*
X109212142Y-41477380D02*
X108878809Y-41001190D01*
X108640714Y-41477380D02*
X108640714Y-40477380D01*
X109021666Y-40477380D01*
X109116904Y-40525000D01*
X109164523Y-40572619D01*
X109212142Y-40667857D01*
X109212142Y-40810714D01*
X109164523Y-40905952D01*
X109116904Y-40953571D01*
X109021666Y-41001190D01*
X108640714Y-41001190D01*
X110164523Y-41477380D02*
X109593095Y-41477380D01*
X109878809Y-41477380D02*
X109878809Y-40477380D01*
X109783571Y-40620238D01*
X109688333Y-40715476D01*
X109593095Y-40763095D01*
X111116904Y-41477380D02*
X110545476Y-41477380D01*
X110831190Y-41477380D02*
X110831190Y-40477380D01*
X110735952Y-40620238D01*
X110640714Y-40715476D01*
X110545476Y-40763095D01*
G04 #@! TO.C,R12*
X128262142Y-40227380D02*
X127928809Y-39751190D01*
X127690714Y-40227380D02*
X127690714Y-39227380D01*
X128071666Y-39227380D01*
X128166904Y-39275000D01*
X128214523Y-39322619D01*
X128262142Y-39417857D01*
X128262142Y-39560714D01*
X128214523Y-39655952D01*
X128166904Y-39703571D01*
X128071666Y-39751190D01*
X127690714Y-39751190D01*
X129214523Y-40227380D02*
X128643095Y-40227380D01*
X128928809Y-40227380D02*
X128928809Y-39227380D01*
X128833571Y-39370238D01*
X128738333Y-39465476D01*
X128643095Y-39513095D01*
X129595476Y-39322619D02*
X129643095Y-39275000D01*
X129738333Y-39227380D01*
X129976428Y-39227380D01*
X130071666Y-39275000D01*
X130119285Y-39322619D01*
X130166904Y-39417857D01*
X130166904Y-39513095D01*
X130119285Y-39655952D01*
X129547857Y-40227380D01*
X130166904Y-40227380D01*
G04 #@! TO.C,BT1*
X100179285Y-57383571D02*
X100322142Y-57431190D01*
X100369761Y-57478809D01*
X100417380Y-57574047D01*
X100417380Y-57716904D01*
X100369761Y-57812142D01*
X100322142Y-57859761D01*
X100226904Y-57907380D01*
X99845952Y-57907380D01*
X99845952Y-56907380D01*
X100179285Y-56907380D01*
X100274523Y-56955000D01*
X100322142Y-57002619D01*
X100369761Y-57097857D01*
X100369761Y-57193095D01*
X100322142Y-57288333D01*
X100274523Y-57335952D01*
X100179285Y-57383571D01*
X99845952Y-57383571D01*
X100703095Y-56907380D02*
X101274523Y-56907380D01*
X100988809Y-57907380D02*
X100988809Y-56907380D01*
X102131666Y-57907380D02*
X101560238Y-57907380D01*
X101845952Y-57907380D02*
X101845952Y-56907380D01*
X101750714Y-57050238D01*
X101655476Y-57145476D01*
X101560238Y-57193095D01*
G04 #@! TO.C,C5*
X65873333Y-77192142D02*
X65825714Y-77239761D01*
X65682857Y-77287380D01*
X65587619Y-77287380D01*
X65444761Y-77239761D01*
X65349523Y-77144523D01*
X65301904Y-77049285D01*
X65254285Y-76858809D01*
X65254285Y-76715952D01*
X65301904Y-76525476D01*
X65349523Y-76430238D01*
X65444761Y-76335000D01*
X65587619Y-76287380D01*
X65682857Y-76287380D01*
X65825714Y-76335000D01*
X65873333Y-76382619D01*
X66778095Y-76287380D02*
X66301904Y-76287380D01*
X66254285Y-76763571D01*
X66301904Y-76715952D01*
X66397142Y-76668333D01*
X66635238Y-76668333D01*
X66730476Y-76715952D01*
X66778095Y-76763571D01*
X66825714Y-76858809D01*
X66825714Y-77096904D01*
X66778095Y-77192142D01*
X66730476Y-77239761D01*
X66635238Y-77287380D01*
X66397142Y-77287380D01*
X66301904Y-77239761D01*
X66254285Y-77192142D01*
X62889047Y-75741428D02*
X63650952Y-75741428D01*
X63270000Y-76122380D02*
X63270000Y-75360476D01*
G04 #@! TO.C,C10*
X145772142Y-70492857D02*
X145819761Y-70540476D01*
X145867380Y-70683333D01*
X145867380Y-70778571D01*
X145819761Y-70921428D01*
X145724523Y-71016666D01*
X145629285Y-71064285D01*
X145438809Y-71111904D01*
X145295952Y-71111904D01*
X145105476Y-71064285D01*
X145010238Y-71016666D01*
X144915000Y-70921428D01*
X144867380Y-70778571D01*
X144867380Y-70683333D01*
X144915000Y-70540476D01*
X144962619Y-70492857D01*
X145867380Y-69540476D02*
X145867380Y-70111904D01*
X145867380Y-69826190D02*
X144867380Y-69826190D01*
X145010238Y-69921428D01*
X145105476Y-70016666D01*
X145153095Y-70111904D01*
X144867380Y-68921428D02*
X144867380Y-68826190D01*
X144915000Y-68730952D01*
X144962619Y-68683333D01*
X145057857Y-68635714D01*
X145248333Y-68588095D01*
X145486428Y-68588095D01*
X145676904Y-68635714D01*
X145772142Y-68683333D01*
X145819761Y-68730952D01*
X145867380Y-68826190D01*
X145867380Y-68921428D01*
X145819761Y-69016666D01*
X145772142Y-69064285D01*
X145676904Y-69111904D01*
X145486428Y-69159523D01*
X145248333Y-69159523D01*
X145057857Y-69111904D01*
X144962619Y-69064285D01*
X144915000Y-69016666D01*
X144867380Y-68921428D01*
X147496428Y-78080952D02*
X147496428Y-77319047D01*
X147877380Y-77700000D02*
X147115476Y-77700000D01*
G04 #@! TD*
M02*
