G04 #@! TF.GenerationSoftware,KiCad,Pcbnew,(5.0.0)*
G04 #@! TF.CreationDate,2019-07-08T16:39:32+02:00*
G04 #@! TF.ProjectId,lofence,6C6F66656E63652E6B696361645F7063,rev?*
G04 #@! TF.SameCoordinates,Original*
G04 #@! TF.FileFunction,Soldermask,Top*
G04 #@! TF.FilePolarity,Negative*
%FSLAX46Y46*%
G04 Gerber Fmt 4.6, Leading zero omitted, Abs format (unit mm)*
G04 Created by KiCad (PCBNEW (5.0.0)) date 07/08/19 16:39:32*
%MOMM*%
%LPD*%
G01*
G04 APERTURE LIST*
%ADD10C,0.150000*%
%ADD11C,3.400000*%
%ADD12C,4.600000*%
%ADD13C,2.600000*%
%ADD14R,3.150000X1.400000*%
%ADD15R,1.900000X1.650000*%
%ADD16R,1.900000X1.700000*%
%ADD17R,1.700000X1.900000*%
%ADD18R,1.960000X1.050000*%
%ADD19R,1.650000X1.900000*%
%ADD20C,1.400000*%
%ADD21R,1.300000X1.200000*%
%ADD22R,1.416000X3.924000*%
%ADD23R,3.924000X1.416000*%
%ADD24R,2.000000X3.000000*%
%ADD25O,2.100000X2.100000*%
%ADD26R,2.100000X2.100000*%
%ADD27O,2.800000X2.800000*%
%ADD28C,2.800000*%
%ADD29O,2.000000X2.000000*%
%ADD30C,2.000000*%
%ADD31R,1.950000X1.000000*%
%ADD32R,0.950000X2.000000*%
%ADD33R,2.000000X0.950000*%
%ADD34C,3.100000*%
%ADD35R,3.900000X2.200000*%
%ADD36R,3.400000X3.400000*%
%ADD37R,1.900000X1.400000*%
%ADD38R,2.600000X1.900000*%
%ADD39R,2.000000X2.400000*%
%ADD40R,2.400000X2.000000*%
%ADD41R,1.850000X0.850000*%
G04 APERTURE END LIST*
D10*
G04 #@! TO.C,J7*
X75100000Y-59900000D02*
X75100000Y-64600000D01*
X72900000Y-59900000D02*
X72900000Y-64600000D01*
X75100000Y-61350000D02*
X72900000Y-61350000D01*
X72900000Y-63250000D02*
X75100000Y-63250000D01*
G04 #@! TD*
D11*
G04 #@! TO.C,BT1*
X109820000Y-126000000D03*
D12*
X101600000Y-110000000D03*
X46400000Y-126000000D03*
D13*
X37890000Y-118000000D03*
X110110000Y-118000000D03*
G04 #@! TD*
D14*
G04 #@! TO.C,SW1*
X106875000Y-90000000D03*
X101125000Y-90000000D03*
X101125000Y-94000000D03*
X106875000Y-94000000D03*
G04 #@! TD*
D15*
G04 #@! TO.C,C9*
X65250000Y-81000000D03*
X62750000Y-81000000D03*
G04 #@! TD*
G04 #@! TO.C,C1*
X55250000Y-87180000D03*
X52750000Y-87180000D03*
G04 #@! TD*
G04 #@! TO.C,C6*
X92750000Y-90000000D03*
X95250000Y-90000000D03*
G04 #@! TD*
G04 #@! TO.C,C11*
X62750000Y-75000000D03*
X65250000Y-75000000D03*
G04 #@! TD*
D16*
G04 #@! TO.C,R4*
X40713823Y-145441599D03*
X43413823Y-145441599D03*
G04 #@! TD*
D17*
G04 #@! TO.C,R6*
X70000000Y-89150000D03*
X70000000Y-91850000D03*
G04 #@! TD*
G04 #@! TO.C,R7*
X56000000Y-97650000D03*
X56000000Y-100350000D03*
G04 #@! TD*
D16*
G04 #@! TO.C,R9*
X95350000Y-94000000D03*
X92650000Y-94000000D03*
G04 #@! TD*
G04 #@! TO.C,R10*
X63350000Y-92180000D03*
X60650000Y-92180000D03*
G04 #@! TD*
G04 #@! TO.C,R13*
X92850000Y-56000000D03*
X90150000Y-56000000D03*
G04 #@! TD*
G04 #@! TO.C,R14*
X92850000Y-59000000D03*
X90150000Y-59000000D03*
G04 #@! TD*
G04 #@! TO.C,R15*
X92850000Y-62000000D03*
X90150000Y-62000000D03*
G04 #@! TD*
D18*
G04 #@! TO.C,U2*
X73350000Y-102950000D03*
X73350000Y-102000000D03*
X73350000Y-101050000D03*
X70650000Y-101050000D03*
X70650000Y-102950000D03*
G04 #@! TD*
D19*
G04 #@! TO.C,C2*
X77000000Y-103250000D03*
X77000000Y-100750000D03*
G04 #@! TD*
G04 #@! TO.C,C3*
X67000000Y-103250000D03*
X67000000Y-100750000D03*
G04 #@! TD*
D16*
G04 #@! TO.C,D4*
X97150000Y-53000000D03*
X99850000Y-53000000D03*
G04 #@! TD*
G04 #@! TO.C,D5*
X99850000Y-56000000D03*
X97150000Y-56000000D03*
G04 #@! TD*
G04 #@! TO.C,D6*
X97150000Y-59000000D03*
X99850000Y-59000000D03*
G04 #@! TD*
G04 #@! TO.C,R18*
X47350000Y-92180000D03*
X44650000Y-92180000D03*
G04 #@! TD*
D17*
G04 #@! TO.C,R19*
X41000000Y-86350000D03*
X41000000Y-83650000D03*
G04 #@! TD*
D16*
G04 #@! TO.C,R20*
X62650000Y-78000000D03*
X65350000Y-78000000D03*
G04 #@! TD*
D20*
G04 #@! TO.C,Y1*
X83000000Y-75600000D03*
X83000000Y-77500000D03*
G04 #@! TD*
D19*
G04 #@! TO.C,C7*
X41000000Y-89930000D03*
X41000000Y-92430000D03*
G04 #@! TD*
D15*
G04 #@! TO.C,C8*
X56750000Y-75000000D03*
X59250000Y-75000000D03*
G04 #@! TD*
D19*
G04 #@! TO.C,C10*
X83000000Y-84250000D03*
X83000000Y-81750000D03*
G04 #@! TD*
D16*
G04 #@! TO.C,D3*
X99850000Y-50000000D03*
X97150000Y-50000000D03*
G04 #@! TD*
D21*
G04 #@! TO.C,D8*
X45000000Y-85180000D03*
X47000000Y-84230000D03*
X47000000Y-86130000D03*
G04 #@! TD*
D16*
G04 #@! TO.C,R8*
X90150000Y-50000000D03*
X92850000Y-50000000D03*
G04 #@! TD*
G04 #@! TO.C,R11*
X92850000Y-53000000D03*
X90150000Y-53000000D03*
G04 #@! TD*
D22*
G04 #@! TO.C,U4*
X38935000Y-70890000D03*
X45285000Y-70890000D03*
X46555000Y-70890000D03*
X47825000Y-70890000D03*
X51635000Y-70890000D03*
X52905000Y-70890000D03*
X63065000Y-70890000D03*
D23*
X65335000Y-64810000D03*
X65335000Y-63540000D03*
X65335000Y-62270000D03*
X65335000Y-61000000D03*
X65335000Y-58460000D03*
X65335000Y-57190000D03*
D22*
X63065000Y-51110000D03*
X57985000Y-51110000D03*
X56715000Y-51110000D03*
X55445000Y-51110000D03*
X46555000Y-51110000D03*
X38935000Y-51110000D03*
G04 #@! TD*
D24*
G04 #@! TO.C,C4*
X62000000Y-100200000D03*
X62000000Y-103800000D03*
G04 #@! TD*
D15*
G04 #@! TO.C,C5*
X60750000Y-95500000D03*
X63250000Y-95500000D03*
G04 #@! TD*
D21*
G04 #@! TO.C,D2*
X63000000Y-85180000D03*
X61000000Y-86130000D03*
X61000000Y-84230000D03*
G04 #@! TD*
D16*
G04 #@! TO.C,D7*
X97150000Y-62000000D03*
X99850000Y-62000000D03*
G04 #@! TD*
D25*
G04 #@! TO.C,J3*
X94540000Y-82180000D03*
X92000000Y-82180000D03*
X94540000Y-79640000D03*
X92000000Y-79640000D03*
X94540000Y-77100000D03*
D26*
X92000000Y-77100000D03*
G04 #@! TD*
G04 #@! TO.C,J4*
X107000000Y-76000000D03*
D25*
X107000000Y-78540000D03*
X107000000Y-81080000D03*
X107000000Y-83620000D03*
G04 #@! TD*
G04 #@! TO.C,J5*
X92420000Y-67000000D03*
X94960000Y-67000000D03*
D26*
X97500000Y-67000000D03*
G04 #@! TD*
D25*
G04 #@! TO.C,J6*
X101000000Y-83620000D03*
X101000000Y-81080000D03*
X101000000Y-78540000D03*
D26*
X101000000Y-76000000D03*
G04 #@! TD*
D27*
G04 #@! TO.C,R1*
X106383823Y-145441599D03*
D28*
X86063823Y-145441599D03*
G04 #@! TD*
G04 #@! TO.C,R2*
X61063823Y-145441599D03*
D27*
X81383823Y-145441599D03*
G04 #@! TD*
D29*
G04 #@! TO.C,R3*
X57223823Y-145441599D03*
D30*
X47063823Y-145441599D03*
G04 #@! TD*
D16*
G04 #@! TO.C,R12*
X60650000Y-89180000D03*
X63350000Y-89180000D03*
G04 #@! TD*
G04 #@! TO.C,R16*
X44650000Y-89180000D03*
X47350000Y-89180000D03*
G04 #@! TD*
D17*
G04 #@! TO.C,R17*
X52000000Y-100350000D03*
X52000000Y-97650000D03*
G04 #@! TD*
D31*
G04 #@! TO.C,U1*
X56700000Y-90275000D03*
X56700000Y-91545000D03*
X56700000Y-92815000D03*
X56700000Y-94085000D03*
X51300000Y-94085000D03*
X51300000Y-92815000D03*
X51300000Y-91545000D03*
X51300000Y-90275000D03*
G04 #@! TD*
D32*
G04 #@! TO.C,U3*
X76800000Y-83250000D03*
X76000000Y-83250000D03*
X75200000Y-83250000D03*
X74400000Y-83250000D03*
X73600000Y-83250000D03*
X72800000Y-83250000D03*
X72000000Y-83250000D03*
X71200000Y-83250000D03*
D33*
X69750000Y-81800000D03*
X69750000Y-81000000D03*
X69750000Y-80200000D03*
X69750000Y-79400000D03*
X69750000Y-78600000D03*
X69750000Y-77800000D03*
X69750000Y-77000000D03*
X69750000Y-76200000D03*
D32*
X71200000Y-74750000D03*
X72000000Y-74750000D03*
X72800000Y-74750000D03*
X73600000Y-74750000D03*
X74400000Y-74750000D03*
X75200000Y-74750000D03*
X76000000Y-74750000D03*
X76800000Y-74750000D03*
D33*
X78250000Y-76200000D03*
X78250000Y-77000000D03*
X78250000Y-77800000D03*
X78250000Y-78600000D03*
X78250000Y-79400000D03*
X78250000Y-80200000D03*
X78250000Y-81000000D03*
X78250000Y-81800000D03*
G04 #@! TD*
D34*
G04 #@! TO.C,MH1*
X103000000Y-163000000D03*
G04 #@! TD*
G04 #@! TO.C,MH2*
X103000000Y-102000000D03*
G04 #@! TD*
G04 #@! TO.C,MH3*
X103000000Y-41250000D03*
G04 #@! TD*
G04 #@! TO.C,MH4*
X45000000Y-41250000D03*
G04 #@! TD*
G04 #@! TO.C,MH5*
X45000000Y-102000000D03*
G04 #@! TD*
G04 #@! TO.C,MH6*
X45000000Y-163000000D03*
G04 #@! TD*
D35*
G04 #@! TO.C,D1*
X95000000Y-102000000D03*
X90000000Y-102000000D03*
G04 #@! TD*
D36*
G04 #@! TO.C,J1*
X93000000Y-163000000D03*
G04 #@! TD*
G04 #@! TO.C,J2*
X55000000Y-163000000D03*
G04 #@! TD*
D17*
G04 #@! TO.C,R5*
X66500000Y-91850000D03*
X66500000Y-89150000D03*
G04 #@! TD*
D37*
G04 #@! TO.C,J7*
X72250000Y-62300000D03*
D38*
X74050000Y-64000000D03*
X74050000Y-60600000D03*
G04 #@! TD*
D19*
G04 #@! TO.C,C12*
X85000000Y-94250000D03*
X85000000Y-91750000D03*
G04 #@! TD*
D39*
G04 #@! TO.C,C13*
X74000000Y-93000000D03*
X74000000Y-97000000D03*
G04 #@! TD*
D40*
G04 #@! TO.C,C14*
X77500000Y-97500000D03*
X81500000Y-97500000D03*
G04 #@! TD*
D25*
G04 #@! TO.C,J8*
X85500000Y-104580000D03*
X85500000Y-102040000D03*
D26*
X85500000Y-99500000D03*
G04 #@! TD*
D16*
G04 #@! TO.C,R21*
X73650000Y-89500000D03*
X76350000Y-89500000D03*
G04 #@! TD*
D41*
G04 #@! TO.C,U5*
X81700000Y-92025000D03*
X81700000Y-92675000D03*
X81700000Y-93325000D03*
X81700000Y-93975000D03*
X77300000Y-93975000D03*
X77300000Y-93325000D03*
X77300000Y-92675000D03*
X77300000Y-92025000D03*
G04 #@! TD*
M02*
