M48
;DRILL file {KiCad (5.0.0)} date 07/08/19 16:39:28
;FORMAT={-:-/ absolute / metric / decimal}
FMAT,2
METRIC,TZ
T1C0.400
T2C0.500
T3C0.800
T4C1.000
T5C1.200
T6C1.320
T7C2.390
T8C2.700
T9C3.550
%
G90
G05
M71
T1
X39.Y-47.
X39.Y-75.
X43.Y-87.
X45.Y-76.
X45.Y-95.5
X46.Y-81.
X46.5Y-47.
X46.975Y-76.
X51.5Y-75.5
X54.Y-102.95
X57.Y-47.
X58.Y-86.
X61.Y-73.
X63.Y-48.
X65.987Y-86.013
X66.5Y-95.5
X66.987Y-87.013
X67.Y-73.
X68.Y-73.
X69.Y-60.
X69.Y-65.
X70.Y-97.
X70.Y-109.5
X71.Y-60.
X71.Y-65.
X73.Y-58.5
X73.Y-66.
X73.Y-78.
X74.Y-79.
X75.Y-58.5
X75.Y-66.
X75.Y-80.
X76.Y-77.
X77.Y-59.5
X77.Y-61.25
X77.Y-63.25
X77.Y-65.
X80.Y-84.
X80.Y-87.
X80.Y-88.
X80.Y-100.5
X80.Y-109.5
X84.987Y-73.5
X87.Y-59.
X87.Y-62.
X88.899Y-93.101
X89.Y-85.5
X98.Y-72.5
X104.Y-92.
T2
X83.Y-75.6
X83.Y-77.5
T3
X47.064Y-145.442
X57.224Y-145.442
T4
X92.Y-77.1
X92.Y-79.64
X92.Y-82.18
X94.54Y-77.1
X94.54Y-79.64
X94.54Y-82.18
X92.42Y-67.
X94.96Y-67.
X97.5Y-67.
X107.Y-76.
X107.Y-78.54
X107.Y-81.08
X107.Y-83.62
X85.5Y-99.5
X85.5Y-102.04
X85.5Y-104.58
X101.Y-76.
X101.Y-78.54
X101.Y-81.08
X101.Y-83.62
T5
X86.064Y-145.442
X106.384Y-145.442
X61.064Y-145.442
X81.384Y-145.442
T6
X37.89Y-118.
X110.11Y-118.
T7
X109.82Y-126.
T8
X103.Y-41.25
X103.Y-102.
X45.Y-102.
X103.Y-163.
X45.Y-41.25
X45.Y-163.
T9
X46.4Y-126.
X101.6Y-110.
T0
M30
