G04 #@! TF.GenerationSoftware,KiCad,Pcbnew,(5.0.0)*
G04 #@! TF.CreationDate,2019-07-08T16:39:32+02:00*
G04 #@! TF.ProjectId,lofence,6C6F66656E63652E6B696361645F7063,rev?*
G04 #@! TF.SameCoordinates,Original*
G04 #@! TF.FileFunction,Legend,Top*
G04 #@! TF.FilePolarity,Positive*
%FSLAX46Y46*%
G04 Gerber Fmt 4.6, Leading zero omitted, Abs format (unit mm)*
G04 Created by KiCad (PCBNEW (5.0.0)) date 07/08/19 16:39:32*
%MOMM*%
%LPD*%
G01*
G04 APERTURE LIST*
%ADD10C,0.300000*%
%ADD11C,0.200000*%
%ADD12C,0.150000*%
%ADD13C,0.250000*%
%ADD14C,0.500000*%
%ADD15C,0.120000*%
G04 APERTURE END LIST*
D10*
X92035714Y-87678571D02*
X92035714Y-86178571D01*
X92678571Y-87607142D02*
X92892857Y-87678571D01*
X93250000Y-87678571D01*
X93392857Y-87607142D01*
X93464285Y-87535714D01*
X93535714Y-87392857D01*
X93535714Y-87250000D01*
X93464285Y-87107142D01*
X93392857Y-87035714D01*
X93250000Y-86964285D01*
X92964285Y-86892857D01*
X92821428Y-86821428D01*
X92750000Y-86750000D01*
X92678571Y-86607142D01*
X92678571Y-86464285D01*
X92750000Y-86321428D01*
X92821428Y-86250000D01*
X92964285Y-86178571D01*
X93321428Y-86178571D01*
X93535714Y-86250000D01*
X94178571Y-87678571D02*
X94178571Y-86178571D01*
X94750000Y-86178571D01*
X94892857Y-86250000D01*
X94964285Y-86321428D01*
X95035714Y-86464285D01*
X95035714Y-86678571D01*
X94964285Y-86821428D01*
X94892857Y-86892857D01*
X94750000Y-86964285D01*
X94178571Y-86964285D01*
X106678571Y-87678571D02*
X106178571Y-86964285D01*
X105821428Y-87678571D02*
X105821428Y-86178571D01*
X106392857Y-86178571D01*
X106535714Y-86250000D01*
X106607142Y-86321428D01*
X106678571Y-86464285D01*
X106678571Y-86678571D01*
X106607142Y-86821428D01*
X106535714Y-86892857D01*
X106392857Y-86964285D01*
X105821428Y-86964285D01*
X107321428Y-87678571D02*
X107321428Y-86178571D01*
X108178571Y-87678571D01*
X108178571Y-86178571D01*
X98964285Y-87678571D02*
X98964285Y-86178571D01*
X99464285Y-87250000D01*
X99964285Y-86178571D01*
X99964285Y-87678571D01*
X101535714Y-87535714D02*
X101464285Y-87607142D01*
X101250000Y-87678571D01*
X101107142Y-87678571D01*
X100892857Y-87607142D01*
X100750000Y-87464285D01*
X100678571Y-87321428D01*
X100607142Y-87035714D01*
X100607142Y-86821428D01*
X100678571Y-86535714D01*
X100750000Y-86392857D01*
X100892857Y-86250000D01*
X101107142Y-86178571D01*
X101250000Y-86178571D01*
X101464285Y-86250000D01*
X101535714Y-86321428D01*
X102178571Y-86178571D02*
X102178571Y-87392857D01*
X102250000Y-87535714D01*
X102321428Y-87607142D01*
X102464285Y-87678571D01*
X102750000Y-87678571D01*
X102892857Y-87607142D01*
X102964285Y-87535714D01*
X103035714Y-87392857D01*
X103035714Y-86178571D01*
D11*
X84500000Y-72500000D02*
X84500000Y-65000000D01*
X89500000Y-72500000D02*
X84500000Y-72500000D01*
X89500000Y-65000000D02*
X89500000Y-72500000D01*
X84500000Y-65000000D02*
X89500000Y-65000000D01*
X35000000Y-132000000D02*
X38000000Y-129000000D01*
X35000000Y-137000000D02*
X43000000Y-129000000D01*
X109000000Y-143000000D02*
X113000000Y-139000000D01*
X104000000Y-143000000D02*
X112000000Y-135000000D01*
X99000000Y-143000000D02*
X107000000Y-135000000D01*
X94000000Y-143000000D02*
X102000000Y-135000000D01*
X89000000Y-143000000D02*
X97000000Y-135000000D01*
X84000000Y-143000000D02*
X92000000Y-135000000D01*
X79000000Y-143000000D02*
X87000000Y-135000000D01*
X79000000Y-138000000D02*
X82000000Y-135000000D01*
X75000000Y-137000000D02*
X79000000Y-133000000D01*
X70000000Y-137000000D02*
X78000000Y-129000000D01*
X65000000Y-137000000D02*
X73000000Y-129000000D01*
X60000000Y-137000000D02*
X68000000Y-129000000D01*
X55000000Y-137000000D02*
X63000000Y-129000000D01*
X50000000Y-137000000D02*
X58000000Y-129000000D01*
X45000000Y-137000000D02*
X53000000Y-129000000D01*
X40000000Y-137000000D02*
X48000000Y-129000000D01*
X35000000Y-167000000D02*
X35000000Y-129000000D01*
X113000000Y-129000000D02*
X113000000Y-167000000D01*
X35000000Y-129000000D02*
X113000000Y-129000000D01*
X79000000Y-135000000D02*
X79000000Y-129000000D01*
X109000000Y-143000000D02*
X89000000Y-163000000D01*
X104000000Y-143000000D02*
X89000000Y-158000000D01*
X99000000Y-143000000D02*
X85000000Y-157000000D01*
X94000000Y-143000000D02*
X80000000Y-157000000D01*
X89000000Y-143000000D02*
X75000000Y-157000000D01*
X84000000Y-143000000D02*
X70000000Y-157000000D01*
X79000000Y-143000000D02*
X65000000Y-157000000D01*
X79000000Y-138000000D02*
X60000000Y-157000000D01*
X113000000Y-135000000D02*
X79000000Y-135000000D01*
X110000000Y-167000000D02*
X113000000Y-164000000D01*
X100000000Y-167000000D02*
X113000000Y-154000000D01*
X90000000Y-167000000D02*
X113000000Y-144000000D01*
X50000000Y-167000000D02*
X59000000Y-158000000D01*
X70000000Y-137000000D02*
X40000000Y-167000000D01*
X60000000Y-137000000D02*
X35000000Y-162000000D01*
X50000000Y-137000000D02*
X35000000Y-152000000D01*
X40000000Y-137000000D02*
X35000000Y-142000000D01*
X55000000Y-167000000D02*
X59000000Y-163000000D01*
X105000000Y-167000000D02*
X113000000Y-159000000D01*
X95000000Y-167000000D02*
X113000000Y-149000000D01*
X75000000Y-137000000D02*
X45000000Y-167000000D01*
X65000000Y-137000000D02*
X35000000Y-167000000D01*
X55000000Y-137000000D02*
X35000000Y-157000000D01*
X45000000Y-137000000D02*
X35000000Y-147000000D01*
X59000000Y-167000000D02*
X35000000Y-167000000D01*
X59000000Y-157000000D02*
X59000000Y-167000000D01*
X89000000Y-157000000D02*
X59000000Y-157000000D01*
X89000000Y-167000000D02*
X89000000Y-157000000D01*
X113000000Y-167000000D02*
X89000000Y-167000000D01*
X107000000Y-68500000D02*
X107000000Y-65500000D01*
X102500000Y-68500000D02*
X102500000Y-65500000D01*
X111500000Y-68500000D02*
X102500000Y-68500000D01*
X111500000Y-65500000D02*
X111500000Y-68500000D01*
X102500000Y-65500000D02*
X111500000Y-65500000D01*
D10*
X104000000Y-66178571D02*
X104285714Y-66178571D01*
X104428571Y-66250000D01*
X104571428Y-66392857D01*
X104642857Y-66678571D01*
X104642857Y-67178571D01*
X104571428Y-67464285D01*
X104428571Y-67607142D01*
X104285714Y-67678571D01*
X104000000Y-67678571D01*
X103857142Y-67607142D01*
X103714285Y-67464285D01*
X103642857Y-67178571D01*
X103642857Y-66678571D01*
X103714285Y-66392857D01*
X103857142Y-66250000D01*
X104000000Y-66178571D01*
X105071428Y-66678571D02*
X105642857Y-66678571D01*
X105285714Y-67678571D02*
X105285714Y-66392857D01*
X105357142Y-66250000D01*
X105500000Y-66178571D01*
X105642857Y-66178571D01*
X105928571Y-66678571D02*
X106500000Y-66678571D01*
X106142857Y-67678571D02*
X106142857Y-66392857D01*
X106214285Y-66250000D01*
X106357142Y-66178571D01*
X106500000Y-66178571D01*
X108178571Y-66178571D02*
X108464285Y-66178571D01*
X108607142Y-66250000D01*
X108750000Y-66392857D01*
X108821428Y-66678571D01*
X108821428Y-67178571D01*
X108750000Y-67464285D01*
X108607142Y-67607142D01*
X108464285Y-67678571D01*
X108178571Y-67678571D01*
X108035714Y-67607142D01*
X107892857Y-67464285D01*
X107821428Y-67178571D01*
X107821428Y-66678571D01*
X107892857Y-66392857D01*
X108035714Y-66250000D01*
X108178571Y-66178571D01*
X109464285Y-66678571D02*
X109464285Y-67678571D01*
X109464285Y-66821428D02*
X109535714Y-66750000D01*
X109678571Y-66678571D01*
X109892857Y-66678571D01*
X110035714Y-66750000D01*
X110107142Y-66892857D01*
X110107142Y-67678571D01*
X102337857Y-61178571D02*
X103195000Y-61178571D01*
X102766428Y-62678571D02*
X102766428Y-61178571D01*
X103695000Y-62678571D02*
X103695000Y-61678571D01*
X103695000Y-61964285D02*
X103766428Y-61821428D01*
X103837857Y-61750000D01*
X103980714Y-61678571D01*
X104123571Y-61678571D01*
X105266428Y-62678571D02*
X105266428Y-61892857D01*
X105195000Y-61750000D01*
X105052142Y-61678571D01*
X104766428Y-61678571D01*
X104623571Y-61750000D01*
X105266428Y-62607142D02*
X105123571Y-62678571D01*
X104766428Y-62678571D01*
X104623571Y-62607142D01*
X104552142Y-62464285D01*
X104552142Y-62321428D01*
X104623571Y-62178571D01*
X104766428Y-62107142D01*
X105123571Y-62107142D01*
X105266428Y-62035714D01*
X105980714Y-61678571D02*
X105980714Y-62678571D01*
X105980714Y-61821428D02*
X106052142Y-61750000D01*
X106195000Y-61678571D01*
X106409285Y-61678571D01*
X106552142Y-61750000D01*
X106623571Y-61892857D01*
X106623571Y-62678571D01*
X107266428Y-62607142D02*
X107409285Y-62678571D01*
X107695000Y-62678571D01*
X107837857Y-62607142D01*
X107909285Y-62464285D01*
X107909285Y-62392857D01*
X107837857Y-62250000D01*
X107695000Y-62178571D01*
X107480714Y-62178571D01*
X107337857Y-62107142D01*
X107266428Y-61964285D01*
X107266428Y-61892857D01*
X107337857Y-61750000D01*
X107480714Y-61678571D01*
X107695000Y-61678571D01*
X107837857Y-61750000D01*
X108552142Y-62678571D02*
X108552142Y-61678571D01*
X108552142Y-61821428D02*
X108623571Y-61750000D01*
X108766428Y-61678571D01*
X108980714Y-61678571D01*
X109123571Y-61750000D01*
X109195000Y-61892857D01*
X109195000Y-62678571D01*
X109195000Y-61892857D02*
X109266428Y-61750000D01*
X109409285Y-61678571D01*
X109623571Y-61678571D01*
X109766428Y-61750000D01*
X109837857Y-61892857D01*
X109837857Y-62678571D01*
X110552142Y-62678571D02*
X110552142Y-61678571D01*
X110552142Y-61178571D02*
X110480714Y-61250000D01*
X110552142Y-61321428D01*
X110623571Y-61250000D01*
X110552142Y-61178571D01*
X110552142Y-61321428D01*
X111052142Y-61678571D02*
X111623571Y-61678571D01*
X111266428Y-61178571D02*
X111266428Y-62464285D01*
X111337857Y-62607142D01*
X111480714Y-62678571D01*
X111623571Y-62678571D01*
X102552142Y-59678571D02*
X102552142Y-58178571D01*
X103052142Y-59250000D01*
X103552142Y-58178571D01*
X103552142Y-59678571D01*
X104837857Y-59607142D02*
X104695000Y-59678571D01*
X104409285Y-59678571D01*
X104266428Y-59607142D01*
X104195000Y-59464285D01*
X104195000Y-58892857D01*
X104266428Y-58750000D01*
X104409285Y-58678571D01*
X104695000Y-58678571D01*
X104837857Y-58750000D01*
X104909285Y-58892857D01*
X104909285Y-59035714D01*
X104195000Y-59178571D01*
X106195000Y-59678571D02*
X106195000Y-58892857D01*
X106123571Y-58750000D01*
X105980714Y-58678571D01*
X105695000Y-58678571D01*
X105552142Y-58750000D01*
X106195000Y-59607142D02*
X106052142Y-59678571D01*
X105695000Y-59678571D01*
X105552142Y-59607142D01*
X105480714Y-59464285D01*
X105480714Y-59321428D01*
X105552142Y-59178571D01*
X105695000Y-59107142D01*
X106052142Y-59107142D01*
X106195000Y-59035714D01*
X106837857Y-59607142D02*
X106980714Y-59678571D01*
X107266428Y-59678571D01*
X107409285Y-59607142D01*
X107480714Y-59464285D01*
X107480714Y-59392857D01*
X107409285Y-59250000D01*
X107266428Y-59178571D01*
X107052142Y-59178571D01*
X106909285Y-59107142D01*
X106837857Y-58964285D01*
X106837857Y-58892857D01*
X106909285Y-58750000D01*
X107052142Y-58678571D01*
X107266428Y-58678571D01*
X107409285Y-58750000D01*
X108766428Y-58678571D02*
X108766428Y-59678571D01*
X108123571Y-58678571D02*
X108123571Y-59464285D01*
X108195000Y-59607142D01*
X108337857Y-59678571D01*
X108552142Y-59678571D01*
X108695000Y-59607142D01*
X108766428Y-59535714D01*
X109480714Y-59678571D02*
X109480714Y-58678571D01*
X109480714Y-58964285D02*
X109552142Y-58821428D01*
X109623571Y-58750000D01*
X109766428Y-58678571D01*
X109909285Y-58678571D01*
X110980714Y-59607142D02*
X110837857Y-59678571D01*
X110552142Y-59678571D01*
X110409285Y-59607142D01*
X110337857Y-59464285D01*
X110337857Y-58892857D01*
X110409285Y-58750000D01*
X110552142Y-58678571D01*
X110837857Y-58678571D01*
X110980714Y-58750000D01*
X111052142Y-58892857D01*
X111052142Y-59035714D01*
X110337857Y-59178571D01*
X102552142Y-56678571D02*
X102552142Y-55178571D01*
X103909285Y-56678571D02*
X103909285Y-55178571D01*
X103909285Y-56607142D02*
X103766428Y-56678571D01*
X103480714Y-56678571D01*
X103337857Y-56607142D01*
X103266428Y-56535714D01*
X103195000Y-56392857D01*
X103195000Y-55964285D01*
X103266428Y-55821428D01*
X103337857Y-55750000D01*
X103480714Y-55678571D01*
X103766428Y-55678571D01*
X103909285Y-55750000D01*
X104837857Y-56678571D02*
X104695000Y-56607142D01*
X104623571Y-56464285D01*
X104623571Y-55178571D01*
X105980714Y-56607142D02*
X105837857Y-56678571D01*
X105552142Y-56678571D01*
X105409285Y-56607142D01*
X105337857Y-56464285D01*
X105337857Y-55892857D01*
X105409285Y-55750000D01*
X105552142Y-55678571D01*
X105837857Y-55678571D01*
X105980714Y-55750000D01*
X106052142Y-55892857D01*
X106052142Y-56035714D01*
X105337857Y-56178571D01*
X103409285Y-53535714D02*
X103337857Y-53607142D01*
X103123571Y-53678571D01*
X102980714Y-53678571D01*
X102766428Y-53607142D01*
X102623571Y-53464285D01*
X102552142Y-53321428D01*
X102480714Y-53035714D01*
X102480714Y-52821428D01*
X102552142Y-52535714D01*
X102623571Y-52392857D01*
X102766428Y-52250000D01*
X102980714Y-52178571D01*
X103123571Y-52178571D01*
X103337857Y-52250000D01*
X103409285Y-52321428D01*
X104266428Y-53678571D02*
X104123571Y-53607142D01*
X104052142Y-53464285D01*
X104052142Y-52178571D01*
X105052142Y-53678571D02*
X104909285Y-53607142D01*
X104837857Y-53535714D01*
X104766428Y-53392857D01*
X104766428Y-52964285D01*
X104837857Y-52821428D01*
X104909285Y-52750000D01*
X105052142Y-52678571D01*
X105266428Y-52678571D01*
X105409285Y-52750000D01*
X105480714Y-52821428D01*
X105552142Y-52964285D01*
X105552142Y-53392857D01*
X105480714Y-53535714D01*
X105409285Y-53607142D01*
X105266428Y-53678571D01*
X105052142Y-53678571D01*
X106837857Y-53607142D02*
X106695000Y-53678571D01*
X106409285Y-53678571D01*
X106266428Y-53607142D01*
X106195000Y-53535714D01*
X106123571Y-53392857D01*
X106123571Y-52964285D01*
X106195000Y-52821428D01*
X106266428Y-52750000D01*
X106409285Y-52678571D01*
X106695000Y-52678571D01*
X106837857Y-52750000D01*
X107480714Y-53678571D02*
X107480714Y-52178571D01*
X107623571Y-53107142D02*
X108052142Y-53678571D01*
X108052142Y-52678571D02*
X107480714Y-53250000D01*
X102552142Y-50678571D02*
X102552142Y-49178571D01*
X103123571Y-49178571D01*
X103266428Y-49250000D01*
X103337857Y-49321428D01*
X103409285Y-49464285D01*
X103409285Y-49678571D01*
X103337857Y-49821428D01*
X103266428Y-49892857D01*
X103123571Y-49964285D01*
X102552142Y-49964285D01*
X104266428Y-50678571D02*
X104123571Y-50607142D01*
X104052142Y-50535714D01*
X103980714Y-50392857D01*
X103980714Y-49964285D01*
X104052142Y-49821428D01*
X104123571Y-49750000D01*
X104266428Y-49678571D01*
X104480714Y-49678571D01*
X104623571Y-49750000D01*
X104695000Y-49821428D01*
X104766428Y-49964285D01*
X104766428Y-50392857D01*
X104695000Y-50535714D01*
X104623571Y-50607142D01*
X104480714Y-50678571D01*
X104266428Y-50678571D01*
X105266428Y-49678571D02*
X105552142Y-50678571D01*
X105837857Y-49964285D01*
X106123571Y-50678571D01*
X106409285Y-49678571D01*
X107552142Y-50607142D02*
X107409285Y-50678571D01*
X107123571Y-50678571D01*
X106980714Y-50607142D01*
X106909285Y-50464285D01*
X106909285Y-49892857D01*
X106980714Y-49750000D01*
X107123571Y-49678571D01*
X107409285Y-49678571D01*
X107552142Y-49750000D01*
X107623571Y-49892857D01*
X107623571Y-50035714D01*
X106909285Y-50178571D01*
X108266428Y-50678571D02*
X108266428Y-49678571D01*
X108266428Y-49964285D02*
X108337857Y-49821428D01*
X108409285Y-49750000D01*
X108552142Y-49678571D01*
X108695000Y-49678571D01*
D11*
X79375000Y-71065000D02*
X79375000Y-65985000D01*
X75565000Y-65985000D02*
X79375000Y-65985000D01*
X75565000Y-71065000D02*
X75565000Y-65985000D01*
X83185000Y-71065000D02*
X75565000Y-71065000D01*
X83185000Y-65985000D02*
X83185000Y-71065000D01*
X79375000Y-65985000D02*
X83185000Y-65985000D01*
D12*
X76517857Y-67327380D02*
X76517857Y-66327380D01*
X76851190Y-67041666D01*
X77184523Y-66327380D01*
X77184523Y-67327380D01*
X77660714Y-67327380D02*
X77660714Y-66327380D01*
X78089285Y-67279761D02*
X78232142Y-67327380D01*
X78470238Y-67327380D01*
X78565476Y-67279761D01*
X78613095Y-67232142D01*
X78660714Y-67136904D01*
X78660714Y-67041666D01*
X78613095Y-66946428D01*
X78565476Y-66898809D01*
X78470238Y-66851190D01*
X78279761Y-66803571D01*
X78184523Y-66755952D01*
X78136904Y-66708333D01*
X78089285Y-66613095D01*
X78089285Y-66517857D01*
X78136904Y-66422619D01*
X78184523Y-66375000D01*
X78279761Y-66327380D01*
X78517857Y-66327380D01*
X78660714Y-66375000D01*
X80422619Y-67327380D02*
X80089285Y-66851190D01*
X79851190Y-67327380D02*
X79851190Y-66327380D01*
X80232142Y-66327380D01*
X80327380Y-66375000D01*
X80375000Y-66422619D01*
X80422619Y-66517857D01*
X80422619Y-66660714D01*
X80375000Y-66755952D01*
X80327380Y-66803571D01*
X80232142Y-66851190D01*
X79851190Y-66851190D01*
X80851190Y-66803571D02*
X81184523Y-66803571D01*
X81327380Y-67327380D02*
X80851190Y-67327380D01*
X80851190Y-66327380D01*
X81327380Y-66327380D01*
X81708333Y-67279761D02*
X81851190Y-67327380D01*
X82089285Y-67327380D01*
X82184523Y-67279761D01*
X82232142Y-67232142D01*
X82279761Y-67136904D01*
X82279761Y-67041666D01*
X82232142Y-66946428D01*
X82184523Y-66898809D01*
X82089285Y-66851190D01*
X81898809Y-66803571D01*
X81803571Y-66755952D01*
X81755952Y-66708333D01*
X81708333Y-66613095D01*
X81708333Y-66517857D01*
X81755952Y-66422619D01*
X81803571Y-66375000D01*
X81898809Y-66327380D01*
X82136904Y-66327380D01*
X82279761Y-66375000D01*
X76136904Y-68929761D02*
X76279761Y-68977380D01*
X76517857Y-68977380D01*
X76613095Y-68929761D01*
X76660714Y-68882142D01*
X76708333Y-68786904D01*
X76708333Y-68691666D01*
X76660714Y-68596428D01*
X76613095Y-68548809D01*
X76517857Y-68501190D01*
X76327380Y-68453571D01*
X76232142Y-68405952D01*
X76184523Y-68358333D01*
X76136904Y-68263095D01*
X76136904Y-68167857D01*
X76184523Y-68072619D01*
X76232142Y-68025000D01*
X76327380Y-67977380D01*
X76565476Y-67977380D01*
X76708333Y-68025000D01*
X77708333Y-68882142D02*
X77660714Y-68929761D01*
X77517857Y-68977380D01*
X77422619Y-68977380D01*
X77279761Y-68929761D01*
X77184523Y-68834523D01*
X77136904Y-68739285D01*
X77089285Y-68548809D01*
X77089285Y-68405952D01*
X77136904Y-68215476D01*
X77184523Y-68120238D01*
X77279761Y-68025000D01*
X77422619Y-67977380D01*
X77517857Y-67977380D01*
X77660714Y-68025000D01*
X77708333Y-68072619D01*
X78136904Y-68977380D02*
X78136904Y-67977380D01*
X78708333Y-68977380D02*
X78279761Y-68405952D01*
X78708333Y-67977380D02*
X78136904Y-68548809D01*
X79898809Y-68977380D02*
X79898809Y-67977380D01*
X80232142Y-68691666D01*
X80565476Y-67977380D01*
X80565476Y-68977380D01*
X81232142Y-67977380D02*
X81422619Y-67977380D01*
X81517857Y-68025000D01*
X81613095Y-68120238D01*
X81660714Y-68310714D01*
X81660714Y-68644047D01*
X81613095Y-68834523D01*
X81517857Y-68929761D01*
X81422619Y-68977380D01*
X81232142Y-68977380D01*
X81136904Y-68929761D01*
X81041666Y-68834523D01*
X80994047Y-68644047D01*
X80994047Y-68310714D01*
X81041666Y-68120238D01*
X81136904Y-68025000D01*
X81232142Y-67977380D01*
X82041666Y-68929761D02*
X82184523Y-68977380D01*
X82422619Y-68977380D01*
X82517857Y-68929761D01*
X82565476Y-68882142D01*
X82613095Y-68786904D01*
X82613095Y-68691666D01*
X82565476Y-68596428D01*
X82517857Y-68548809D01*
X82422619Y-68501190D01*
X82232142Y-68453571D01*
X82136904Y-68405952D01*
X82089285Y-68358333D01*
X82041666Y-68263095D01*
X82041666Y-68167857D01*
X82089285Y-68072619D01*
X82136904Y-68025000D01*
X82232142Y-67977380D01*
X82470238Y-67977380D01*
X82613095Y-68025000D01*
X76851190Y-70627380D02*
X76517857Y-70151190D01*
X76279761Y-70627380D02*
X76279761Y-69627380D01*
X76660714Y-69627380D01*
X76755952Y-69675000D01*
X76803571Y-69722619D01*
X76851190Y-69817857D01*
X76851190Y-69960714D01*
X76803571Y-70055952D01*
X76755952Y-70103571D01*
X76660714Y-70151190D01*
X76279761Y-70151190D01*
X77279761Y-70103571D02*
X77613095Y-70103571D01*
X77755952Y-70627380D02*
X77279761Y-70627380D01*
X77279761Y-69627380D01*
X77755952Y-69627380D01*
X78136904Y-70579761D02*
X78279761Y-70627380D01*
X78517857Y-70627380D01*
X78613095Y-70579761D01*
X78660714Y-70532142D01*
X78708333Y-70436904D01*
X78708333Y-70341666D01*
X78660714Y-70246428D01*
X78613095Y-70198809D01*
X78517857Y-70151190D01*
X78327380Y-70103571D01*
X78232142Y-70055952D01*
X78184523Y-70008333D01*
X78136904Y-69913095D01*
X78136904Y-69817857D01*
X78184523Y-69722619D01*
X78232142Y-69675000D01*
X78327380Y-69627380D01*
X78565476Y-69627380D01*
X78708333Y-69675000D01*
X80422619Y-69675000D02*
X80327380Y-69627380D01*
X80184523Y-69627380D01*
X80041666Y-69675000D01*
X79946428Y-69770238D01*
X79898809Y-69865476D01*
X79851190Y-70055952D01*
X79851190Y-70198809D01*
X79898809Y-70389285D01*
X79946428Y-70484523D01*
X80041666Y-70579761D01*
X80184523Y-70627380D01*
X80279761Y-70627380D01*
X80422619Y-70579761D01*
X80470238Y-70532142D01*
X80470238Y-70198809D01*
X80279761Y-70198809D01*
X80898809Y-70627380D02*
X80898809Y-69627380D01*
X81470238Y-70627380D01*
X81470238Y-69627380D01*
X81946428Y-70627380D02*
X81946428Y-69627380D01*
X82184523Y-69627380D01*
X82327380Y-69675000D01*
X82422619Y-69770238D01*
X82470238Y-69865476D01*
X82517857Y-70055952D01*
X82517857Y-70198809D01*
X82470238Y-70389285D01*
X82422619Y-70484523D01*
X82327380Y-70579761D01*
X82184523Y-70627380D01*
X81946428Y-70627380D01*
X85651904Y-65637380D02*
X86270952Y-65637380D01*
X85937619Y-66018333D01*
X86080476Y-66018333D01*
X86175714Y-66065952D01*
X86223333Y-66113571D01*
X86270952Y-66208809D01*
X86270952Y-66446904D01*
X86223333Y-66542142D01*
X86175714Y-66589761D01*
X86080476Y-66637380D01*
X85794761Y-66637380D01*
X85699523Y-66589761D01*
X85651904Y-66542142D01*
X86556666Y-65637380D02*
X86890000Y-66637380D01*
X87223333Y-65637380D01*
X87461428Y-65637380D02*
X88080476Y-65637380D01*
X87747142Y-66018333D01*
X87890000Y-66018333D01*
X87985238Y-66065952D01*
X88032857Y-66113571D01*
X88080476Y-66208809D01*
X88080476Y-66446904D01*
X88032857Y-66542142D01*
X87985238Y-66589761D01*
X87890000Y-66637380D01*
X87604285Y-66637380D01*
X87509047Y-66589761D01*
X87461428Y-66542142D01*
X86723333Y-68287380D02*
X86390000Y-67811190D01*
X86151904Y-68287380D02*
X86151904Y-67287380D01*
X86532857Y-67287380D01*
X86628095Y-67335000D01*
X86675714Y-67382619D01*
X86723333Y-67477857D01*
X86723333Y-67620714D01*
X86675714Y-67715952D01*
X86628095Y-67763571D01*
X86532857Y-67811190D01*
X86151904Y-67811190D01*
X87056666Y-67287380D02*
X87723333Y-68287380D01*
X87723333Y-67287380D02*
X87056666Y-68287380D01*
X86128095Y-68937380D02*
X86699523Y-68937380D01*
X86413809Y-69937380D02*
X86413809Y-68937380D01*
X86937619Y-68937380D02*
X87604285Y-69937380D01*
X87604285Y-68937380D02*
X86937619Y-69937380D01*
X86128095Y-70635000D02*
X86032857Y-70587380D01*
X85890000Y-70587380D01*
X85747142Y-70635000D01*
X85651904Y-70730238D01*
X85604285Y-70825476D01*
X85556666Y-71015952D01*
X85556666Y-71158809D01*
X85604285Y-71349285D01*
X85651904Y-71444523D01*
X85747142Y-71539761D01*
X85890000Y-71587380D01*
X85985238Y-71587380D01*
X86128095Y-71539761D01*
X86175714Y-71492142D01*
X86175714Y-71158809D01*
X85985238Y-71158809D01*
X86604285Y-71587380D02*
X86604285Y-70587380D01*
X87175714Y-71587380D01*
X87175714Y-70587380D01*
X87651904Y-71587380D02*
X87651904Y-70587380D01*
X87890000Y-70587380D01*
X88032857Y-70635000D01*
X88128095Y-70730238D01*
X88175714Y-70825476D01*
X88223333Y-71015952D01*
X88223333Y-71158809D01*
X88175714Y-71349285D01*
X88128095Y-71444523D01*
X88032857Y-71539761D01*
X87890000Y-71587380D01*
X87651904Y-71587380D01*
D13*
X98032738Y-131488095D02*
X97413690Y-131488095D01*
X97413690Y-130188095D01*
X98651785Y-131488095D02*
X98527976Y-131426190D01*
X98466071Y-131364285D01*
X98404166Y-131240476D01*
X98404166Y-130869047D01*
X98466071Y-130745238D01*
X98527976Y-130683333D01*
X98651785Y-130621428D01*
X98837500Y-130621428D01*
X98961309Y-130683333D01*
X99023214Y-130745238D01*
X99085119Y-130869047D01*
X99085119Y-131240476D01*
X99023214Y-131364285D01*
X98961309Y-131426190D01*
X98837500Y-131488095D01*
X98651785Y-131488095D01*
X100075595Y-130807142D02*
X99642261Y-130807142D01*
X99642261Y-131488095D02*
X99642261Y-130188095D01*
X100261309Y-130188095D01*
X101251785Y-131426190D02*
X101127976Y-131488095D01*
X100880357Y-131488095D01*
X100756547Y-131426190D01*
X100694642Y-131302380D01*
X100694642Y-130807142D01*
X100756547Y-130683333D01*
X100880357Y-130621428D01*
X101127976Y-130621428D01*
X101251785Y-130683333D01*
X101313690Y-130807142D01*
X101313690Y-130930952D01*
X100694642Y-131054761D01*
X101870833Y-130621428D02*
X101870833Y-131488095D01*
X101870833Y-130745238D02*
X101932738Y-130683333D01*
X102056547Y-130621428D01*
X102242261Y-130621428D01*
X102366071Y-130683333D01*
X102427976Y-130807142D01*
X102427976Y-131488095D01*
X103604166Y-131426190D02*
X103480357Y-131488095D01*
X103232738Y-131488095D01*
X103108928Y-131426190D01*
X103047023Y-131364285D01*
X102985119Y-131240476D01*
X102985119Y-130869047D01*
X103047023Y-130745238D01*
X103108928Y-130683333D01*
X103232738Y-130621428D01*
X103480357Y-130621428D01*
X103604166Y-130683333D01*
X104656547Y-131426190D02*
X104532738Y-131488095D01*
X104285119Y-131488095D01*
X104161309Y-131426190D01*
X104099404Y-131302380D01*
X104099404Y-130807142D01*
X104161309Y-130683333D01*
X104285119Y-130621428D01*
X104532738Y-130621428D01*
X104656547Y-130683333D01*
X104718452Y-130807142D01*
X104718452Y-130930952D01*
X104099404Y-131054761D01*
X107008928Y-131488095D02*
X106575595Y-130869047D01*
X106266071Y-131488095D02*
X106266071Y-130188095D01*
X106761309Y-130188095D01*
X106885119Y-130250000D01*
X106947023Y-130311904D01*
X107008928Y-130435714D01*
X107008928Y-130621428D01*
X106947023Y-130745238D01*
X106885119Y-130807142D01*
X106761309Y-130869047D01*
X106266071Y-130869047D01*
X107566071Y-130807142D02*
X107999404Y-130807142D01*
X108185119Y-131488095D02*
X107566071Y-131488095D01*
X107566071Y-130188095D01*
X108185119Y-130188095D01*
X108556547Y-130188095D02*
X108989880Y-131488095D01*
X109423214Y-130188095D01*
X111280357Y-130807142D02*
X111466071Y-130869047D01*
X111527976Y-130930952D01*
X111589880Y-131054761D01*
X111589880Y-131240476D01*
X111527976Y-131364285D01*
X111466071Y-131426190D01*
X111342261Y-131488095D01*
X110847023Y-131488095D01*
X110847023Y-130188095D01*
X111280357Y-130188095D01*
X111404166Y-130250000D01*
X111466071Y-130311904D01*
X111527976Y-130435714D01*
X111527976Y-130559523D01*
X111466071Y-130683333D01*
X111404166Y-130745238D01*
X111280357Y-130807142D01*
X110847023Y-130807142D01*
X80513690Y-133688095D02*
X80513690Y-132388095D01*
X81070833Y-133688095D02*
X81070833Y-133007142D01*
X81008928Y-132883333D01*
X80885119Y-132821428D01*
X80699404Y-132821428D01*
X80575595Y-132883333D01*
X80513690Y-132945238D01*
X81504166Y-132821428D02*
X81999404Y-132821428D01*
X81689880Y-132388095D02*
X81689880Y-133502380D01*
X81751785Y-133626190D01*
X81875595Y-133688095D01*
X81999404Y-133688095D01*
X82247023Y-132821428D02*
X82742261Y-132821428D01*
X82432738Y-132388095D02*
X82432738Y-133502380D01*
X82494642Y-133626190D01*
X82618452Y-133688095D01*
X82742261Y-133688095D01*
X83175595Y-132821428D02*
X83175595Y-134121428D01*
X83175595Y-132883333D02*
X83299404Y-132821428D01*
X83547023Y-132821428D01*
X83670833Y-132883333D01*
X83732738Y-132945238D01*
X83794642Y-133069047D01*
X83794642Y-133440476D01*
X83732738Y-133564285D01*
X83670833Y-133626190D01*
X83547023Y-133688095D01*
X83299404Y-133688095D01*
X83175595Y-133626190D01*
X84289880Y-133626190D02*
X84413690Y-133688095D01*
X84661309Y-133688095D01*
X84785119Y-133626190D01*
X84847023Y-133502380D01*
X84847023Y-133440476D01*
X84785119Y-133316666D01*
X84661309Y-133254761D01*
X84475595Y-133254761D01*
X84351785Y-133192857D01*
X84289880Y-133069047D01*
X84289880Y-133007142D01*
X84351785Y-132883333D01*
X84475595Y-132821428D01*
X84661309Y-132821428D01*
X84785119Y-132883333D01*
X85404166Y-133564285D02*
X85466071Y-133626190D01*
X85404166Y-133688095D01*
X85342261Y-133626190D01*
X85404166Y-133564285D01*
X85404166Y-133688095D01*
X85404166Y-132883333D02*
X85466071Y-132945238D01*
X85404166Y-133007142D01*
X85342261Y-132945238D01*
X85404166Y-132883333D01*
X85404166Y-133007142D01*
X86951785Y-132326190D02*
X85837499Y-133997619D01*
X88313690Y-132326190D02*
X87199404Y-133997619D01*
X89304166Y-132821428D02*
X89304166Y-133873809D01*
X89242261Y-133997619D01*
X89180357Y-134059523D01*
X89056547Y-134121428D01*
X88870833Y-134121428D01*
X88747023Y-134059523D01*
X89304166Y-133626190D02*
X89180357Y-133688095D01*
X88932738Y-133688095D01*
X88808928Y-133626190D01*
X88747023Y-133564285D01*
X88685119Y-133440476D01*
X88685119Y-133069047D01*
X88747023Y-132945238D01*
X88808928Y-132883333D01*
X88932738Y-132821428D01*
X89180357Y-132821428D01*
X89304166Y-132883333D01*
X89923214Y-133688095D02*
X89923214Y-132821428D01*
X89923214Y-132388095D02*
X89861309Y-132450000D01*
X89923214Y-132511904D01*
X89985119Y-132450000D01*
X89923214Y-132388095D01*
X89923214Y-132511904D01*
X90356547Y-132821428D02*
X90851785Y-132821428D01*
X90542261Y-132388095D02*
X90542261Y-133502380D01*
X90604166Y-133626190D01*
X90727976Y-133688095D01*
X90851785Y-133688095D01*
X91285119Y-133688095D02*
X91285119Y-132388095D01*
X91842261Y-133688095D02*
X91842261Y-133007142D01*
X91780357Y-132883333D01*
X91656547Y-132821428D01*
X91470833Y-132821428D01*
X91347023Y-132883333D01*
X91285119Y-132945238D01*
X93018452Y-132821428D02*
X93018452Y-133688095D01*
X92461309Y-132821428D02*
X92461309Y-133502380D01*
X92523214Y-133626190D01*
X92647023Y-133688095D01*
X92832738Y-133688095D01*
X92956547Y-133626190D01*
X93018452Y-133564285D01*
X93637499Y-133688095D02*
X93637499Y-132388095D01*
X93637499Y-132883333D02*
X93761309Y-132821428D01*
X94008928Y-132821428D01*
X94132738Y-132883333D01*
X94194642Y-132945238D01*
X94256547Y-133069047D01*
X94256547Y-133440476D01*
X94194642Y-133564285D01*
X94132738Y-133626190D01*
X94008928Y-133688095D01*
X93761309Y-133688095D01*
X93637499Y-133626190D01*
X94813690Y-133564285D02*
X94875595Y-133626190D01*
X94813690Y-133688095D01*
X94751785Y-133626190D01*
X94813690Y-133564285D01*
X94813690Y-133688095D01*
X95989880Y-133626190D02*
X95866071Y-133688095D01*
X95618452Y-133688095D01*
X95494642Y-133626190D01*
X95432738Y-133564285D01*
X95370833Y-133440476D01*
X95370833Y-133069047D01*
X95432738Y-132945238D01*
X95494642Y-132883333D01*
X95618452Y-132821428D01*
X95866071Y-132821428D01*
X95989880Y-132883333D01*
X96732738Y-133688095D02*
X96608928Y-133626190D01*
X96547023Y-133564285D01*
X96485119Y-133440476D01*
X96485119Y-133069047D01*
X96547023Y-132945238D01*
X96608928Y-132883333D01*
X96732738Y-132821428D01*
X96918452Y-132821428D01*
X97042261Y-132883333D01*
X97104166Y-132945238D01*
X97166071Y-133069047D01*
X97166071Y-133440476D01*
X97104166Y-133564285D01*
X97042261Y-133626190D01*
X96918452Y-133688095D01*
X96732738Y-133688095D01*
X97723214Y-133688095D02*
X97723214Y-132821428D01*
X97723214Y-132945238D02*
X97785119Y-132883333D01*
X97908928Y-132821428D01*
X98094642Y-132821428D01*
X98218452Y-132883333D01*
X98280357Y-133007142D01*
X98280357Y-133688095D01*
X98280357Y-133007142D02*
X98342261Y-132883333D01*
X98466071Y-132821428D01*
X98651785Y-132821428D01*
X98775595Y-132883333D01*
X98837499Y-133007142D01*
X98837499Y-133688095D01*
X100385119Y-132326190D02*
X99270833Y-133997619D01*
X100818452Y-133688095D02*
X100818452Y-132388095D01*
X100942261Y-133192857D02*
X101313690Y-133688095D01*
X101313690Y-132821428D02*
X100818452Y-133316666D01*
X101870833Y-133688095D02*
X101870833Y-132821428D01*
X101870833Y-132388095D02*
X101808928Y-132450000D01*
X101870833Y-132511904D01*
X101932738Y-132450000D01*
X101870833Y-132388095D01*
X101870833Y-132511904D01*
X103047023Y-132821428D02*
X103047023Y-133688095D01*
X102489880Y-132821428D02*
X102489880Y-133502380D01*
X102551785Y-133626190D01*
X102675595Y-133688095D01*
X102861309Y-133688095D01*
X102985119Y-133626190D01*
X103047023Y-133564285D01*
X104594642Y-132326190D02*
X103480357Y-133997619D01*
X105213690Y-133688095D02*
X105089880Y-133626190D01*
X105027976Y-133502380D01*
X105027976Y-132388095D01*
X105894642Y-133688095D02*
X105770833Y-133626190D01*
X105708928Y-133564285D01*
X105647023Y-133440476D01*
X105647023Y-133069047D01*
X105708928Y-132945238D01*
X105770833Y-132883333D01*
X105894642Y-132821428D01*
X106080357Y-132821428D01*
X106204166Y-132883333D01*
X106266071Y-132945238D01*
X106327976Y-133069047D01*
X106327976Y-133440476D01*
X106266071Y-133564285D01*
X106204166Y-133626190D01*
X106080357Y-133688095D01*
X105894642Y-133688095D01*
X106699404Y-132821428D02*
X107194642Y-132821428D01*
X106885119Y-133688095D02*
X106885119Y-132573809D01*
X106947023Y-132450000D01*
X107070833Y-132388095D01*
X107194642Y-132388095D01*
X108123214Y-133626190D02*
X107999404Y-133688095D01*
X107751785Y-133688095D01*
X107627976Y-133626190D01*
X107566071Y-133502380D01*
X107566071Y-133007142D01*
X107627976Y-132883333D01*
X107751785Y-132821428D01*
X107999404Y-132821428D01*
X108123214Y-132883333D01*
X108185119Y-133007142D01*
X108185119Y-133130952D01*
X107566071Y-133254761D01*
X108742261Y-132821428D02*
X108742261Y-133688095D01*
X108742261Y-132945238D02*
X108804166Y-132883333D01*
X108927976Y-132821428D01*
X109113690Y-132821428D01*
X109237499Y-132883333D01*
X109299404Y-133007142D01*
X109299404Y-133688095D01*
X110475595Y-133626190D02*
X110351785Y-133688095D01*
X110104166Y-133688095D01*
X109980357Y-133626190D01*
X109918452Y-133564285D01*
X109856547Y-133440476D01*
X109856547Y-133069047D01*
X109918452Y-132945238D01*
X109980357Y-132883333D01*
X110104166Y-132821428D01*
X110351785Y-132821428D01*
X110475595Y-132883333D01*
X111527976Y-133626190D02*
X111404166Y-133688095D01*
X111156547Y-133688095D01*
X111032738Y-133626190D01*
X110970833Y-133502380D01*
X110970833Y-133007142D01*
X111032738Y-132883333D01*
X111156547Y-132821428D01*
X111404166Y-132821428D01*
X111527976Y-132883333D01*
X111589880Y-133007142D01*
X111589880Y-133130952D01*
X110970833Y-133254761D01*
D14*
G04 #@! TO.C,BT1*
X41000000Y-118000000D02*
X44000000Y-118000000D01*
X105500000Y-116500000D02*
X105500000Y-119500000D01*
X107000000Y-118000000D02*
X104000000Y-118000000D01*
D12*
X35500000Y-107500000D02*
X112500000Y-107500000D01*
X35500000Y-128500000D02*
X35500000Y-107500000D01*
X112500000Y-128500000D02*
X35500000Y-128500000D01*
X112500000Y-107500000D02*
X112500000Y-128500000D01*
D15*
G04 #@! TO.C,SW1*
X107250000Y-93250000D02*
X107250000Y-90750000D01*
X100750000Y-93250000D02*
X100750000Y-90750000D01*
X107250000Y-95400000D02*
X107250000Y-94750000D01*
X100750000Y-95400000D02*
X107250000Y-95400000D01*
X100750000Y-94750000D02*
X100750000Y-95400000D01*
X107250000Y-88600000D02*
X107250000Y-89250000D01*
X100750000Y-88600000D02*
X107250000Y-88600000D01*
X100750000Y-89250000D02*
X100750000Y-88600000D01*
G04 #@! TO.C,C9*
X63500000Y-81850000D02*
X64500000Y-81850000D01*
X64500000Y-80150000D02*
X63500000Y-80150000D01*
G04 #@! TO.C,C1*
X53500000Y-88030000D02*
X54500000Y-88030000D01*
X54500000Y-86330000D02*
X53500000Y-86330000D01*
G04 #@! TO.C,C6*
X94500000Y-89150000D02*
X93500000Y-89150000D01*
X93500000Y-90850000D02*
X94500000Y-90850000D01*
G04 #@! TO.C,C11*
X64500000Y-74150000D02*
X63500000Y-74150000D01*
X63500000Y-75850000D02*
X64500000Y-75850000D01*
G04 #@! TO.C,R4*
X42663823Y-146321599D02*
X41463823Y-146321599D01*
X41463823Y-144561599D02*
X42663823Y-144561599D01*
G04 #@! TO.C,R6*
X69120000Y-91100000D02*
X69120000Y-89900000D01*
X70880000Y-89900000D02*
X70880000Y-91100000D01*
G04 #@! TO.C,R7*
X55120000Y-99600000D02*
X55120000Y-98400000D01*
X56880000Y-98400000D02*
X56880000Y-99600000D01*
G04 #@! TO.C,R9*
X93400000Y-93120000D02*
X94600000Y-93120000D01*
X94600000Y-94880000D02*
X93400000Y-94880000D01*
G04 #@! TO.C,R10*
X61400000Y-91300000D02*
X62600000Y-91300000D01*
X62600000Y-93060000D02*
X61400000Y-93060000D01*
G04 #@! TO.C,R13*
X90900000Y-55120000D02*
X92100000Y-55120000D01*
X92100000Y-56880000D02*
X90900000Y-56880000D01*
G04 #@! TO.C,R14*
X90900000Y-58120000D02*
X92100000Y-58120000D01*
X92100000Y-59880000D02*
X90900000Y-59880000D01*
G04 #@! TO.C,R15*
X90900000Y-61120000D02*
X92100000Y-61120000D01*
X92100000Y-62880000D02*
X90900000Y-62880000D01*
G04 #@! TO.C,U2*
X72900000Y-100390000D02*
X71100000Y-100390000D01*
X71100000Y-103610000D02*
X73550000Y-103610000D01*
G04 #@! TO.C,C2*
X76150000Y-101500000D02*
X76150000Y-102500000D01*
X77850000Y-102500000D02*
X77850000Y-101500000D01*
G04 #@! TO.C,C3*
X66150000Y-101500000D02*
X66150000Y-102500000D01*
X67850000Y-102500000D02*
X67850000Y-101500000D01*
G04 #@! TO.C,D4*
X100700000Y-53750000D02*
X100700000Y-52250000D01*
X100700000Y-53750000D02*
X97500000Y-53750000D01*
X97500000Y-52250000D02*
X100700000Y-52250000D01*
G04 #@! TO.C,D5*
X97500000Y-55250000D02*
X100700000Y-55250000D01*
X100700000Y-56750000D02*
X97500000Y-56750000D01*
X100700000Y-56750000D02*
X100700000Y-55250000D01*
G04 #@! TO.C,D6*
X100700000Y-59750000D02*
X100700000Y-58250000D01*
X100700000Y-59750000D02*
X97500000Y-59750000D01*
X97500000Y-58250000D02*
X100700000Y-58250000D01*
G04 #@! TO.C,R18*
X45400000Y-91300000D02*
X46600000Y-91300000D01*
X46600000Y-93060000D02*
X45400000Y-93060000D01*
G04 #@! TO.C,R19*
X41880000Y-84400000D02*
X41880000Y-85600000D01*
X40120000Y-85600000D02*
X40120000Y-84400000D01*
G04 #@! TO.C,R20*
X64600000Y-78880000D02*
X63400000Y-78880000D01*
X63400000Y-77120000D02*
X64600000Y-77120000D01*
G04 #@! TO.C,Y1*
X83000000Y-74850000D02*
G75*
G02X83000000Y-78250000I0J-1700000D01*
G01*
X83000000Y-74850000D02*
G75*
G03X83000000Y-78250000I0J-1700000D01*
G01*
G04 #@! TO.C,C7*
X41850000Y-91680000D02*
X41850000Y-90680000D01*
X40150000Y-90680000D02*
X40150000Y-91680000D01*
G04 #@! TO.C,C8*
X58500000Y-74150000D02*
X57500000Y-74150000D01*
X57500000Y-75850000D02*
X58500000Y-75850000D01*
G04 #@! TO.C,C10*
X82150000Y-82500000D02*
X82150000Y-83500000D01*
X83850000Y-83500000D02*
X83850000Y-82500000D01*
G04 #@! TO.C,D3*
X97500000Y-49250000D02*
X100700000Y-49250000D01*
X100700000Y-50750000D02*
X97500000Y-50750000D01*
X100700000Y-50750000D02*
X100700000Y-49250000D01*
G04 #@! TO.C,D8*
X45240000Y-83600000D02*
X46700000Y-83600000D01*
X45240000Y-86760000D02*
X47400000Y-86760000D01*
X45240000Y-86760000D02*
X45240000Y-85830000D01*
X45240000Y-83600000D02*
X45240000Y-84530000D01*
G04 #@! TO.C,R8*
X92100000Y-50880000D02*
X90900000Y-50880000D01*
X90900000Y-49120000D02*
X92100000Y-49120000D01*
G04 #@! TO.C,R11*
X90900000Y-52120000D02*
X92100000Y-52120000D01*
X92100000Y-53880000D02*
X90900000Y-53880000D01*
G04 #@! TO.C,U4*
X38250000Y-70000000D02*
X37560000Y-70000000D01*
X37560000Y-70000000D02*
X37560000Y-52000000D01*
X37560000Y-52000000D02*
X38250000Y-52000000D01*
X63700000Y-70000000D02*
X64440000Y-70000000D01*
X64440000Y-70000000D02*
X64440000Y-65572000D01*
X64440000Y-56428000D02*
X64440000Y-52000000D01*
X64440000Y-52000000D02*
X63700000Y-52000000D01*
X38250000Y-70000000D02*
X38250000Y-70652000D01*
G04 #@! TO.C,C4*
X59710000Y-103520000D02*
X60480000Y-104290000D01*
X59710000Y-103520000D02*
X59710000Y-99710000D01*
X64290000Y-103520000D02*
X63520000Y-104290000D01*
X64290000Y-103520000D02*
X64290000Y-99710000D01*
X63520000Y-104290000D02*
X63120000Y-104290000D01*
X60480000Y-104290000D02*
X60880000Y-104290000D01*
X59710000Y-99710000D02*
X60880000Y-99710000D01*
X64290000Y-99710000D02*
X63120000Y-99710000D01*
G04 #@! TO.C,C5*
X62500000Y-94650000D02*
X61500000Y-94650000D01*
X61500000Y-96350000D02*
X62500000Y-96350000D01*
G04 #@! TO.C,D2*
X62760000Y-86760000D02*
X61300000Y-86760000D01*
X62760000Y-83600000D02*
X60600000Y-83600000D01*
X62760000Y-83600000D02*
X62760000Y-84530000D01*
X62760000Y-86760000D02*
X62760000Y-85830000D01*
G04 #@! TO.C,D7*
X100700000Y-62750000D02*
X100700000Y-61250000D01*
X100700000Y-62750000D02*
X97500000Y-62750000D01*
X97500000Y-61250000D02*
X100700000Y-61250000D01*
G04 #@! TO.C,J3*
X90670000Y-75770000D02*
X92000000Y-75770000D01*
X90670000Y-77100000D02*
X90670000Y-75770000D01*
X93270000Y-75770000D02*
X95870000Y-75770000D01*
X93270000Y-78370000D02*
X93270000Y-75770000D01*
X90670000Y-78370000D02*
X93270000Y-78370000D01*
X95870000Y-75770000D02*
X95870000Y-83510000D01*
X90670000Y-78370000D02*
X90670000Y-83510000D01*
X90670000Y-83510000D02*
X95870000Y-83510000D01*
G04 #@! TO.C,J4*
X105670000Y-84950000D02*
X108330000Y-84950000D01*
X105670000Y-77270000D02*
X105670000Y-84950000D01*
X108330000Y-77270000D02*
X108330000Y-84950000D01*
X105670000Y-77270000D02*
X108330000Y-77270000D01*
X105670000Y-76000000D02*
X105670000Y-74670000D01*
X105670000Y-74670000D02*
X107000000Y-74670000D01*
G04 #@! TO.C,J5*
X98830000Y-65670000D02*
X98830000Y-67000000D01*
X97500000Y-65670000D02*
X98830000Y-65670000D01*
X96230000Y-65670000D02*
X96230000Y-68330000D01*
X96230000Y-68330000D02*
X91090000Y-68330000D01*
X96230000Y-65670000D02*
X91090000Y-65670000D01*
X91090000Y-65670000D02*
X91090000Y-68330000D01*
G04 #@! TO.C,J6*
X99670000Y-74670000D02*
X101000000Y-74670000D01*
X99670000Y-76000000D02*
X99670000Y-74670000D01*
X99670000Y-77270000D02*
X102330000Y-77270000D01*
X102330000Y-77270000D02*
X102330000Y-84950000D01*
X99670000Y-77270000D02*
X99670000Y-84950000D01*
X99670000Y-84950000D02*
X102330000Y-84950000D01*
G04 #@! TO.C,R1*
X105003823Y-145441599D02*
X104033823Y-145441599D01*
X87443823Y-145441599D02*
X88413823Y-145441599D01*
X104033823Y-142881599D02*
X88413823Y-142881599D01*
X104033823Y-148001599D02*
X104033823Y-142881599D01*
X88413823Y-148001599D02*
X104033823Y-148001599D01*
X88413823Y-142881599D02*
X88413823Y-148001599D01*
G04 #@! TO.C,R2*
X63413823Y-142881599D02*
X63413823Y-148001599D01*
X63413823Y-148001599D02*
X79033823Y-148001599D01*
X79033823Y-148001599D02*
X79033823Y-142881599D01*
X79033823Y-142881599D02*
X63413823Y-142881599D01*
X62443823Y-145441599D02*
X63413823Y-145441599D01*
X80003823Y-145441599D02*
X79033823Y-145441599D01*
G04 #@! TO.C,R3*
X56243823Y-145441599D02*
X55353823Y-145441599D01*
X48043823Y-145441599D02*
X48933823Y-145441599D01*
X55353823Y-144131599D02*
X48933823Y-144131599D01*
X55353823Y-146751599D02*
X55353823Y-144131599D01*
X48933823Y-146751599D02*
X55353823Y-146751599D01*
X48933823Y-144131599D02*
X48933823Y-146751599D01*
G04 #@! TO.C,R12*
X62600000Y-90060000D02*
X61400000Y-90060000D01*
X61400000Y-88300000D02*
X62600000Y-88300000D01*
G04 #@! TO.C,R16*
X46600000Y-90060000D02*
X45400000Y-90060000D01*
X45400000Y-88300000D02*
X46600000Y-88300000D01*
G04 #@! TO.C,R17*
X52880000Y-98400000D02*
X52880000Y-99600000D01*
X51120000Y-99600000D02*
X51120000Y-98400000D01*
D12*
G04 #@! TO.C,U1*
X51925000Y-89655000D02*
X50525000Y-89655000D01*
X51925000Y-94755000D02*
X56075000Y-94755000D01*
X51925000Y-89605000D02*
X56075000Y-89605000D01*
X51925000Y-94755000D02*
X51925000Y-94610000D01*
X56075000Y-94755000D02*
X56075000Y-94610000D01*
X56075000Y-89605000D02*
X56075000Y-89750000D01*
X51925000Y-89605000D02*
X51925000Y-89655000D01*
G04 #@! TO.C,U3*
X77625000Y-82400000D02*
X79050000Y-82400000D01*
X70375000Y-82625000D02*
X70700000Y-82625000D01*
X70375000Y-75375000D02*
X70700000Y-75375000D01*
X77625000Y-75375000D02*
X77300000Y-75375000D01*
X77625000Y-82625000D02*
X77300000Y-82625000D01*
X77625000Y-75375000D02*
X77625000Y-75700000D01*
X70375000Y-75375000D02*
X70375000Y-75700000D01*
X70375000Y-82625000D02*
X70375000Y-82300000D01*
X77625000Y-82625000D02*
X77625000Y-82400000D01*
D15*
G04 #@! TO.C,D1*
X88100000Y-100350000D02*
X95000000Y-100350000D01*
X88100000Y-103650000D02*
X95000000Y-103650000D01*
X88100000Y-100350000D02*
X88100000Y-103650000D01*
G04 #@! TO.C,R5*
X67380000Y-89900000D02*
X67380000Y-91100000D01*
X65620000Y-91100000D02*
X65620000Y-89900000D01*
G04 #@! TO.C,C12*
X84150000Y-92500000D02*
X84150000Y-93500000D01*
X85850000Y-93500000D02*
X85850000Y-92500000D01*
G04 #@! TO.C,C13*
X75020000Y-96000000D02*
X75020000Y-94000000D01*
X72980000Y-94000000D02*
X72980000Y-96000000D01*
G04 #@! TO.C,C14*
X80500000Y-96480000D02*
X78500000Y-96480000D01*
X78500000Y-98520000D02*
X80500000Y-98520000D01*
G04 #@! TO.C,J8*
X84170000Y-98170000D02*
X85500000Y-98170000D01*
X84170000Y-99500000D02*
X84170000Y-98170000D01*
X84170000Y-100770000D02*
X86830000Y-100770000D01*
X86830000Y-100770000D02*
X86830000Y-105910000D01*
X84170000Y-100770000D02*
X84170000Y-105910000D01*
X84170000Y-105910000D02*
X86830000Y-105910000D01*
G04 #@! TO.C,R21*
X75600000Y-90380000D02*
X74400000Y-90380000D01*
X74400000Y-88620000D02*
X75600000Y-88620000D01*
D12*
G04 #@! TO.C,U5*
X77825000Y-91500000D02*
X76575000Y-91500000D01*
X77825000Y-94675000D02*
X81175000Y-94675000D01*
X77825000Y-91325000D02*
X81175000Y-91325000D01*
X77825000Y-94675000D02*
X77825000Y-94425000D01*
X81175000Y-94675000D02*
X81175000Y-94425000D01*
X81175000Y-91325000D02*
X81175000Y-91575000D01*
X77825000Y-91325000D02*
X77825000Y-91500000D01*
G04 #@! TO.C,BT1*
X73214285Y-119528571D02*
X73357142Y-119576190D01*
X73404761Y-119623809D01*
X73452380Y-119719047D01*
X73452380Y-119861904D01*
X73404761Y-119957142D01*
X73357142Y-120004761D01*
X73261904Y-120052380D01*
X72880952Y-120052380D01*
X72880952Y-119052380D01*
X73214285Y-119052380D01*
X73309523Y-119100000D01*
X73357142Y-119147619D01*
X73404761Y-119242857D01*
X73404761Y-119338095D01*
X73357142Y-119433333D01*
X73309523Y-119480952D01*
X73214285Y-119528571D01*
X72880952Y-119528571D01*
X73738095Y-119052380D02*
X74309523Y-119052380D01*
X74023809Y-120052380D02*
X74023809Y-119052380D01*
X75166666Y-120052380D02*
X74595238Y-120052380D01*
X74880952Y-120052380D02*
X74880952Y-119052380D01*
X74785714Y-119195238D01*
X74690476Y-119290476D01*
X74595238Y-119338095D01*
G04 #@! TO.C,SW1*
X102666666Y-96904761D02*
X102809523Y-96952380D01*
X103047619Y-96952380D01*
X103142857Y-96904761D01*
X103190476Y-96857142D01*
X103238095Y-96761904D01*
X103238095Y-96666666D01*
X103190476Y-96571428D01*
X103142857Y-96523809D01*
X103047619Y-96476190D01*
X102857142Y-96428571D01*
X102761904Y-96380952D01*
X102714285Y-96333333D01*
X102666666Y-96238095D01*
X102666666Y-96142857D01*
X102714285Y-96047619D01*
X102761904Y-96000000D01*
X102857142Y-95952380D01*
X103095238Y-95952380D01*
X103238095Y-96000000D01*
X103571428Y-95952380D02*
X103809523Y-96952380D01*
X104000000Y-96238095D01*
X104190476Y-96952380D01*
X104428571Y-95952380D01*
X105333333Y-96952380D02*
X104761904Y-96952380D01*
X105047619Y-96952380D02*
X105047619Y-95952380D01*
X104952380Y-96095238D01*
X104857142Y-96190476D01*
X104761904Y-96238095D01*
G04 #@! TO.C,C9*
X63833333Y-83107142D02*
X63785714Y-83154761D01*
X63642857Y-83202380D01*
X63547619Y-83202380D01*
X63404761Y-83154761D01*
X63309523Y-83059523D01*
X63261904Y-82964285D01*
X63214285Y-82773809D01*
X63214285Y-82630952D01*
X63261904Y-82440476D01*
X63309523Y-82345238D01*
X63404761Y-82250000D01*
X63547619Y-82202380D01*
X63642857Y-82202380D01*
X63785714Y-82250000D01*
X63833333Y-82297619D01*
X64309523Y-83202380D02*
X64500000Y-83202380D01*
X64595238Y-83154761D01*
X64642857Y-83107142D01*
X64738095Y-82964285D01*
X64785714Y-82773809D01*
X64785714Y-82392857D01*
X64738095Y-82297619D01*
X64690476Y-82250000D01*
X64595238Y-82202380D01*
X64404761Y-82202380D01*
X64309523Y-82250000D01*
X64261904Y-82297619D01*
X64214285Y-82392857D01*
X64214285Y-82630952D01*
X64261904Y-82726190D01*
X64309523Y-82773809D01*
X64404761Y-82821428D01*
X64595238Y-82821428D01*
X64690476Y-82773809D01*
X64738095Y-82726190D01*
X64785714Y-82630952D01*
G04 #@! TO.C,C1*
X50043333Y-87537142D02*
X49995714Y-87584761D01*
X49852857Y-87632380D01*
X49757619Y-87632380D01*
X49614761Y-87584761D01*
X49519523Y-87489523D01*
X49471904Y-87394285D01*
X49424285Y-87203809D01*
X49424285Y-87060952D01*
X49471904Y-86870476D01*
X49519523Y-86775238D01*
X49614761Y-86680000D01*
X49757619Y-86632380D01*
X49852857Y-86632380D01*
X49995714Y-86680000D01*
X50043333Y-86727619D01*
X50995714Y-87632380D02*
X50424285Y-87632380D01*
X50710000Y-87632380D02*
X50710000Y-86632380D01*
X50614761Y-86775238D01*
X50519523Y-86870476D01*
X50424285Y-86918095D01*
G04 #@! TO.C,C6*
X93833333Y-92357142D02*
X93785714Y-92404761D01*
X93642857Y-92452380D01*
X93547619Y-92452380D01*
X93404761Y-92404761D01*
X93309523Y-92309523D01*
X93261904Y-92214285D01*
X93214285Y-92023809D01*
X93214285Y-91880952D01*
X93261904Y-91690476D01*
X93309523Y-91595238D01*
X93404761Y-91500000D01*
X93547619Y-91452380D01*
X93642857Y-91452380D01*
X93785714Y-91500000D01*
X93833333Y-91547619D01*
X94690476Y-91452380D02*
X94500000Y-91452380D01*
X94404761Y-91500000D01*
X94357142Y-91547619D01*
X94261904Y-91690476D01*
X94214285Y-91880952D01*
X94214285Y-92261904D01*
X94261904Y-92357142D01*
X94309523Y-92404761D01*
X94404761Y-92452380D01*
X94595238Y-92452380D01*
X94690476Y-92404761D01*
X94738095Y-92357142D01*
X94785714Y-92261904D01*
X94785714Y-92023809D01*
X94738095Y-91928571D01*
X94690476Y-91880952D01*
X94595238Y-91833333D01*
X94404761Y-91833333D01*
X94309523Y-91880952D01*
X94261904Y-91928571D01*
X94214285Y-92023809D01*
G04 #@! TO.C,C11*
X63357142Y-73857142D02*
X63309523Y-73904761D01*
X63166666Y-73952380D01*
X63071428Y-73952380D01*
X62928571Y-73904761D01*
X62833333Y-73809523D01*
X62785714Y-73714285D01*
X62738095Y-73523809D01*
X62738095Y-73380952D01*
X62785714Y-73190476D01*
X62833333Y-73095238D01*
X62928571Y-73000000D01*
X63071428Y-72952380D01*
X63166666Y-72952380D01*
X63309523Y-73000000D01*
X63357142Y-73047619D01*
X64309523Y-73952380D02*
X63738095Y-73952380D01*
X64023809Y-73952380D02*
X64023809Y-72952380D01*
X63928571Y-73095238D01*
X63833333Y-73190476D01*
X63738095Y-73238095D01*
X65261904Y-73952380D02*
X64690476Y-73952380D01*
X64976190Y-73952380D02*
X64976190Y-72952380D01*
X64880952Y-73095238D01*
X64785714Y-73190476D01*
X64690476Y-73238095D01*
G04 #@! TO.C,R4*
X41897156Y-144193979D02*
X41563823Y-143717789D01*
X41325727Y-144193979D02*
X41325727Y-143193979D01*
X41706680Y-143193979D01*
X41801918Y-143241599D01*
X41849537Y-143289218D01*
X41897156Y-143384456D01*
X41897156Y-143527313D01*
X41849537Y-143622551D01*
X41801918Y-143670170D01*
X41706680Y-143717789D01*
X41325727Y-143717789D01*
X42754299Y-143527313D02*
X42754299Y-144193979D01*
X42516203Y-143146360D02*
X42278108Y-143860646D01*
X42897156Y-143860646D01*
G04 #@! TO.C,R6*
X72152380Y-90666666D02*
X71676190Y-91000000D01*
X72152380Y-91238095D02*
X71152380Y-91238095D01*
X71152380Y-90857142D01*
X71200000Y-90761904D01*
X71247619Y-90714285D01*
X71342857Y-90666666D01*
X71485714Y-90666666D01*
X71580952Y-90714285D01*
X71628571Y-90761904D01*
X71676190Y-90857142D01*
X71676190Y-91238095D01*
X71152380Y-89809523D02*
X71152380Y-90000000D01*
X71200000Y-90095238D01*
X71247619Y-90142857D01*
X71390476Y-90238095D01*
X71580952Y-90285714D01*
X71961904Y-90285714D01*
X72057142Y-90238095D01*
X72104761Y-90190476D01*
X72152380Y-90095238D01*
X72152380Y-89904761D01*
X72104761Y-89809523D01*
X72057142Y-89761904D01*
X71961904Y-89714285D01*
X71723809Y-89714285D01*
X71628571Y-89761904D01*
X71580952Y-89809523D01*
X71533333Y-89904761D01*
X71533333Y-90095238D01*
X71580952Y-90190476D01*
X71628571Y-90238095D01*
X71723809Y-90285714D01*
G04 #@! TO.C,R7*
X57849380Y-99166666D02*
X57373190Y-99500000D01*
X57849380Y-99738095D02*
X56849380Y-99738095D01*
X56849380Y-99357142D01*
X56897000Y-99261904D01*
X56944619Y-99214285D01*
X57039857Y-99166666D01*
X57182714Y-99166666D01*
X57277952Y-99214285D01*
X57325571Y-99261904D01*
X57373190Y-99357142D01*
X57373190Y-99738095D01*
X56849380Y-98833333D02*
X56849380Y-98166666D01*
X57849380Y-98595238D01*
G04 #@! TO.C,R9*
X93833333Y-96452380D02*
X93500000Y-95976190D01*
X93261904Y-96452380D02*
X93261904Y-95452380D01*
X93642857Y-95452380D01*
X93738095Y-95500000D01*
X93785714Y-95547619D01*
X93833333Y-95642857D01*
X93833333Y-95785714D01*
X93785714Y-95880952D01*
X93738095Y-95928571D01*
X93642857Y-95976190D01*
X93261904Y-95976190D01*
X94309523Y-96452380D02*
X94500000Y-96452380D01*
X94595238Y-96404761D01*
X94642857Y-96357142D01*
X94738095Y-96214285D01*
X94785714Y-96023809D01*
X94785714Y-95642857D01*
X94738095Y-95547619D01*
X94690476Y-95500000D01*
X94595238Y-95452380D01*
X94404761Y-95452380D01*
X94309523Y-95500000D01*
X94261904Y-95547619D01*
X94214285Y-95642857D01*
X94214285Y-95880952D01*
X94261904Y-95976190D01*
X94309523Y-96023809D01*
X94404761Y-96071428D01*
X94595238Y-96071428D01*
X94690476Y-96023809D01*
X94738095Y-95976190D01*
X94785714Y-95880952D01*
G04 #@! TO.C,R10*
X61357142Y-94332380D02*
X61023809Y-93856190D01*
X60785714Y-94332380D02*
X60785714Y-93332380D01*
X61166666Y-93332380D01*
X61261904Y-93380000D01*
X61309523Y-93427619D01*
X61357142Y-93522857D01*
X61357142Y-93665714D01*
X61309523Y-93760952D01*
X61261904Y-93808571D01*
X61166666Y-93856190D01*
X60785714Y-93856190D01*
X62309523Y-94332380D02*
X61738095Y-94332380D01*
X62023809Y-94332380D02*
X62023809Y-93332380D01*
X61928571Y-93475238D01*
X61833333Y-93570476D01*
X61738095Y-93618095D01*
X62928571Y-93332380D02*
X63023809Y-93332380D01*
X63119047Y-93380000D01*
X63166666Y-93427619D01*
X63214285Y-93522857D01*
X63261904Y-93713333D01*
X63261904Y-93951428D01*
X63214285Y-94141904D01*
X63166666Y-94237142D01*
X63119047Y-94284761D01*
X63023809Y-94332380D01*
X62928571Y-94332380D01*
X62833333Y-94284761D01*
X62785714Y-94237142D01*
X62738095Y-94141904D01*
X62690476Y-93951428D01*
X62690476Y-93713333D01*
X62738095Y-93522857D01*
X62785714Y-93427619D01*
X62833333Y-93380000D01*
X62928571Y-93332380D01*
G04 #@! TO.C,R13*
X86357142Y-56452380D02*
X86023809Y-55976190D01*
X85785714Y-56452380D02*
X85785714Y-55452380D01*
X86166666Y-55452380D01*
X86261904Y-55500000D01*
X86309523Y-55547619D01*
X86357142Y-55642857D01*
X86357142Y-55785714D01*
X86309523Y-55880952D01*
X86261904Y-55928571D01*
X86166666Y-55976190D01*
X85785714Y-55976190D01*
X87309523Y-56452380D02*
X86738095Y-56452380D01*
X87023809Y-56452380D02*
X87023809Y-55452380D01*
X86928571Y-55595238D01*
X86833333Y-55690476D01*
X86738095Y-55738095D01*
X87642857Y-55452380D02*
X88261904Y-55452380D01*
X87928571Y-55833333D01*
X88071428Y-55833333D01*
X88166666Y-55880952D01*
X88214285Y-55928571D01*
X88261904Y-56023809D01*
X88261904Y-56261904D01*
X88214285Y-56357142D01*
X88166666Y-56404761D01*
X88071428Y-56452380D01*
X87785714Y-56452380D01*
X87690476Y-56404761D01*
X87642857Y-56357142D01*
G04 #@! TO.C,R14*
X86357142Y-59452380D02*
X86023809Y-58976190D01*
X85785714Y-59452380D02*
X85785714Y-58452380D01*
X86166666Y-58452380D01*
X86261904Y-58500000D01*
X86309523Y-58547619D01*
X86357142Y-58642857D01*
X86357142Y-58785714D01*
X86309523Y-58880952D01*
X86261904Y-58928571D01*
X86166666Y-58976190D01*
X85785714Y-58976190D01*
X87309523Y-59452380D02*
X86738095Y-59452380D01*
X87023809Y-59452380D02*
X87023809Y-58452380D01*
X86928571Y-58595238D01*
X86833333Y-58690476D01*
X86738095Y-58738095D01*
X88166666Y-58785714D02*
X88166666Y-59452380D01*
X87928571Y-58404761D02*
X87690476Y-59119047D01*
X88309523Y-59119047D01*
G04 #@! TO.C,R15*
X86357142Y-62452380D02*
X86023809Y-61976190D01*
X85785714Y-62452380D02*
X85785714Y-61452380D01*
X86166666Y-61452380D01*
X86261904Y-61500000D01*
X86309523Y-61547619D01*
X86357142Y-61642857D01*
X86357142Y-61785714D01*
X86309523Y-61880952D01*
X86261904Y-61928571D01*
X86166666Y-61976190D01*
X85785714Y-61976190D01*
X87309523Y-62452380D02*
X86738095Y-62452380D01*
X87023809Y-62452380D02*
X87023809Y-61452380D01*
X86928571Y-61595238D01*
X86833333Y-61690476D01*
X86738095Y-61738095D01*
X88214285Y-61452380D02*
X87738095Y-61452380D01*
X87690476Y-61928571D01*
X87738095Y-61880952D01*
X87833333Y-61833333D01*
X88071428Y-61833333D01*
X88166666Y-61880952D01*
X88214285Y-61928571D01*
X88261904Y-62023809D01*
X88261904Y-62261904D01*
X88214285Y-62357142D01*
X88166666Y-62404761D01*
X88071428Y-62452380D01*
X87833333Y-62452380D01*
X87738095Y-62404761D01*
X87690476Y-62357142D01*
G04 #@! TO.C,U2*
X71238095Y-103866882D02*
X71238095Y-104676406D01*
X71285714Y-104771644D01*
X71333333Y-104819263D01*
X71428571Y-104866882D01*
X71619047Y-104866882D01*
X71714285Y-104819263D01*
X71761904Y-104771644D01*
X71809523Y-104676406D01*
X71809523Y-103866882D01*
X72238095Y-103962121D02*
X72285714Y-103914502D01*
X72380952Y-103866882D01*
X72619047Y-103866882D01*
X72714285Y-103914502D01*
X72761904Y-103962121D01*
X72809523Y-104057359D01*
X72809523Y-104152597D01*
X72761904Y-104295454D01*
X72190476Y-104866882D01*
X72809523Y-104866882D01*
G04 #@! TO.C,C2*
X75607142Y-102166666D02*
X75654761Y-102214285D01*
X75702380Y-102357142D01*
X75702380Y-102452380D01*
X75654761Y-102595238D01*
X75559523Y-102690476D01*
X75464285Y-102738095D01*
X75273809Y-102785714D01*
X75130952Y-102785714D01*
X74940476Y-102738095D01*
X74845238Y-102690476D01*
X74750000Y-102595238D01*
X74702380Y-102452380D01*
X74702380Y-102357142D01*
X74750000Y-102214285D01*
X74797619Y-102166666D01*
X74797619Y-101785714D02*
X74750000Y-101738095D01*
X74702380Y-101642857D01*
X74702380Y-101404761D01*
X74750000Y-101309523D01*
X74797619Y-101261904D01*
X74892857Y-101214285D01*
X74988095Y-101214285D01*
X75130952Y-101261904D01*
X75702380Y-101833333D01*
X75702380Y-101214285D01*
G04 #@! TO.C,C3*
X65607142Y-102166666D02*
X65654761Y-102214285D01*
X65702380Y-102357142D01*
X65702380Y-102452380D01*
X65654761Y-102595238D01*
X65559523Y-102690476D01*
X65464285Y-102738095D01*
X65273809Y-102785714D01*
X65130952Y-102785714D01*
X64940476Y-102738095D01*
X64845238Y-102690476D01*
X64750000Y-102595238D01*
X64702380Y-102452380D01*
X64702380Y-102357142D01*
X64750000Y-102214285D01*
X64797619Y-102166666D01*
X64702380Y-101833333D02*
X64702380Y-101214285D01*
X65083333Y-101547619D01*
X65083333Y-101404761D01*
X65130952Y-101309523D01*
X65178571Y-101261904D01*
X65273809Y-101214285D01*
X65511904Y-101214285D01*
X65607142Y-101261904D01*
X65654761Y-101309523D01*
X65702380Y-101404761D01*
X65702380Y-101690476D01*
X65654761Y-101785714D01*
X65607142Y-101833333D01*
G04 #@! TO.C,D4*
X94261904Y-53452380D02*
X94261904Y-52452380D01*
X94500000Y-52452380D01*
X94642857Y-52500000D01*
X94738095Y-52595238D01*
X94785714Y-52690476D01*
X94833333Y-52880952D01*
X94833333Y-53023809D01*
X94785714Y-53214285D01*
X94738095Y-53309523D01*
X94642857Y-53404761D01*
X94500000Y-53452380D01*
X94261904Y-53452380D01*
X95690476Y-52785714D02*
X95690476Y-53452380D01*
X95452380Y-52404761D02*
X95214285Y-53119047D01*
X95833333Y-53119047D01*
G04 #@! TO.C,D5*
X94261904Y-56452380D02*
X94261904Y-55452380D01*
X94500000Y-55452380D01*
X94642857Y-55500000D01*
X94738095Y-55595238D01*
X94785714Y-55690476D01*
X94833333Y-55880952D01*
X94833333Y-56023809D01*
X94785714Y-56214285D01*
X94738095Y-56309523D01*
X94642857Y-56404761D01*
X94500000Y-56452380D01*
X94261904Y-56452380D01*
X95738095Y-55452380D02*
X95261904Y-55452380D01*
X95214285Y-55928571D01*
X95261904Y-55880952D01*
X95357142Y-55833333D01*
X95595238Y-55833333D01*
X95690476Y-55880952D01*
X95738095Y-55928571D01*
X95785714Y-56023809D01*
X95785714Y-56261904D01*
X95738095Y-56357142D01*
X95690476Y-56404761D01*
X95595238Y-56452380D01*
X95357142Y-56452380D01*
X95261904Y-56404761D01*
X95214285Y-56357142D01*
G04 #@! TO.C,D6*
X94261904Y-59452380D02*
X94261904Y-58452380D01*
X94500000Y-58452380D01*
X94642857Y-58500000D01*
X94738095Y-58595238D01*
X94785714Y-58690476D01*
X94833333Y-58880952D01*
X94833333Y-59023809D01*
X94785714Y-59214285D01*
X94738095Y-59309523D01*
X94642857Y-59404761D01*
X94500000Y-59452380D01*
X94261904Y-59452380D01*
X95690476Y-58452380D02*
X95500000Y-58452380D01*
X95404761Y-58500000D01*
X95357142Y-58547619D01*
X95261904Y-58690476D01*
X95214285Y-58880952D01*
X95214285Y-59261904D01*
X95261904Y-59357142D01*
X95309523Y-59404761D01*
X95404761Y-59452380D01*
X95595238Y-59452380D01*
X95690476Y-59404761D01*
X95738095Y-59357142D01*
X95785714Y-59261904D01*
X95785714Y-59023809D01*
X95738095Y-58928571D01*
X95690476Y-58880952D01*
X95595238Y-58833333D01*
X95404761Y-58833333D01*
X95309523Y-58880952D01*
X95261904Y-58928571D01*
X95214285Y-59023809D01*
G04 #@! TO.C,R18*
X45357142Y-90932380D02*
X45023809Y-90456190D01*
X44785714Y-90932380D02*
X44785714Y-89932380D01*
X45166666Y-89932380D01*
X45261904Y-89980000D01*
X45309523Y-90027619D01*
X45357142Y-90122857D01*
X45357142Y-90265714D01*
X45309523Y-90360952D01*
X45261904Y-90408571D01*
X45166666Y-90456190D01*
X44785714Y-90456190D01*
X46309523Y-90932380D02*
X45738095Y-90932380D01*
X46023809Y-90932380D02*
X46023809Y-89932380D01*
X45928571Y-90075238D01*
X45833333Y-90170476D01*
X45738095Y-90218095D01*
X46880952Y-90360952D02*
X46785714Y-90313333D01*
X46738095Y-90265714D01*
X46690476Y-90170476D01*
X46690476Y-90122857D01*
X46738095Y-90027619D01*
X46785714Y-89980000D01*
X46880952Y-89932380D01*
X47071428Y-89932380D01*
X47166666Y-89980000D01*
X47214285Y-90027619D01*
X47261904Y-90122857D01*
X47261904Y-90170476D01*
X47214285Y-90265714D01*
X47166666Y-90313333D01*
X47071428Y-90360952D01*
X46880952Y-90360952D01*
X46785714Y-90408571D01*
X46738095Y-90456190D01*
X46690476Y-90551428D01*
X46690476Y-90741904D01*
X46738095Y-90837142D01*
X46785714Y-90884761D01*
X46880952Y-90932380D01*
X47071428Y-90932380D01*
X47166666Y-90884761D01*
X47214285Y-90837142D01*
X47261904Y-90741904D01*
X47261904Y-90551428D01*
X47214285Y-90456190D01*
X47166666Y-90408571D01*
X47071428Y-90360952D01*
G04 #@! TO.C,R19*
X43152380Y-85642857D02*
X42676190Y-85976190D01*
X43152380Y-86214285D02*
X42152380Y-86214285D01*
X42152380Y-85833333D01*
X42200000Y-85738095D01*
X42247619Y-85690476D01*
X42342857Y-85642857D01*
X42485714Y-85642857D01*
X42580952Y-85690476D01*
X42628571Y-85738095D01*
X42676190Y-85833333D01*
X42676190Y-86214285D01*
X43152380Y-84690476D02*
X43152380Y-85261904D01*
X43152380Y-84976190D02*
X42152380Y-84976190D01*
X42295238Y-85071428D01*
X42390476Y-85166666D01*
X42438095Y-85261904D01*
X43152380Y-84214285D02*
X43152380Y-84023809D01*
X43104761Y-83928571D01*
X43057142Y-83880952D01*
X42914285Y-83785714D01*
X42723809Y-83738095D01*
X42342857Y-83738095D01*
X42247619Y-83785714D01*
X42200000Y-83833333D01*
X42152380Y-83928571D01*
X42152380Y-84119047D01*
X42200000Y-84214285D01*
X42247619Y-84261904D01*
X42342857Y-84309523D01*
X42580952Y-84309523D01*
X42676190Y-84261904D01*
X42723809Y-84214285D01*
X42771428Y-84119047D01*
X42771428Y-83928571D01*
X42723809Y-83833333D01*
X42676190Y-83785714D01*
X42580952Y-83738095D01*
G04 #@! TO.C,R20*
X63357142Y-76752380D02*
X63023809Y-76276190D01*
X62785714Y-76752380D02*
X62785714Y-75752380D01*
X63166666Y-75752380D01*
X63261904Y-75800000D01*
X63309523Y-75847619D01*
X63357142Y-75942857D01*
X63357142Y-76085714D01*
X63309523Y-76180952D01*
X63261904Y-76228571D01*
X63166666Y-76276190D01*
X62785714Y-76276190D01*
X63738095Y-75847619D02*
X63785714Y-75800000D01*
X63880952Y-75752380D01*
X64119047Y-75752380D01*
X64214285Y-75800000D01*
X64261904Y-75847619D01*
X64309523Y-75942857D01*
X64309523Y-76038095D01*
X64261904Y-76180952D01*
X63690476Y-76752380D01*
X64309523Y-76752380D01*
X64928571Y-75752380D02*
X65023809Y-75752380D01*
X65119047Y-75800000D01*
X65166666Y-75847619D01*
X65214285Y-75942857D01*
X65261904Y-76133333D01*
X65261904Y-76371428D01*
X65214285Y-76561904D01*
X65166666Y-76657142D01*
X65119047Y-76704761D01*
X65023809Y-76752380D01*
X64928571Y-76752380D01*
X64833333Y-76704761D01*
X64785714Y-76657142D01*
X64738095Y-76561904D01*
X64690476Y-76371428D01*
X64690476Y-76133333D01*
X64738095Y-75942857D01*
X64785714Y-75847619D01*
X64833333Y-75800000D01*
X64928571Y-75752380D01*
G04 #@! TO.C,Y1*
X80276190Y-77026190D02*
X80752380Y-77026190D01*
X79752380Y-77359523D02*
X80276190Y-77026190D01*
X79752380Y-76692857D01*
X80752380Y-75835714D02*
X80752380Y-76407142D01*
X80752380Y-76121428D02*
X79752380Y-76121428D01*
X79895238Y-76216666D01*
X79990476Y-76311904D01*
X80038095Y-76407142D01*
G04 #@! TO.C,C7*
X43107142Y-91346666D02*
X43154761Y-91394285D01*
X43202380Y-91537142D01*
X43202380Y-91632380D01*
X43154761Y-91775238D01*
X43059523Y-91870476D01*
X42964285Y-91918095D01*
X42773809Y-91965714D01*
X42630952Y-91965714D01*
X42440476Y-91918095D01*
X42345238Y-91870476D01*
X42250000Y-91775238D01*
X42202380Y-91632380D01*
X42202380Y-91537142D01*
X42250000Y-91394285D01*
X42297619Y-91346666D01*
X42202380Y-91013333D02*
X42202380Y-90346666D01*
X43202380Y-90775238D01*
G04 #@! TO.C,C8*
X57833333Y-77107142D02*
X57785714Y-77154761D01*
X57642857Y-77202380D01*
X57547619Y-77202380D01*
X57404761Y-77154761D01*
X57309523Y-77059523D01*
X57261904Y-76964285D01*
X57214285Y-76773809D01*
X57214285Y-76630952D01*
X57261904Y-76440476D01*
X57309523Y-76345238D01*
X57404761Y-76250000D01*
X57547619Y-76202380D01*
X57642857Y-76202380D01*
X57785714Y-76250000D01*
X57833333Y-76297619D01*
X58404761Y-76630952D02*
X58309523Y-76583333D01*
X58261904Y-76535714D01*
X58214285Y-76440476D01*
X58214285Y-76392857D01*
X58261904Y-76297619D01*
X58309523Y-76250000D01*
X58404761Y-76202380D01*
X58595238Y-76202380D01*
X58690476Y-76250000D01*
X58738095Y-76297619D01*
X58785714Y-76392857D01*
X58785714Y-76440476D01*
X58738095Y-76535714D01*
X58690476Y-76583333D01*
X58595238Y-76630952D01*
X58404761Y-76630952D01*
X58309523Y-76678571D01*
X58261904Y-76726190D01*
X58214285Y-76821428D01*
X58214285Y-77011904D01*
X58261904Y-77107142D01*
X58309523Y-77154761D01*
X58404761Y-77202380D01*
X58595238Y-77202380D01*
X58690476Y-77154761D01*
X58738095Y-77107142D01*
X58785714Y-77011904D01*
X58785714Y-76821428D01*
X58738095Y-76726190D01*
X58690476Y-76678571D01*
X58595238Y-76630952D01*
G04 #@! TO.C,C10*
X85107142Y-83642857D02*
X85154761Y-83690476D01*
X85202380Y-83833333D01*
X85202380Y-83928571D01*
X85154761Y-84071428D01*
X85059523Y-84166666D01*
X84964285Y-84214285D01*
X84773809Y-84261904D01*
X84630952Y-84261904D01*
X84440476Y-84214285D01*
X84345238Y-84166666D01*
X84250000Y-84071428D01*
X84202380Y-83928571D01*
X84202380Y-83833333D01*
X84250000Y-83690476D01*
X84297619Y-83642857D01*
X85202380Y-82690476D02*
X85202380Y-83261904D01*
X85202380Y-82976190D02*
X84202380Y-82976190D01*
X84345238Y-83071428D01*
X84440476Y-83166666D01*
X84488095Y-83261904D01*
X84202380Y-82071428D02*
X84202380Y-81976190D01*
X84250000Y-81880952D01*
X84297619Y-81833333D01*
X84392857Y-81785714D01*
X84583333Y-81738095D01*
X84821428Y-81738095D01*
X85011904Y-81785714D01*
X85107142Y-81833333D01*
X85154761Y-81880952D01*
X85202380Y-81976190D01*
X85202380Y-82071428D01*
X85154761Y-82166666D01*
X85107142Y-82214285D01*
X85011904Y-82261904D01*
X84821428Y-82309523D01*
X84583333Y-82309523D01*
X84392857Y-82261904D01*
X84297619Y-82214285D01*
X84250000Y-82166666D01*
X84202380Y-82071428D01*
G04 #@! TO.C,D3*
X94261904Y-50452380D02*
X94261904Y-49452380D01*
X94500000Y-49452380D01*
X94642857Y-49500000D01*
X94738095Y-49595238D01*
X94785714Y-49690476D01*
X94833333Y-49880952D01*
X94833333Y-50023809D01*
X94785714Y-50214285D01*
X94738095Y-50309523D01*
X94642857Y-50404761D01*
X94500000Y-50452380D01*
X94261904Y-50452380D01*
X95166666Y-49452380D02*
X95785714Y-49452380D01*
X95452380Y-49833333D01*
X95595238Y-49833333D01*
X95690476Y-49880952D01*
X95738095Y-49928571D01*
X95785714Y-50023809D01*
X95785714Y-50261904D01*
X95738095Y-50357142D01*
X95690476Y-50404761D01*
X95595238Y-50452380D01*
X95309523Y-50452380D01*
X95214285Y-50404761D01*
X95166666Y-50357142D01*
G04 #@! TO.C,D8*
X45261904Y-82952380D02*
X45261904Y-81952380D01*
X45500000Y-81952380D01*
X45642857Y-82000000D01*
X45738095Y-82095238D01*
X45785714Y-82190476D01*
X45833333Y-82380952D01*
X45833333Y-82523809D01*
X45785714Y-82714285D01*
X45738095Y-82809523D01*
X45642857Y-82904761D01*
X45500000Y-82952380D01*
X45261904Y-82952380D01*
X46404761Y-82380952D02*
X46309523Y-82333333D01*
X46261904Y-82285714D01*
X46214285Y-82190476D01*
X46214285Y-82142857D01*
X46261904Y-82047619D01*
X46309523Y-82000000D01*
X46404761Y-81952380D01*
X46595238Y-81952380D01*
X46690476Y-82000000D01*
X46738095Y-82047619D01*
X46785714Y-82142857D01*
X46785714Y-82190476D01*
X46738095Y-82285714D01*
X46690476Y-82333333D01*
X46595238Y-82380952D01*
X46404761Y-82380952D01*
X46309523Y-82428571D01*
X46261904Y-82476190D01*
X46214285Y-82571428D01*
X46214285Y-82761904D01*
X46261904Y-82857142D01*
X46309523Y-82904761D01*
X46404761Y-82952380D01*
X46595238Y-82952380D01*
X46690476Y-82904761D01*
X46738095Y-82857142D01*
X46785714Y-82761904D01*
X46785714Y-82571428D01*
X46738095Y-82476190D01*
X46690476Y-82428571D01*
X46595238Y-82380952D01*
G04 #@! TO.C,R8*
X86833333Y-50452380D02*
X86500000Y-49976190D01*
X86261904Y-50452380D02*
X86261904Y-49452380D01*
X86642857Y-49452380D01*
X86738095Y-49500000D01*
X86785714Y-49547619D01*
X86833333Y-49642857D01*
X86833333Y-49785714D01*
X86785714Y-49880952D01*
X86738095Y-49928571D01*
X86642857Y-49976190D01*
X86261904Y-49976190D01*
X87404761Y-49880952D02*
X87309523Y-49833333D01*
X87261904Y-49785714D01*
X87214285Y-49690476D01*
X87214285Y-49642857D01*
X87261904Y-49547619D01*
X87309523Y-49500000D01*
X87404761Y-49452380D01*
X87595238Y-49452380D01*
X87690476Y-49500000D01*
X87738095Y-49547619D01*
X87785714Y-49642857D01*
X87785714Y-49690476D01*
X87738095Y-49785714D01*
X87690476Y-49833333D01*
X87595238Y-49880952D01*
X87404761Y-49880952D01*
X87309523Y-49928571D01*
X87261904Y-49976190D01*
X87214285Y-50071428D01*
X87214285Y-50261904D01*
X87261904Y-50357142D01*
X87309523Y-50404761D01*
X87404761Y-50452380D01*
X87595238Y-50452380D01*
X87690476Y-50404761D01*
X87738095Y-50357142D01*
X87785714Y-50261904D01*
X87785714Y-50071428D01*
X87738095Y-49976190D01*
X87690476Y-49928571D01*
X87595238Y-49880952D01*
G04 #@! TO.C,R11*
X86357142Y-53452380D02*
X86023809Y-52976190D01*
X85785714Y-53452380D02*
X85785714Y-52452380D01*
X86166666Y-52452380D01*
X86261904Y-52500000D01*
X86309523Y-52547619D01*
X86357142Y-52642857D01*
X86357142Y-52785714D01*
X86309523Y-52880952D01*
X86261904Y-52928571D01*
X86166666Y-52976190D01*
X85785714Y-52976190D01*
X87309523Y-53452380D02*
X86738095Y-53452380D01*
X87023809Y-53452380D02*
X87023809Y-52452380D01*
X86928571Y-52595238D01*
X86833333Y-52690476D01*
X86738095Y-52738095D01*
X88261904Y-53452380D02*
X87690476Y-53452380D01*
X87976190Y-53452380D02*
X87976190Y-52452380D01*
X87880952Y-52595238D01*
X87785714Y-52690476D01*
X87690476Y-52738095D01*
G04 #@! TO.C,U4*
X36228380Y-68873904D02*
X37037904Y-68873904D01*
X37133142Y-68826285D01*
X37180761Y-68778666D01*
X37228380Y-68683428D01*
X37228380Y-68492952D01*
X37180761Y-68397714D01*
X37133142Y-68350095D01*
X37037904Y-68302476D01*
X36228380Y-68302476D01*
X36561714Y-67397714D02*
X37228380Y-67397714D01*
X36180761Y-67635809D02*
X36895047Y-67873904D01*
X36895047Y-67254857D01*
G04 #@! TO.C,C4*
X59357142Y-102166666D02*
X59404761Y-102214285D01*
X59452380Y-102357142D01*
X59452380Y-102452380D01*
X59404761Y-102595238D01*
X59309523Y-102690476D01*
X59214285Y-102738095D01*
X59023809Y-102785714D01*
X58880952Y-102785714D01*
X58690476Y-102738095D01*
X58595238Y-102690476D01*
X58500000Y-102595238D01*
X58452380Y-102452380D01*
X58452380Y-102357142D01*
X58500000Y-102214285D01*
X58547619Y-102166666D01*
X58785714Y-101309523D02*
X59452380Y-101309523D01*
X58404761Y-101547619D02*
X59119047Y-101785714D01*
X59119047Y-101166666D01*
X64081428Y-105150952D02*
X64081428Y-104389047D01*
X64462380Y-104770000D02*
X63700476Y-104770000D01*
G04 #@! TO.C,C5*
X61833333Y-97607142D02*
X61785714Y-97654761D01*
X61642857Y-97702380D01*
X61547619Y-97702380D01*
X61404761Y-97654761D01*
X61309523Y-97559523D01*
X61261904Y-97464285D01*
X61214285Y-97273809D01*
X61214285Y-97130952D01*
X61261904Y-96940476D01*
X61309523Y-96845238D01*
X61404761Y-96750000D01*
X61547619Y-96702380D01*
X61642857Y-96702380D01*
X61785714Y-96750000D01*
X61833333Y-96797619D01*
X62738095Y-96702380D02*
X62261904Y-96702380D01*
X62214285Y-97178571D01*
X62261904Y-97130952D01*
X62357142Y-97083333D01*
X62595238Y-97083333D01*
X62690476Y-97130952D01*
X62738095Y-97178571D01*
X62785714Y-97273809D01*
X62785714Y-97511904D01*
X62738095Y-97607142D01*
X62690476Y-97654761D01*
X62595238Y-97702380D01*
X62357142Y-97702380D01*
X62261904Y-97654761D01*
X62214285Y-97607142D01*
G04 #@! TO.C,D2*
X61261904Y-83132380D02*
X61261904Y-82132380D01*
X61500000Y-82132380D01*
X61642857Y-82180000D01*
X61738095Y-82275238D01*
X61785714Y-82370476D01*
X61833333Y-82560952D01*
X61833333Y-82703809D01*
X61785714Y-82894285D01*
X61738095Y-82989523D01*
X61642857Y-83084761D01*
X61500000Y-83132380D01*
X61261904Y-83132380D01*
X62214285Y-82227619D02*
X62261904Y-82180000D01*
X62357142Y-82132380D01*
X62595238Y-82132380D01*
X62690476Y-82180000D01*
X62738095Y-82227619D01*
X62785714Y-82322857D01*
X62785714Y-82418095D01*
X62738095Y-82560952D01*
X62166666Y-83132380D01*
X62785714Y-83132380D01*
G04 #@! TO.C,D7*
X94261904Y-62452380D02*
X94261904Y-61452380D01*
X94500000Y-61452380D01*
X94642857Y-61500000D01*
X94738095Y-61595238D01*
X94785714Y-61690476D01*
X94833333Y-61880952D01*
X94833333Y-62023809D01*
X94785714Y-62214285D01*
X94738095Y-62309523D01*
X94642857Y-62404761D01*
X94500000Y-62452380D01*
X94261904Y-62452380D01*
X95166666Y-61452380D02*
X95833333Y-61452380D01*
X95404761Y-62452380D01*
G04 #@! TO.C,J3*
X92936666Y-74222380D02*
X92936666Y-74936666D01*
X92889047Y-75079523D01*
X92793809Y-75174761D01*
X92650952Y-75222380D01*
X92555714Y-75222380D01*
X93317619Y-74222380D02*
X93936666Y-74222380D01*
X93603333Y-74603333D01*
X93746190Y-74603333D01*
X93841428Y-74650952D01*
X93889047Y-74698571D01*
X93936666Y-74793809D01*
X93936666Y-75031904D01*
X93889047Y-75127142D01*
X93841428Y-75174761D01*
X93746190Y-75222380D01*
X93460476Y-75222380D01*
X93365238Y-75174761D01*
X93317619Y-75127142D01*
G04 #@! TO.C,J4*
X106666666Y-73122380D02*
X106666666Y-73836666D01*
X106619047Y-73979523D01*
X106523809Y-74074761D01*
X106380952Y-74122380D01*
X106285714Y-74122380D01*
X107571428Y-73455714D02*
X107571428Y-74122380D01*
X107333333Y-73074761D02*
X107095238Y-73789047D01*
X107714285Y-73789047D01*
G04 #@! TO.C,J5*
X99282380Y-67333333D02*
X99996666Y-67333333D01*
X100139523Y-67380952D01*
X100234761Y-67476190D01*
X100282380Y-67619047D01*
X100282380Y-67714285D01*
X99282380Y-66380952D02*
X99282380Y-66857142D01*
X99758571Y-66904761D01*
X99710952Y-66857142D01*
X99663333Y-66761904D01*
X99663333Y-66523809D01*
X99710952Y-66428571D01*
X99758571Y-66380952D01*
X99853809Y-66333333D01*
X100091904Y-66333333D01*
X100187142Y-66380952D01*
X100234761Y-66428571D01*
X100282380Y-66523809D01*
X100282380Y-66761904D01*
X100234761Y-66857142D01*
X100187142Y-66904761D01*
G04 #@! TO.C,J6*
X100666666Y-73122380D02*
X100666666Y-73836666D01*
X100619047Y-73979523D01*
X100523809Y-74074761D01*
X100380952Y-74122380D01*
X100285714Y-74122380D01*
X101571428Y-73122380D02*
X101380952Y-73122380D01*
X101285714Y-73170000D01*
X101238095Y-73217619D01*
X101142857Y-73360476D01*
X101095238Y-73550952D01*
X101095238Y-73931904D01*
X101142857Y-74027142D01*
X101190476Y-74074761D01*
X101285714Y-74122380D01*
X101476190Y-74122380D01*
X101571428Y-74074761D01*
X101619047Y-74027142D01*
X101666666Y-73931904D01*
X101666666Y-73693809D01*
X101619047Y-73598571D01*
X101571428Y-73550952D01*
X101476190Y-73503333D01*
X101285714Y-73503333D01*
X101190476Y-73550952D01*
X101142857Y-73598571D01*
X101095238Y-73693809D01*
G04 #@! TO.C,R1*
X96057156Y-142333979D02*
X95723823Y-141857789D01*
X95485727Y-142333979D02*
X95485727Y-141333979D01*
X95866680Y-141333979D01*
X95961918Y-141381599D01*
X96009537Y-141429218D01*
X96057156Y-141524456D01*
X96057156Y-141667313D01*
X96009537Y-141762551D01*
X95961918Y-141810170D01*
X95866680Y-141857789D01*
X95485727Y-141857789D01*
X97009537Y-142333979D02*
X96438108Y-142333979D01*
X96723823Y-142333979D02*
X96723823Y-141333979D01*
X96628584Y-141476837D01*
X96533346Y-141572075D01*
X96438108Y-141619694D01*
G04 #@! TO.C,R2*
X71057156Y-142333979D02*
X70723823Y-141857789D01*
X70485727Y-142333979D02*
X70485727Y-141333979D01*
X70866680Y-141333979D01*
X70961918Y-141381599D01*
X71009537Y-141429218D01*
X71057156Y-141524456D01*
X71057156Y-141667313D01*
X71009537Y-141762551D01*
X70961918Y-141810170D01*
X70866680Y-141857789D01*
X70485727Y-141857789D01*
X71438108Y-141429218D02*
X71485727Y-141381599D01*
X71580965Y-141333979D01*
X71819061Y-141333979D01*
X71914299Y-141381599D01*
X71961918Y-141429218D01*
X72009537Y-141524456D01*
X72009537Y-141619694D01*
X71961918Y-141762551D01*
X71390489Y-142333979D01*
X72009537Y-142333979D01*
G04 #@! TO.C,R3*
X51977156Y-143583979D02*
X51643823Y-143107789D01*
X51405727Y-143583979D02*
X51405727Y-142583979D01*
X51786680Y-142583979D01*
X51881918Y-142631599D01*
X51929537Y-142679218D01*
X51977156Y-142774456D01*
X51977156Y-142917313D01*
X51929537Y-143012551D01*
X51881918Y-143060170D01*
X51786680Y-143107789D01*
X51405727Y-143107789D01*
X52310489Y-142583979D02*
X52929537Y-142583979D01*
X52596203Y-142964932D01*
X52739061Y-142964932D01*
X52834299Y-143012551D01*
X52881918Y-143060170D01*
X52929537Y-143155408D01*
X52929537Y-143393503D01*
X52881918Y-143488741D01*
X52834299Y-143536360D01*
X52739061Y-143583979D01*
X52453346Y-143583979D01*
X52358108Y-143536360D01*
X52310489Y-143488741D01*
G04 #@! TO.C,R12*
X61357142Y-91332380D02*
X61023809Y-90856190D01*
X60785714Y-91332380D02*
X60785714Y-90332380D01*
X61166666Y-90332380D01*
X61261904Y-90380000D01*
X61309523Y-90427619D01*
X61357142Y-90522857D01*
X61357142Y-90665714D01*
X61309523Y-90760952D01*
X61261904Y-90808571D01*
X61166666Y-90856190D01*
X60785714Y-90856190D01*
X62309523Y-91332380D02*
X61738095Y-91332380D01*
X62023809Y-91332380D02*
X62023809Y-90332380D01*
X61928571Y-90475238D01*
X61833333Y-90570476D01*
X61738095Y-90618095D01*
X62690476Y-90427619D02*
X62738095Y-90380000D01*
X62833333Y-90332380D01*
X63071428Y-90332380D01*
X63166666Y-90380000D01*
X63214285Y-90427619D01*
X63261904Y-90522857D01*
X63261904Y-90618095D01*
X63214285Y-90760952D01*
X62642857Y-91332380D01*
X63261904Y-91332380D01*
G04 #@! TO.C,R16*
X45357142Y-87932380D02*
X45023809Y-87456190D01*
X44785714Y-87932380D02*
X44785714Y-86932380D01*
X45166666Y-86932380D01*
X45261904Y-86980000D01*
X45309523Y-87027619D01*
X45357142Y-87122857D01*
X45357142Y-87265714D01*
X45309523Y-87360952D01*
X45261904Y-87408571D01*
X45166666Y-87456190D01*
X44785714Y-87456190D01*
X46309523Y-87932380D02*
X45738095Y-87932380D01*
X46023809Y-87932380D02*
X46023809Y-86932380D01*
X45928571Y-87075238D01*
X45833333Y-87170476D01*
X45738095Y-87218095D01*
X47166666Y-86932380D02*
X46976190Y-86932380D01*
X46880952Y-86980000D01*
X46833333Y-87027619D01*
X46738095Y-87170476D01*
X46690476Y-87360952D01*
X46690476Y-87741904D01*
X46738095Y-87837142D01*
X46785714Y-87884761D01*
X46880952Y-87932380D01*
X47071428Y-87932380D01*
X47166666Y-87884761D01*
X47214285Y-87837142D01*
X47261904Y-87741904D01*
X47261904Y-87503809D01*
X47214285Y-87408571D01*
X47166666Y-87360952D01*
X47071428Y-87313333D01*
X46880952Y-87313333D01*
X46785714Y-87360952D01*
X46738095Y-87408571D01*
X46690476Y-87503809D01*
G04 #@! TO.C,R17*
X54152380Y-99642857D02*
X53676190Y-99976190D01*
X54152380Y-100214285D02*
X53152380Y-100214285D01*
X53152380Y-99833333D01*
X53200000Y-99738095D01*
X53247619Y-99690476D01*
X53342857Y-99642857D01*
X53485714Y-99642857D01*
X53580952Y-99690476D01*
X53628571Y-99738095D01*
X53676190Y-99833333D01*
X53676190Y-100214285D01*
X54152380Y-98690476D02*
X54152380Y-99261904D01*
X54152380Y-98976190D02*
X53152380Y-98976190D01*
X53295238Y-99071428D01*
X53390476Y-99166666D01*
X53438095Y-99261904D01*
X53152380Y-98357142D02*
X53152380Y-97690476D01*
X54152380Y-98119047D01*
G04 #@! TO.C,U1*
X53238095Y-88132380D02*
X53238095Y-88941904D01*
X53285714Y-89037142D01*
X53333333Y-89084761D01*
X53428571Y-89132380D01*
X53619047Y-89132380D01*
X53714285Y-89084761D01*
X53761904Y-89037142D01*
X53809523Y-88941904D01*
X53809523Y-88132380D01*
X54809523Y-89132380D02*
X54238095Y-89132380D01*
X54523809Y-89132380D02*
X54523809Y-88132380D01*
X54428571Y-88275238D01*
X54333333Y-88370476D01*
X54238095Y-88418095D01*
G04 #@! TO.C,U3*
X73238095Y-84502380D02*
X73238095Y-85311904D01*
X73285714Y-85407142D01*
X73333333Y-85454761D01*
X73428571Y-85502380D01*
X73619047Y-85502380D01*
X73714285Y-85454761D01*
X73761904Y-85407142D01*
X73809523Y-85311904D01*
X73809523Y-84502380D01*
X74190476Y-84502380D02*
X74809523Y-84502380D01*
X74476190Y-84883333D01*
X74619047Y-84883333D01*
X74714285Y-84930952D01*
X74761904Y-84978571D01*
X74809523Y-85073809D01*
X74809523Y-85311904D01*
X74761904Y-85407142D01*
X74714285Y-85454761D01*
X74619047Y-85502380D01*
X74333333Y-85502380D01*
X74238095Y-85454761D01*
X74190476Y-85407142D01*
G04 #@! TO.C,D1*
X91761904Y-99952380D02*
X91761904Y-98952380D01*
X92000000Y-98952380D01*
X92142857Y-99000000D01*
X92238095Y-99095238D01*
X92285714Y-99190476D01*
X92333333Y-99380952D01*
X92333333Y-99523809D01*
X92285714Y-99714285D01*
X92238095Y-99809523D01*
X92142857Y-99904761D01*
X92000000Y-99952380D01*
X91761904Y-99952380D01*
X93285714Y-99952380D02*
X92714285Y-99952380D01*
X93000000Y-99952380D02*
X93000000Y-98952380D01*
X92904761Y-99095238D01*
X92809523Y-99190476D01*
X92714285Y-99238095D01*
G04 #@! TO.C,J1*
X92666666Y-165452380D02*
X92666666Y-166166666D01*
X92619047Y-166309523D01*
X92523809Y-166404761D01*
X92380952Y-166452380D01*
X92285714Y-166452380D01*
X93666666Y-166452380D02*
X93095238Y-166452380D01*
X93380952Y-166452380D02*
X93380952Y-165452380D01*
X93285714Y-165595238D01*
X93190476Y-165690476D01*
X93095238Y-165738095D01*
G04 #@! TO.C,J2*
X54666666Y-165452380D02*
X54666666Y-166166666D01*
X54619047Y-166309523D01*
X54523809Y-166404761D01*
X54380952Y-166452380D01*
X54285714Y-166452380D01*
X55095238Y-165547619D02*
X55142857Y-165500000D01*
X55238095Y-165452380D01*
X55476190Y-165452380D01*
X55571428Y-165500000D01*
X55619047Y-165547619D01*
X55666666Y-165642857D01*
X55666666Y-165738095D01*
X55619047Y-165880952D01*
X55047619Y-166452380D01*
X55666666Y-166452380D01*
G04 #@! TO.C,R5*
X68652380Y-90666666D02*
X68176190Y-91000000D01*
X68652380Y-91238095D02*
X67652380Y-91238095D01*
X67652380Y-90857142D01*
X67700000Y-90761904D01*
X67747619Y-90714285D01*
X67842857Y-90666666D01*
X67985714Y-90666666D01*
X68080952Y-90714285D01*
X68128571Y-90761904D01*
X68176190Y-90857142D01*
X68176190Y-91238095D01*
X67652380Y-89761904D02*
X67652380Y-90238095D01*
X68128571Y-90285714D01*
X68080952Y-90238095D01*
X68033333Y-90142857D01*
X68033333Y-89904761D01*
X68080952Y-89809523D01*
X68128571Y-89761904D01*
X68223809Y-89714285D01*
X68461904Y-89714285D01*
X68557142Y-89761904D01*
X68604761Y-89809523D01*
X68652380Y-89904761D01*
X68652380Y-90142857D01*
X68604761Y-90238095D01*
X68557142Y-90285714D01*
G04 #@! TO.C,J7*
X75952380Y-62633333D02*
X76666666Y-62633333D01*
X76809523Y-62680952D01*
X76904761Y-62776190D01*
X76952380Y-62919047D01*
X76952380Y-63014285D01*
X75952380Y-62252380D02*
X75952380Y-61585714D01*
X76952380Y-62014285D01*
G04 #@! TO.C,C12*
X87107142Y-93642857D02*
X87154761Y-93690476D01*
X87202380Y-93833333D01*
X87202380Y-93928571D01*
X87154761Y-94071428D01*
X87059523Y-94166666D01*
X86964285Y-94214285D01*
X86773809Y-94261904D01*
X86630952Y-94261904D01*
X86440476Y-94214285D01*
X86345238Y-94166666D01*
X86250000Y-94071428D01*
X86202380Y-93928571D01*
X86202380Y-93833333D01*
X86250000Y-93690476D01*
X86297619Y-93642857D01*
X87202380Y-92690476D02*
X87202380Y-93261904D01*
X87202380Y-92976190D02*
X86202380Y-92976190D01*
X86345238Y-93071428D01*
X86440476Y-93166666D01*
X86488095Y-93261904D01*
X86297619Y-92309523D02*
X86250000Y-92261904D01*
X86202380Y-92166666D01*
X86202380Y-91928571D01*
X86250000Y-91833333D01*
X86297619Y-91785714D01*
X86392857Y-91738095D01*
X86488095Y-91738095D01*
X86630952Y-91785714D01*
X87202380Y-92357142D01*
X87202380Y-91738095D01*
G04 #@! TO.C,C13*
X76107142Y-95642857D02*
X76154761Y-95690476D01*
X76202380Y-95833333D01*
X76202380Y-95928571D01*
X76154761Y-96071428D01*
X76059523Y-96166666D01*
X75964285Y-96214285D01*
X75773809Y-96261904D01*
X75630952Y-96261904D01*
X75440476Y-96214285D01*
X75345238Y-96166666D01*
X75250000Y-96071428D01*
X75202380Y-95928571D01*
X75202380Y-95833333D01*
X75250000Y-95690476D01*
X75297619Y-95642857D01*
X76202380Y-94690476D02*
X76202380Y-95261904D01*
X76202380Y-94976190D02*
X75202380Y-94976190D01*
X75345238Y-95071428D01*
X75440476Y-95166666D01*
X75488095Y-95261904D01*
X75202380Y-94357142D02*
X75202380Y-93738095D01*
X75583333Y-94071428D01*
X75583333Y-93928571D01*
X75630952Y-93833333D01*
X75678571Y-93785714D01*
X75773809Y-93738095D01*
X76011904Y-93738095D01*
X76107142Y-93785714D01*
X76154761Y-93833333D01*
X76202380Y-93928571D01*
X76202380Y-94214285D01*
X76154761Y-94309523D01*
X76107142Y-94357142D01*
G04 #@! TO.C,C14*
X78857142Y-99607142D02*
X78809523Y-99654761D01*
X78666666Y-99702380D01*
X78571428Y-99702380D01*
X78428571Y-99654761D01*
X78333333Y-99559523D01*
X78285714Y-99464285D01*
X78238095Y-99273809D01*
X78238095Y-99130952D01*
X78285714Y-98940476D01*
X78333333Y-98845238D01*
X78428571Y-98750000D01*
X78571428Y-98702380D01*
X78666666Y-98702380D01*
X78809523Y-98750000D01*
X78857142Y-98797619D01*
X79809523Y-99702380D02*
X79238095Y-99702380D01*
X79523809Y-99702380D02*
X79523809Y-98702380D01*
X79428571Y-98845238D01*
X79333333Y-98940476D01*
X79238095Y-98988095D01*
X80666666Y-99035714D02*
X80666666Y-99702380D01*
X80428571Y-98654761D02*
X80190476Y-99369047D01*
X80809523Y-99369047D01*
G04 #@! TO.C,J8*
X85166666Y-96622380D02*
X85166666Y-97336666D01*
X85119047Y-97479523D01*
X85023809Y-97574761D01*
X84880952Y-97622380D01*
X84785714Y-97622380D01*
X85785714Y-97050952D02*
X85690476Y-97003333D01*
X85642857Y-96955714D01*
X85595238Y-96860476D01*
X85595238Y-96812857D01*
X85642857Y-96717619D01*
X85690476Y-96670000D01*
X85785714Y-96622380D01*
X85976190Y-96622380D01*
X86071428Y-96670000D01*
X86119047Y-96717619D01*
X86166666Y-96812857D01*
X86166666Y-96860476D01*
X86119047Y-96955714D01*
X86071428Y-97003333D01*
X85976190Y-97050952D01*
X85785714Y-97050952D01*
X85690476Y-97098571D01*
X85642857Y-97146190D01*
X85595238Y-97241428D01*
X85595238Y-97431904D01*
X85642857Y-97527142D01*
X85690476Y-97574761D01*
X85785714Y-97622380D01*
X85976190Y-97622380D01*
X86071428Y-97574761D01*
X86119047Y-97527142D01*
X86166666Y-97431904D01*
X86166666Y-97241428D01*
X86119047Y-97146190D01*
X86071428Y-97098571D01*
X85976190Y-97050952D01*
G04 #@! TO.C,R21*
X74357142Y-91652380D02*
X74023809Y-91176190D01*
X73785714Y-91652380D02*
X73785714Y-90652380D01*
X74166666Y-90652380D01*
X74261904Y-90700000D01*
X74309523Y-90747619D01*
X74357142Y-90842857D01*
X74357142Y-90985714D01*
X74309523Y-91080952D01*
X74261904Y-91128571D01*
X74166666Y-91176190D01*
X73785714Y-91176190D01*
X74738095Y-90747619D02*
X74785714Y-90700000D01*
X74880952Y-90652380D01*
X75119047Y-90652380D01*
X75214285Y-90700000D01*
X75261904Y-90747619D01*
X75309523Y-90842857D01*
X75309523Y-90938095D01*
X75261904Y-91080952D01*
X74690476Y-91652380D01*
X75309523Y-91652380D01*
X76261904Y-91652380D02*
X75690476Y-91652380D01*
X75976190Y-91652380D02*
X75976190Y-90652380D01*
X75880952Y-90795238D01*
X75785714Y-90890476D01*
X75690476Y-90938095D01*
G04 #@! TO.C,U5*
X78738095Y-89852380D02*
X78738095Y-90661904D01*
X78785714Y-90757142D01*
X78833333Y-90804761D01*
X78928571Y-90852380D01*
X79119047Y-90852380D01*
X79214285Y-90804761D01*
X79261904Y-90757142D01*
X79309523Y-90661904D01*
X79309523Y-89852380D01*
X80261904Y-89852380D02*
X79785714Y-89852380D01*
X79738095Y-90328571D01*
X79785714Y-90280952D01*
X79880952Y-90233333D01*
X80119047Y-90233333D01*
X80214285Y-90280952D01*
X80261904Y-90328571D01*
X80309523Y-90423809D01*
X80309523Y-90661904D01*
X80261904Y-90757142D01*
X80214285Y-90804761D01*
X80119047Y-90852380D01*
X79880952Y-90852380D01*
X79785714Y-90804761D01*
X79738095Y-90757142D01*
G04 #@! TD*
M02*
